*
G04 Mass Parameters ***
*
G04 Image ***
*
%INC:\USERS\FOX\DESKTOP\ST\ISV0012V1\ISV0012V1-1.SPT*%
%ICAS*%
%MOIN*%
%IPPOS*%
%ASAXBY*%
G74*%FSLAN2X34Y34*%
*
G04 Aperture Definitions ***
*
%ADD10C,0.1870*%
%ADD11R,0.0500X0.0500*%
%ADD12R,0.0787X0.1181*%
%ADD13R,0.0394X0.0394*%
%ADD14C,0.0620*%
%ADD15R,0.0590X0.0100*%
%ADD16R,0.0630X0.0630*%
%ADD17R,0.0098X0.0394*%
%ADD18R,0.0394X0.0098*%
%ADD19C,0.0787*%
%ADD20R,0.0720X0.1660*%
%ADD21R,0.0320X0.0380*%
%ADD22R,0.1150X0.1100*%
%ADD23R,0.1100X0.1150*%
%ADD24C,0.0157*%
%ADD25C,0.0197*%
%ADD26C,0.0010*%
%ADD27C,0.0100*%
%ADD28C,0.0157*%
%ADD29C,0.0118*%
%ADD30C,0.0197*%
%ADD31C,0.0197*%
%ADD32C,0.0120*%
%ADD33C,0.0394*%
%ADD34R,0.9449X0.1968*%
%ADD35C,0.0197*%
%ADD36C,0.1968*%
%ADD37C,0.0670*%
%ADD38C,0.0886*%
%ADD39C,0.0039*%
%ADD40R,0.9842X0.2047*%
%ADD41R,0.0590X0.0098*%
*
G04 Plot Data ***
*
G54D26*
G01X-0013400Y0035376D02*
X-0013948D01*
X-0013400D02*
Y0032912D01*
Y0032883D01*
X-0015065D01*
Y0034259D02*
Y0032883D01*
X-0013948Y0035376D02*
X-0015065Y0034259D01*
X-0013414Y0035376D02*
Y0032883D01*
X-0013423Y0035376D02*
Y0032883D01*
X-0013432Y0035376D02*
Y0032883D01*
X-0013441Y0035376D02*
Y0032883D01*
X-0013450Y0035376D02*
Y0032883D01*
X-0013459Y0035376D02*
Y0032883D01*
X-0013468Y0035376D02*
Y0032883D01*
X-0013477Y0035376D02*
Y0032883D01*
X-0013486Y0035376D02*
Y0032883D01*
X-0013495Y0035376D02*
Y0032883D01*
X-0013504Y0035376D02*
Y0032883D01*
X-0013513Y0035376D02*
Y0032883D01*
X-0013522Y0035376D02*
Y0032883D01*
X-0013531Y0035376D02*
Y0032883D01*
X-0013540Y0035376D02*
Y0032883D01*
X-0013549Y0035376D02*
Y0032883D01*
X-0013558Y0035376D02*
Y0032883D01*
X-0013567Y0035376D02*
Y0032883D01*
X-0013576Y0035376D02*
Y0032883D01*
X-0013585Y0035376D02*
Y0032883D01*
X-0013594Y0035376D02*
Y0032883D01*
X-0013603Y0035376D02*
Y0032883D01*
X-0013612Y0035376D02*
Y0032883D01*
X-0013621Y0035376D02*
Y0032883D01*
X-0013630Y0035376D02*
Y0032883D01*
X-0013639Y0035376D02*
Y0032883D01*
X-0013648Y0035376D02*
Y0032883D01*
X-0013657Y0035376D02*
Y0032883D01*
X-0013666Y0035376D02*
Y0032883D01*
X-0013675Y0035376D02*
Y0032883D01*
X-0013684Y0035376D02*
Y0032883D01*
X-0013693Y0035376D02*
Y0032883D01*
X-0013702Y0035376D02*
Y0032883D01*
X-0013711Y0035376D02*
Y0032883D01*
X-0013720Y0035376D02*
Y0032883D01*
X-0013729Y0035376D02*
Y0032883D01*
X-0013738Y0035376D02*
Y0032883D01*
X-0013747Y0035376D02*
Y0032883D01*
X-0013756Y0035376D02*
Y0032883D01*
X-0013765Y0035376D02*
Y0032883D01*
X-0013774Y0035376D02*
Y0032883D01*
X-0013783Y0035376D02*
Y0032883D01*
X-0013792Y0035376D02*
Y0032883D01*
X-0013801Y0035376D02*
Y0032883D01*
X-0013810Y0035376D02*
Y0032883D01*
X-0013819Y0035376D02*
Y0032883D01*
X-0013828Y0035376D02*
Y0032883D01*
X-0013837Y0035376D02*
Y0032883D01*
X-0013846Y0035376D02*
Y0032883D01*
X-0013855Y0035376D02*
Y0032883D01*
X-0013864Y0035376D02*
Y0032883D01*
X-0013873Y0035376D02*
Y0032883D01*
X-0013882Y0035376D02*
Y0032883D01*
X-0013891Y0035376D02*
Y0032883D01*
X-0013900Y0035376D02*
Y0032883D01*
X-0013909Y0035376D02*
Y0032883D01*
X-0013918Y0035376D02*
Y0032883D01*
X-0013927Y0035376D02*
Y0032883D01*
X-0013936Y0035376D02*
Y0032883D01*
X-0013945Y0035376D02*
Y0032883D01*
X-0013954Y0035370D02*
Y0032883D01*
X-0013963Y0035361D02*
Y0032883D01*
X-0013972Y0035352D02*
Y0032883D01*
X-0013981Y0035343D02*
Y0032883D01*
X-0013990Y0035334D02*
Y0032883D01*
X-0013999Y0035325D02*
Y0032883D01*
X-0014008Y0035316D02*
Y0032883D01*
X-0014017Y0035307D02*
Y0032883D01*
X-0014026Y0035298D02*
Y0032883D01*
X-0014035Y0035289D02*
Y0032883D01*
X-0014044Y0035280D02*
Y0032883D01*
X-0014053Y0035271D02*
Y0032883D01*
X-0014062Y0035262D02*
Y0032883D01*
X-0014071Y0035253D02*
Y0032883D01*
X-0014080Y0035244D02*
Y0032883D01*
X-0014089Y0035235D02*
Y0032883D01*
X-0014098Y0035226D02*
Y0032883D01*
X-0014107Y0035217D02*
Y0032883D01*
X-0014116Y0035208D02*
Y0032883D01*
X-0014125Y0035199D02*
Y0032883D01*
X-0014134Y0035190D02*
Y0032883D01*
X-0014143Y0035181D02*
Y0032883D01*
X-0014152Y0035172D02*
Y0032883D01*
X-0014161Y0035163D02*
Y0032883D01*
X-0014170Y0035154D02*
Y0032883D01*
X-0014179Y0035145D02*
Y0032883D01*
X-0014188Y0035136D02*
Y0032883D01*
X-0014197Y0035127D02*
Y0032883D01*
X-0014206Y0035118D02*
Y0032883D01*
X-0014215Y0035109D02*
Y0032883D01*
X-0014224Y0035100D02*
Y0032883D01*
X-0014233Y0035091D02*
Y0032883D01*
X-0014242Y0035082D02*
Y0032883D01*
X-0014251Y0035073D02*
Y0032883D01*
X-0014260Y0035064D02*
Y0032883D01*
X-0014269Y0035055D02*
Y0032883D01*
X-0014278Y0035046D02*
Y0032883D01*
X-0014287Y0035037D02*
Y0032883D01*
X-0014296Y0035028D02*
Y0032883D01*
X-0014305Y0035019D02*
Y0032883D01*
X-0014314Y0035010D02*
Y0032883D01*
X-0014323Y0035001D02*
Y0032883D01*
X-0014332Y0034992D02*
Y0032883D01*
X-0014341Y0034983D02*
Y0032883D01*
X-0014350Y0034974D02*
Y0032883D01*
X-0014359Y0034965D02*
Y0032883D01*
X-0014368Y0034956D02*
Y0032883D01*
X-0014377Y0034947D02*
Y0032883D01*
X-0014386Y0034938D02*
Y0032883D01*
X-0014395Y0034929D02*
Y0032883D01*
X-0014404Y0034920D02*
Y0032883D01*
X-0014413Y0034911D02*
Y0032883D01*
X-0014422Y0034902D02*
Y0032883D01*
X-0014431Y0034893D02*
Y0032883D01*
X-0014440Y0034884D02*
Y0032883D01*
X-0014449Y0034875D02*
Y0032883D01*
X-0014458Y0034866D02*
Y0032883D01*
X-0014467Y0034857D02*
Y0032883D01*
X-0014476Y0034848D02*
Y0032883D01*
X-0014485Y0034839D02*
Y0032883D01*
X-0014494Y0034830D02*
Y0032883D01*
X-0014503Y0034821D02*
Y0032883D01*
X-0014512Y0034812D02*
Y0032883D01*
X-0014521Y0034803D02*
Y0032883D01*
X-0014530Y0034794D02*
Y0032883D01*
X-0014539Y0034785D02*
Y0032883D01*
X-0014548Y0034776D02*
Y0032883D01*
X-0014557Y0034767D02*
Y0032883D01*
X-0014566Y0034758D02*
Y0032883D01*
X-0014575Y0034749D02*
Y0032883D01*
X-0014584Y0034740D02*
Y0032883D01*
X-0014593Y0034731D02*
Y0032883D01*
X-0014602Y0034722D02*
Y0032883D01*
X-0014611Y0034713D02*
Y0032883D01*
X-0014620Y0034704D02*
Y0032883D01*
X-0014629Y0034695D02*
Y0032883D01*
X-0014638Y0034686D02*
Y0032883D01*
X-0014647Y0034677D02*
Y0032883D01*
X-0014656Y0034668D02*
Y0032883D01*
X-0014665Y0034659D02*
Y0032883D01*
X-0014674Y0034650D02*
Y0032883D01*
X-0014683Y0034641D02*
Y0032883D01*
X-0014692Y0034632D02*
Y0032883D01*
X-0014701Y0034623D02*
Y0032883D01*
X-0014710Y0034614D02*
Y0032883D01*
X-0014719Y0034605D02*
Y0032883D01*
X-0014728Y0034596D02*
Y0032883D01*
X-0014737Y0034587D02*
Y0032883D01*
X-0014746Y0034578D02*
Y0032883D01*
X-0014755Y0034569D02*
Y0032883D01*
X-0014764Y0034560D02*
Y0032883D01*
X-0014773Y0034551D02*
Y0032883D01*
X-0014782Y0034542D02*
Y0032883D01*
X-0014791Y0034533D02*
Y0032883D01*
X-0014800Y0034524D02*
Y0032883D01*
X-0014809Y0034515D02*
Y0032883D01*
X-0014818Y0034506D02*
Y0032883D01*
X-0014827Y0034497D02*
Y0032883D01*
X-0014836Y0034488D02*
Y0032883D01*
X-0014845Y0034479D02*
Y0032883D01*
X-0014854Y0034470D02*
Y0032883D01*
X-0014863Y0034461D02*
Y0032883D01*
X-0014872Y0034452D02*
Y0032883D01*
X-0014881Y0034443D02*
Y0032883D01*
X-0014890Y0034434D02*
Y0032883D01*
X-0014899Y0034425D02*
Y0032883D01*
X-0014908Y0034416D02*
Y0032883D01*
X-0014917Y0034407D02*
Y0032883D01*
X-0014926Y0034398D02*
Y0032883D01*
X-0014935Y0034389D02*
Y0032883D01*
X-0014944Y0034380D02*
Y0032883D01*
X-0014953Y0034371D02*
Y0032883D01*
X-0014962Y0034362D02*
Y0032883D01*
X-0014971Y0034353D02*
Y0032883D01*
X-0014980Y0034344D02*
Y0032883D01*
X-0014989Y0034335D02*
Y0032883D01*
X-0014998Y0034326D02*
Y0032883D01*
X-0015007Y0034317D02*
Y0032883D01*
X-0015016Y0034308D02*
Y0032883D01*
X-0015025Y0034299D02*
Y0032883D01*
X-0015034Y0034290D02*
Y0032883D01*
X-0015043Y0034281D02*
Y0032883D01*
X-0015052Y0034272D02*
Y0032883D01*
X-0013400Y0035371D02*
X-0013953D01*
X-0013400Y0035362D02*
X-0013962D01*
X-0013400Y0035353D02*
X-0013971D01*
X-0013400Y0035344D02*
X-0013980D01*
X-0013400Y0035335D02*
X-0013989D01*
X-0013400Y0035326D02*
X-0013998D01*
X-0013400Y0035317D02*
X-0014007D01*
X-0013400Y0035308D02*
X-0014016D01*
X-0013400Y0035299D02*
X-0014025D01*
X-0013400Y0035290D02*
X-0014034D01*
X-0013400Y0035281D02*
X-0014043D01*
X-0013400Y0035272D02*
X-0014052D01*
X-0013400Y0035263D02*
X-0014061D01*
X-0013400Y0035254D02*
X-0014070D01*
X-0013400Y0035245D02*
X-0014079D01*
X-0013400Y0035236D02*
X-0014088D01*
X-0013400Y0035227D02*
X-0014097D01*
X-0013400Y0035218D02*
X-0014106D01*
X-0013400Y0035209D02*
X-0014115D01*
X-0013400Y0035200D02*
X-0014124D01*
X-0013400Y0035191D02*
X-0014133D01*
X-0013400Y0035182D02*
X-0014142D01*
X-0013400Y0035173D02*
X-0014151D01*
X-0013400Y0035164D02*
X-0014160D01*
X-0013400Y0035155D02*
X-0014169D01*
X-0013400Y0035146D02*
X-0014178D01*
X-0013400Y0035137D02*
X-0014187D01*
X-0013400Y0035128D02*
X-0014196D01*
X-0013400Y0035119D02*
X-0014205D01*
X-0013400Y0035110D02*
X-0014214D01*
X-0013400Y0035101D02*
X-0014223D01*
X-0013400Y0035092D02*
X-0014232D01*
X-0013400Y0035083D02*
X-0014241D01*
X-0013400Y0035074D02*
X-0014250D01*
X-0013400Y0035065D02*
X-0014259D01*
X-0013400Y0035056D02*
X-0014268D01*
X-0013400Y0035047D02*
X-0014277D01*
X-0013400Y0035038D02*
X-0014286D01*
X-0013400Y0035029D02*
X-0014295D01*
X-0013400Y0035020D02*
X-0014304D01*
X-0013400Y0035011D02*
X-0014313D01*
X-0013400Y0035002D02*
X-0014322D01*
X-0013400Y0034993D02*
X-0014331D01*
X-0013400Y0034984D02*
X-0014340D01*
X-0013400Y0034975D02*
X-0014349D01*
X-0013400Y0034966D02*
X-0014358D01*
X-0013400Y0034957D02*
X-0014367D01*
X-0013400Y0034948D02*
X-0014376D01*
X-0013400Y0034939D02*
X-0014385D01*
X-0013400Y0034930D02*
X-0014394D01*
X-0013400Y0034921D02*
X-0014403D01*
X-0013400Y0034912D02*
X-0014412D01*
X-0013400Y0034903D02*
X-0014421D01*
X-0013400Y0034894D02*
X-0014430D01*
X-0013400Y0034885D02*
X-0014439D01*
X-0013400Y0034876D02*
X-0014448D01*
X-0013400Y0034867D02*
X-0014457D01*
X-0013400Y0034858D02*
X-0014466D01*
X-0013400Y0034849D02*
X-0014475D01*
X-0013400Y0034840D02*
X-0014484D01*
X-0013400Y0034831D02*
X-0014493D01*
X-0013400Y0034822D02*
X-0014502D01*
X-0013400Y0034813D02*
X-0014511D01*
X-0013400Y0034804D02*
X-0014520D01*
X-0013400Y0034795D02*
X-0014529D01*
X-0013400Y0034786D02*
X-0014538D01*
X-0013400Y0034777D02*
X-0014547D01*
X-0013400Y0034768D02*
X-0014556D01*
X-0013400Y0034759D02*
X-0014565D01*
X-0013400Y0034750D02*
X-0014574D01*
X-0013400Y0034741D02*
X-0014583D01*
X-0013400Y0034732D02*
X-0014592D01*
X-0013400Y0034723D02*
X-0014601D01*
X-0013400Y0034714D02*
X-0014610D01*
X-0013400Y0034705D02*
X-0014619D01*
X-0013400Y0034696D02*
X-0014628D01*
X-0013400Y0034687D02*
X-0014637D01*
X-0013400Y0034678D02*
X-0014646D01*
X-0013400Y0034669D02*
X-0014655D01*
X-0013400Y0034660D02*
X-0014664D01*
X-0013400Y0034651D02*
X-0014673D01*
X-0013400Y0034642D02*
X-0014682D01*
X-0013400Y0034633D02*
X-0014691D01*
X-0013400Y0034624D02*
X-0014700D01*
X-0013400Y0034615D02*
X-0014709D01*
X-0013400Y0034606D02*
X-0014718D01*
X-0013400Y0034597D02*
X-0014727D01*
X-0013400Y0034588D02*
X-0014736D01*
X-0013400Y0034579D02*
X-0014745D01*
X-0013400Y0034570D02*
X-0014754D01*
X-0013400Y0034561D02*
X-0014763D01*
X-0013400Y0034552D02*
X-0014772D01*
X-0013400Y0034543D02*
X-0014781D01*
X-0013400Y0034534D02*
X-0014790D01*
X-0013400Y0034525D02*
X-0014799D01*
X-0013400Y0034516D02*
X-0014808D01*
X-0013400Y0034507D02*
X-0014817D01*
X-0013400Y0034498D02*
X-0014826D01*
X-0013400Y0034489D02*
X-0014835D01*
X-0013400Y0034480D02*
X-0014844D01*
X-0013400Y0034471D02*
X-0014853D01*
X-0013400Y0034462D02*
X-0014862D01*
X-0013400Y0034453D02*
X-0014871D01*
X-0013400Y0034444D02*
X-0014880D01*
X-0013400Y0034435D02*
X-0014889D01*
X-0013400Y0034426D02*
X-0014898D01*
X-0013400Y0034417D02*
X-0014907D01*
X-0013400Y0034408D02*
X-0014916D01*
X-0013400Y0034399D02*
X-0014925D01*
X-0013400Y0034390D02*
X-0014934D01*
X-0013400Y0034381D02*
X-0014943D01*
X-0013400Y0034372D02*
X-0014952D01*
X-0013400Y0034363D02*
X-0014961D01*
X-0013400Y0034354D02*
X-0014970D01*
X-0013400Y0034345D02*
X-0014979D01*
X-0013400Y0034336D02*
X-0014988D01*
X-0013400Y0034327D02*
X-0014997D01*
X-0013400Y0034318D02*
X-0015006D01*
X-0013400Y0034309D02*
X-0015015D01*
X-0013400Y0034300D02*
X-0015024D01*
X-0013400Y0034291D02*
X-0015033D01*
X-0013400Y0034282D02*
X-0015042D01*
X-0013400Y0034273D02*
X-0015051D01*
X-0013400Y0034264D02*
X-0015060D01*
X-0013400Y0034255D02*
X-0015065D01*
X-0013400Y0034246D02*
X-0015065D01*
X-0013400Y0034237D02*
X-0015065D01*
X-0013400Y0034228D02*
X-0015065D01*
X-0013400Y0034219D02*
X-0015065D01*
X-0013400Y0034210D02*
X-0015065D01*
X-0013400Y0034201D02*
X-0015065D01*
X-0013400Y0034192D02*
X-0015065D01*
X-0013400Y0034183D02*
X-0015065D01*
X-0013400Y0034174D02*
X-0015065D01*
X-0013400Y0034165D02*
X-0015065D01*
X-0013400Y0034156D02*
X-0015065D01*
X-0013400Y0034147D02*
X-0015065D01*
X-0013400Y0034138D02*
X-0015065D01*
X-0013400Y0034129D02*
X-0015065D01*
X-0013400Y0034120D02*
X-0015065D01*
X-0013400Y0034111D02*
X-0015065D01*
X-0013400Y0034102D02*
X-0015065D01*
X-0013400Y0034093D02*
X-0015065D01*
X-0013400Y0034084D02*
X-0015065D01*
X-0013400Y0034075D02*
X-0015065D01*
X-0013400Y0034066D02*
X-0015065D01*
X-0013400Y0034057D02*
X-0015065D01*
X-0013400Y0034048D02*
X-0015065D01*
X-0013400Y0034039D02*
X-0015065D01*
X-0013400Y0034030D02*
X-0015065D01*
X-0013400Y0034021D02*
X-0015065D01*
X-0013400Y0034012D02*
X-0015065D01*
X-0013400Y0034003D02*
X-0015065D01*
X-0013400Y0033994D02*
X-0015065D01*
X-0013400Y0033985D02*
X-0015065D01*
X-0013400Y0033976D02*
X-0015065D01*
X-0013400Y0033967D02*
X-0015065D01*
X-0013400Y0033958D02*
X-0015065D01*
X-0013400Y0033949D02*
X-0015065D01*
X-0013400Y0033940D02*
X-0015065D01*
X-0013400Y0033931D02*
X-0015065D01*
X-0013400Y0033922D02*
X-0015065D01*
X-0013400Y0033913D02*
X-0015065D01*
X-0013400Y0033904D02*
X-0015065D01*
X-0013400Y0033895D02*
X-0015065D01*
X-0013400Y0033886D02*
X-0015065D01*
X-0013400Y0033877D02*
X-0015065D01*
X-0013400Y0033868D02*
X-0015065D01*
X-0013400Y0033859D02*
X-0015065D01*
X-0013400Y0033850D02*
X-0015065D01*
X-0013400Y0033841D02*
X-0015065D01*
X-0013400Y0033832D02*
X-0015065D01*
X-0013400Y0033823D02*
X-0015065D01*
X-0013400Y0033814D02*
X-0015065D01*
X-0013400Y0033805D02*
X-0015065D01*
X-0013400Y0033796D02*
X-0015065D01*
X-0013400Y0033787D02*
X-0015065D01*
X-0013400Y0033778D02*
X-0015065D01*
X-0013400Y0033769D02*
X-0015065D01*
X-0013400Y0033760D02*
X-0015065D01*
X-0013400Y0033751D02*
X-0015065D01*
X-0013400Y0033742D02*
X-0015065D01*
X-0013400Y0033733D02*
X-0015065D01*
X-0013400Y0033724D02*
X-0015065D01*
X-0013400Y0033715D02*
X-0015065D01*
X-0013400Y0033706D02*
X-0015065D01*
X-0013400Y0033697D02*
X-0015065D01*
X-0013400Y0033688D02*
X-0015065D01*
X-0013400Y0033679D02*
X-0015065D01*
X-0013400Y0033670D02*
X-0015065D01*
X-0013400Y0033661D02*
X-0015065D01*
X-0013400Y0033652D02*
X-0015065D01*
X-0013400Y0033643D02*
X-0015065D01*
X-0013400Y0033634D02*
X-0015065D01*
X-0013400Y0033625D02*
X-0015065D01*
X-0013400Y0033616D02*
X-0015065D01*
X-0013400Y0033607D02*
X-0015065D01*
X-0013400Y0033598D02*
X-0015065D01*
X-0013400Y0033589D02*
X-0015065D01*
X-0013400Y0033580D02*
X-0015065D01*
X-0013400Y0033571D02*
X-0015065D01*
X-0013400Y0033562D02*
X-0015065D01*
X-0013400Y0033553D02*
X-0015065D01*
X-0013400Y0033544D02*
X-0015065D01*
X-0013400Y0033535D02*
X-0015065D01*
X-0013400Y0033526D02*
X-0015065D01*
X-0013400Y0033517D02*
X-0015065D01*
X-0013400Y0033508D02*
X-0015065D01*
X-0013400Y0033499D02*
X-0015065D01*
X-0013400Y0033490D02*
X-0015065D01*
X-0013400Y0033481D02*
X-0015065D01*
X-0013400Y0033472D02*
X-0015065D01*
X-0013400Y0033463D02*
X-0015065D01*
X-0013400Y0033454D02*
X-0015065D01*
X-0013400Y0033445D02*
X-0015065D01*
X-0013400Y0033436D02*
X-0015065D01*
X-0013400Y0033427D02*
X-0015065D01*
X-0013400Y0033418D02*
X-0015065D01*
X-0013400Y0033409D02*
X-0015065D01*
X-0013400Y0033400D02*
X-0015065D01*
X-0013400Y0033391D02*
X-0015065D01*
X-0013400Y0033382D02*
X-0015065D01*
X-0013400Y0033373D02*
X-0015065D01*
X-0013400Y0033364D02*
X-0015065D01*
X-0013400Y0033355D02*
X-0015065D01*
X-0013400Y0033346D02*
X-0015065D01*
X-0013400Y0033337D02*
X-0015065D01*
X-0013400Y0033328D02*
X-0015065D01*
X-0013400Y0033319D02*
X-0015065D01*
X-0013400Y0033310D02*
X-0015065D01*
X-0013400Y0033301D02*
X-0015065D01*
X-0013400Y0033292D02*
X-0015065D01*
X-0013400Y0033283D02*
X-0015065D01*
X-0013400Y0033274D02*
X-0015065D01*
X-0013400Y0033265D02*
X-0015065D01*
X-0013400Y0033256D02*
X-0015065D01*
X-0013400Y0033247D02*
X-0015065D01*
X-0013400Y0033238D02*
X-0015065D01*
X-0013400Y0033229D02*
X-0015065D01*
X-0013400Y0033220D02*
X-0015065D01*
X-0013400Y0033211D02*
X-0015065D01*
X-0013400Y0033202D02*
X-0015065D01*
X-0013400Y0033193D02*
X-0015065D01*
X-0013400Y0033184D02*
X-0015065D01*
X-0013400Y0033175D02*
X-0015065D01*
X-0013400Y0033166D02*
X-0015065D01*
X-0013400Y0033157D02*
X-0015065D01*
X-0013400Y0033148D02*
X-0015065D01*
X-0013400Y0033139D02*
X-0015065D01*
X-0013400Y0033130D02*
X-0015065D01*
X-0013400Y0033121D02*
X-0015065D01*
X-0013400Y0033112D02*
X-0015065D01*
X-0013400Y0033103D02*
X-0015065D01*
X-0013400Y0033094D02*
X-0015065D01*
X-0013400Y0033085D02*
X-0015065D01*
X-0013400Y0033076D02*
X-0015065D01*
X-0013400Y0033067D02*
X-0015065D01*
X-0013400Y0033058D02*
X-0015065D01*
X-0013400Y0033049D02*
X-0015065D01*
X-0013400Y0033040D02*
X-0015065D01*
X-0013400Y0033031D02*
X-0015065D01*
X-0013400Y0033022D02*
X-0015065D01*
X-0013400Y0033013D02*
X-0015065D01*
X-0013400Y0033004D02*
X-0015065D01*
X-0013400Y0032995D02*
X-0015065D01*
X-0013400Y0032986D02*
X-0015065D01*
X-0013400Y0032977D02*
X-0015065D01*
X-0013400Y0032968D02*
X-0015065D01*
X-0013400Y0032959D02*
X-0015065D01*
X-0013400Y0032950D02*
X-0015065D01*
X-0013400Y0032941D02*
X-0015065D01*
X-0013400Y0032932D02*
X-0015065D01*
X-0013400Y0032923D02*
X-0015065D01*
X-0013400Y0032914D02*
X-0015065D01*
X-0013400Y0032905D02*
X-0015065D01*
X-0013400Y0032896D02*
X-0015065D01*
X-0011056Y0035376D02*
X-0012404D01*
X-0011056D02*
Y0032892D01*
X-0012880D01*
Y0035376D02*
Y0032892D01*
X-0012404Y0035376D02*
X-0012880D01*
X-0011067D02*
Y0032892D01*
X-0011076Y0035376D02*
Y0032892D01*
X-0011085Y0035376D02*
Y0032892D01*
X-0011094Y0035376D02*
Y0032892D01*
X-0011103Y0035376D02*
Y0032892D01*
X-0011112Y0035376D02*
Y0032892D01*
X-0011121Y0035376D02*
Y0032892D01*
X-0011130Y0035376D02*
Y0032892D01*
X-0011139Y0035376D02*
Y0032892D01*
X-0011148Y0035376D02*
Y0032892D01*
X-0011157Y0035376D02*
Y0032892D01*
X-0011166Y0035376D02*
Y0032892D01*
X-0011175Y0035376D02*
Y0032892D01*
X-0011184Y0035376D02*
Y0032892D01*
X-0011193Y0035376D02*
Y0032892D01*
X-0011202Y0035376D02*
Y0032892D01*
X-0011211Y0035376D02*
Y0032892D01*
X-0011220Y0035376D02*
Y0032892D01*
X-0011229Y0035376D02*
Y0032892D01*
X-0011238Y0035376D02*
Y0032892D01*
X-0011247Y0035376D02*
Y0032892D01*
X-0011256Y0035376D02*
Y0032892D01*
X-0011265Y0035376D02*
Y0032892D01*
X-0011274Y0035376D02*
Y0032892D01*
X-0011283Y0035376D02*
Y0032892D01*
X-0011292Y0035376D02*
Y0032892D01*
X-0011301Y0035376D02*
Y0032892D01*
X-0011310Y0035376D02*
Y0032892D01*
X-0011319Y0035376D02*
Y0032892D01*
X-0011328Y0035376D02*
Y0032892D01*
X-0011337Y0035376D02*
Y0032892D01*
X-0011346Y0035376D02*
Y0032892D01*
X-0011355Y0035376D02*
Y0032892D01*
X-0011364Y0035376D02*
Y0032892D01*
X-0011373Y0035376D02*
Y0032892D01*
X-0011382Y0035376D02*
Y0032892D01*
X-0011391Y0035376D02*
Y0032892D01*
X-0011400Y0035376D02*
Y0032892D01*
X-0011409Y0035376D02*
Y0032892D01*
X-0011418Y0035376D02*
Y0032892D01*
X-0011427Y0035376D02*
Y0032892D01*
X-0011436Y0035376D02*
Y0032892D01*
X-0011445Y0035376D02*
Y0032892D01*
X-0011454Y0035376D02*
Y0032892D01*
X-0011463Y0035376D02*
Y0032892D01*
X-0011472Y0035376D02*
Y0032892D01*
X-0011481Y0035376D02*
Y0032892D01*
X-0011490Y0035376D02*
Y0032892D01*
X-0011499Y0035376D02*
Y0032892D01*
X-0011508Y0035376D02*
Y0032892D01*
X-0011517Y0035376D02*
Y0032892D01*
X-0011526Y0035376D02*
Y0032892D01*
X-0011535Y0035376D02*
Y0032892D01*
X-0011544Y0035376D02*
Y0032892D01*
X-0011553Y0035376D02*
Y0032892D01*
X-0011562Y0035376D02*
Y0032892D01*
X-0011571Y0035376D02*
Y0032892D01*
X-0011580Y0035376D02*
Y0032892D01*
X-0011589Y0035376D02*
Y0032892D01*
X-0011598Y0035376D02*
Y0032892D01*
X-0011607Y0035376D02*
Y0032892D01*
X-0011616Y0035376D02*
Y0032892D01*
X-0011625Y0035376D02*
Y0032892D01*
X-0011634Y0035376D02*
Y0032892D01*
X-0011643Y0035376D02*
Y0032892D01*
X-0011652Y0035376D02*
Y0032892D01*
X-0011661Y0035376D02*
Y0032892D01*
X-0011670Y0035376D02*
Y0032892D01*
X-0011679Y0035376D02*
Y0032892D01*
X-0011688Y0035376D02*
Y0032892D01*
X-0011697Y0035376D02*
Y0032892D01*
X-0011706Y0035376D02*
Y0032892D01*
X-0011715Y0035376D02*
Y0032892D01*
X-0011724Y0035376D02*
Y0032892D01*
X-0011733Y0035376D02*
Y0032892D01*
X-0011742Y0035376D02*
Y0032892D01*
X-0011751Y0035376D02*
Y0032892D01*
X-0011760Y0035376D02*
Y0032892D01*
X-0011769Y0035376D02*
Y0032892D01*
X-0011778Y0035376D02*
Y0032892D01*
X-0011787Y0035376D02*
Y0032892D01*
X-0011796Y0035376D02*
Y0032892D01*
X-0011805Y0035376D02*
Y0032892D01*
X-0011814Y0035376D02*
Y0032892D01*
X-0011823Y0035376D02*
Y0032892D01*
X-0011832Y0035376D02*
Y0032892D01*
X-0011841Y0035376D02*
Y0032892D01*
X-0011850Y0035376D02*
Y0032892D01*
X-0011859Y0035376D02*
Y0032892D01*
X-0011868Y0035376D02*
Y0032892D01*
X-0011877Y0035376D02*
Y0032892D01*
X-0011886Y0035376D02*
Y0032892D01*
X-0011895Y0035376D02*
Y0032892D01*
X-0011904Y0035376D02*
Y0032892D01*
X-0011913Y0035376D02*
Y0032892D01*
X-0011922Y0035376D02*
Y0032892D01*
X-0011931Y0035376D02*
Y0032892D01*
X-0011940Y0035376D02*
Y0032892D01*
X-0011949Y0035376D02*
Y0032892D01*
X-0011958Y0035376D02*
Y0032892D01*
X-0011967Y0035376D02*
Y0032892D01*
X-0011976Y0035376D02*
Y0032892D01*
X-0011985Y0035376D02*
Y0032892D01*
X-0011994Y0035376D02*
Y0032892D01*
X-0012003Y0035376D02*
Y0032892D01*
X-0012012Y0035376D02*
Y0032892D01*
X-0012021Y0035376D02*
Y0032892D01*
X-0012030Y0035376D02*
Y0032892D01*
X-0012039Y0035376D02*
Y0032892D01*
X-0012048Y0035376D02*
Y0032892D01*
X-0012057Y0035376D02*
Y0032892D01*
X-0012066Y0035376D02*
Y0032892D01*
X-0012075Y0035376D02*
Y0032892D01*
X-0012084Y0035376D02*
Y0032892D01*
X-0012093Y0035376D02*
Y0032892D01*
X-0012102Y0035376D02*
Y0032892D01*
X-0012111Y0035376D02*
Y0032892D01*
X-0012120Y0035376D02*
Y0032892D01*
X-0012129Y0035376D02*
Y0032892D01*
X-0012138Y0035376D02*
Y0032892D01*
X-0012147Y0035376D02*
Y0032892D01*
X-0012156Y0035376D02*
Y0032892D01*
X-0012165Y0035376D02*
Y0032892D01*
X-0012174Y0035376D02*
Y0032892D01*
X-0012183Y0035376D02*
Y0032892D01*
X-0012192Y0035376D02*
Y0032892D01*
X-0012201Y0035376D02*
Y0032892D01*
X-0012210Y0035376D02*
Y0032892D01*
X-0012219Y0035376D02*
Y0032892D01*
X-0012228Y0035376D02*
Y0032892D01*
X-0012237Y0035376D02*
Y0032892D01*
X-0012246Y0035376D02*
Y0032892D01*
X-0012255Y0035376D02*
Y0032892D01*
X-0012264Y0035376D02*
Y0032892D01*
X-0012273Y0035376D02*
Y0032892D01*
X-0012282Y0035376D02*
Y0032892D01*
X-0012291Y0035376D02*
Y0032892D01*
X-0012300Y0035376D02*
Y0032892D01*
X-0012309Y0035376D02*
Y0032892D01*
X-0012318Y0035376D02*
Y0032892D01*
X-0012327Y0035376D02*
Y0032892D01*
X-0012336Y0035376D02*
Y0032892D01*
X-0012345Y0035376D02*
Y0032892D01*
X-0012354Y0035376D02*
Y0032892D01*
X-0012363Y0035376D02*
Y0032892D01*
X-0012372Y0035376D02*
Y0032892D01*
X-0012381Y0035376D02*
Y0032892D01*
X-0012390Y0035376D02*
Y0032892D01*
X-0012399Y0035376D02*
Y0032892D01*
X-0012408Y0035376D02*
Y0032892D01*
X-0012417Y0035376D02*
Y0032892D01*
X-0012426Y0035376D02*
Y0032892D01*
X-0012435Y0035376D02*
Y0032892D01*
X-0012444Y0035376D02*
Y0032892D01*
X-0012453Y0035376D02*
Y0032892D01*
X-0012462Y0035376D02*
Y0032892D01*
X-0012471Y0035376D02*
Y0032892D01*
X-0012480Y0035376D02*
Y0032892D01*
X-0012489Y0035376D02*
Y0032892D01*
X-0012498Y0035376D02*
Y0032892D01*
X-0012507Y0035376D02*
Y0032892D01*
X-0012516Y0035376D02*
Y0032892D01*
X-0012525Y0035376D02*
Y0032892D01*
X-0012534Y0035376D02*
Y0032892D01*
X-0012543Y0035376D02*
Y0032892D01*
X-0012552Y0035376D02*
Y0032892D01*
X-0012561Y0035376D02*
Y0032892D01*
X-0012570Y0035376D02*
Y0032892D01*
X-0012579Y0035376D02*
Y0032892D01*
X-0012588Y0035376D02*
Y0032892D01*
X-0012597Y0035376D02*
Y0032892D01*
X-0012606Y0035376D02*
Y0032892D01*
X-0012615Y0035376D02*
Y0032892D01*
X-0012624Y0035376D02*
Y0032892D01*
X-0012633Y0035376D02*
Y0032892D01*
X-0012642Y0035376D02*
Y0032892D01*
X-0012651Y0035376D02*
Y0032892D01*
X-0012660Y0035376D02*
Y0032892D01*
X-0012669Y0035376D02*
Y0032892D01*
X-0012678Y0035376D02*
Y0032892D01*
X-0012687Y0035376D02*
Y0032892D01*
X-0012696Y0035376D02*
Y0032892D01*
X-0012705Y0035376D02*
Y0032892D01*
X-0012714Y0035376D02*
Y0032892D01*
X-0012723Y0035376D02*
Y0032892D01*
X-0012732Y0035376D02*
Y0032892D01*
X-0012741Y0035376D02*
Y0032892D01*
X-0012750Y0035376D02*
Y0032892D01*
X-0012759Y0035376D02*
Y0032892D01*
X-0012768Y0035376D02*
Y0032892D01*
X-0012777Y0035376D02*
Y0032892D01*
X-0012786Y0035376D02*
Y0032892D01*
X-0012795Y0035376D02*
Y0032892D01*
X-0012804Y0035376D02*
Y0032892D01*
X-0012813Y0035376D02*
Y0032892D01*
X-0012822Y0035376D02*
Y0032892D01*
X-0012831Y0035376D02*
Y0032892D01*
X-0012840Y0035376D02*
Y0032892D01*
X-0012849Y0035376D02*
Y0032892D01*
X-0012858Y0035376D02*
Y0032892D01*
X-0012867Y0035376D02*
Y0032892D01*
X-0011056Y0035362D02*
X-0012880D01*
X-0011056Y0035353D02*
X-0012880D01*
X-0011056Y0035344D02*
X-0012880D01*
X-0011056Y0035335D02*
X-0012880D01*
X-0011056Y0035326D02*
X-0012880D01*
X-0011056Y0035317D02*
X-0012880D01*
X-0011056Y0035308D02*
X-0012880D01*
X-0011056Y0035299D02*
X-0012880D01*
X-0011056Y0035290D02*
X-0012880D01*
X-0011056Y0035281D02*
X-0012880D01*
X-0011056Y0035272D02*
X-0012880D01*
X-0011056Y0035263D02*
X-0012880D01*
X-0011056Y0035254D02*
X-0012880D01*
X-0011056Y0035245D02*
X-0012880D01*
X-0011056Y0035236D02*
X-0012880D01*
X-0011056Y0035227D02*
X-0012880D01*
X-0011056Y0035218D02*
X-0012880D01*
X-0011056Y0035209D02*
X-0012880D01*
X-0011056Y0035200D02*
X-0012880D01*
X-0011056Y0035191D02*
X-0012880D01*
X-0011056Y0035182D02*
X-0012880D01*
X-0011056Y0035173D02*
X-0012880D01*
X-0011056Y0035164D02*
X-0012880D01*
X-0011056Y0035155D02*
X-0012880D01*
X-0011056Y0035146D02*
X-0012880D01*
X-0011056Y0035137D02*
X-0012880D01*
X-0011056Y0035128D02*
X-0012880D01*
X-0011056Y0035119D02*
X-0012880D01*
X-0011056Y0035110D02*
X-0012880D01*
X-0011056Y0035101D02*
X-0012880D01*
X-0011056Y0035092D02*
X-0012880D01*
X-0011056Y0035083D02*
X-0012880D01*
X-0011056Y0035074D02*
X-0012880D01*
X-0011056Y0035065D02*
X-0012880D01*
X-0011056Y0035056D02*
X-0012880D01*
X-0011056Y0035047D02*
X-0012880D01*
X-0011056Y0035038D02*
X-0012880D01*
X-0011056Y0035029D02*
X-0012880D01*
X-0011056Y0035020D02*
X-0012880D01*
X-0011056Y0035011D02*
X-0012880D01*
X-0011056Y0035002D02*
X-0012880D01*
X-0011056Y0034993D02*
X-0012880D01*
X-0011056Y0034984D02*
X-0012880D01*
X-0011056Y0034975D02*
X-0012880D01*
X-0011056Y0034966D02*
X-0012880D01*
X-0011056Y0034957D02*
X-0012880D01*
X-0011056Y0034948D02*
X-0012880D01*
X-0011056Y0034939D02*
X-0012880D01*
X-0011056Y0034930D02*
X-0012880D01*
X-0011056Y0034921D02*
X-0012880D01*
X-0011056Y0034912D02*
X-0012880D01*
X-0011056Y0034903D02*
X-0012880D01*
X-0011056Y0034894D02*
X-0012880D01*
X-0011056Y0034885D02*
X-0012880D01*
X-0011056Y0034876D02*
X-0012880D01*
X-0011056Y0034867D02*
X-0012880D01*
X-0011056Y0034858D02*
X-0012880D01*
X-0011056Y0034849D02*
X-0012880D01*
X-0011056Y0034840D02*
X-0012880D01*
X-0011056Y0034831D02*
X-0012880D01*
X-0011056Y0034822D02*
X-0012880D01*
X-0011056Y0034813D02*
X-0012880D01*
X-0011056Y0034804D02*
X-0012880D01*
X-0011056Y0034795D02*
X-0012880D01*
X-0011056Y0034786D02*
X-0012880D01*
X-0011056Y0034777D02*
X-0012880D01*
X-0011056Y0034768D02*
X-0012880D01*
X-0011056Y0034759D02*
X-0012880D01*
X-0011056Y0034750D02*
X-0012880D01*
X-0011056Y0034741D02*
X-0012880D01*
X-0011056Y0034732D02*
X-0012880D01*
X-0011056Y0034723D02*
X-0012880D01*
X-0011056Y0034714D02*
X-0012880D01*
X-0011056Y0034705D02*
X-0012880D01*
X-0011056Y0034696D02*
X-0012880D01*
X-0011056Y0034687D02*
X-0012880D01*
X-0011056Y0034678D02*
X-0012880D01*
X-0011056Y0034669D02*
X-0012880D01*
X-0011056Y0034660D02*
X-0012880D01*
X-0011056Y0034651D02*
X-0012880D01*
X-0011056Y0034642D02*
X-0012880D01*
X-0011056Y0034633D02*
X-0012880D01*
X-0011056Y0034624D02*
X-0012880D01*
X-0011056Y0034615D02*
X-0012880D01*
X-0011056Y0034606D02*
X-0012880D01*
X-0011056Y0034597D02*
X-0012880D01*
X-0011056Y0034588D02*
X-0012880D01*
X-0011056Y0034579D02*
X-0012880D01*
X-0011056Y0034570D02*
X-0012880D01*
X-0011056Y0034561D02*
X-0012880D01*
X-0011056Y0034552D02*
X-0012880D01*
X-0011056Y0034543D02*
X-0012880D01*
X-0011056Y0034534D02*
X-0012880D01*
X-0011056Y0034525D02*
X-0012880D01*
X-0011056Y0034516D02*
X-0012880D01*
X-0011056Y0034507D02*
X-0012880D01*
X-0011056Y0034498D02*
X-0012880D01*
X-0011056Y0034489D02*
X-0012880D01*
X-0011056Y0034480D02*
X-0012880D01*
X-0011056Y0034471D02*
X-0012880D01*
X-0011056Y0034462D02*
X-0012880D01*
X-0011056Y0034453D02*
X-0012880D01*
X-0011056Y0034444D02*
X-0012880D01*
X-0011056Y0034435D02*
X-0012880D01*
X-0011056Y0034426D02*
X-0012880D01*
X-0011056Y0034417D02*
X-0012880D01*
X-0011056Y0034408D02*
X-0012880D01*
X-0011056Y0034399D02*
X-0012880D01*
X-0011056Y0034390D02*
X-0012880D01*
X-0011056Y0034381D02*
X-0012880D01*
X-0011056Y0034372D02*
X-0012880D01*
X-0011056Y0034363D02*
X-0012880D01*
X-0011056Y0034354D02*
X-0012880D01*
X-0011056Y0034345D02*
X-0012880D01*
X-0011056Y0034336D02*
X-0012880D01*
X-0011056Y0034327D02*
X-0012880D01*
X-0011056Y0034318D02*
X-0012880D01*
X-0011056Y0034309D02*
X-0012880D01*
X-0011056Y0034300D02*
X-0012880D01*
X-0011056Y0034291D02*
X-0012880D01*
X-0011056Y0034282D02*
X-0012880D01*
X-0011056Y0034273D02*
X-0012880D01*
X-0011056Y0034264D02*
X-0012880D01*
X-0011056Y0034255D02*
X-0012880D01*
X-0011056Y0034246D02*
X-0012880D01*
X-0011056Y0034237D02*
X-0012880D01*
X-0011056Y0034228D02*
X-0012880D01*
X-0011056Y0034219D02*
X-0012880D01*
X-0011056Y0034210D02*
X-0012880D01*
X-0011056Y0034201D02*
X-0012880D01*
X-0011056Y0034192D02*
X-0012880D01*
X-0011056Y0034183D02*
X-0012880D01*
X-0011056Y0034174D02*
X-0012880D01*
X-0011056Y0034165D02*
X-0012880D01*
X-0011056Y0034156D02*
X-0012880D01*
X-0011056Y0034147D02*
X-0012880D01*
X-0011056Y0034138D02*
X-0012880D01*
X-0011056Y0034129D02*
X-0012880D01*
X-0011056Y0034120D02*
X-0012880D01*
X-0011056Y0034111D02*
X-0012880D01*
X-0011056Y0034102D02*
X-0012880D01*
X-0011056Y0034093D02*
X-0012880D01*
X-0011056Y0034084D02*
X-0012880D01*
X-0011056Y0034075D02*
X-0012880D01*
X-0011056Y0034066D02*
X-0012880D01*
X-0011056Y0034057D02*
X-0012880D01*
X-0011056Y0034048D02*
X-0012880D01*
X-0011056Y0034039D02*
X-0012880D01*
X-0011056Y0034030D02*
X-0012880D01*
X-0011056Y0034021D02*
X-0012880D01*
X-0011056Y0034012D02*
X-0012880D01*
X-0011056Y0034003D02*
X-0012880D01*
X-0011056Y0033994D02*
X-0012880D01*
X-0011056Y0033985D02*
X-0012880D01*
X-0011056Y0033976D02*
X-0012880D01*
X-0011056Y0033967D02*
X-0012880D01*
X-0011056Y0033958D02*
X-0012880D01*
X-0011056Y0033949D02*
X-0012880D01*
X-0011056Y0033940D02*
X-0012880D01*
X-0011056Y0033931D02*
X-0012880D01*
X-0011056Y0033922D02*
X-0012880D01*
X-0011056Y0033913D02*
X-0012880D01*
X-0011056Y0033904D02*
X-0012880D01*
X-0011056Y0033895D02*
X-0012880D01*
X-0011056Y0033886D02*
X-0012880D01*
X-0011056Y0033877D02*
X-0012880D01*
X-0011056Y0033868D02*
X-0012880D01*
X-0011056Y0033859D02*
X-0012880D01*
X-0011056Y0033850D02*
X-0012880D01*
X-0011056Y0033841D02*
X-0012880D01*
X-0011056Y0033832D02*
X-0012880D01*
X-0011056Y0033823D02*
X-0012880D01*
X-0011056Y0033814D02*
X-0012880D01*
X-0011056Y0033805D02*
X-0012880D01*
X-0011056Y0033796D02*
X-0012880D01*
X-0011056Y0033787D02*
X-0012880D01*
X-0011056Y0033778D02*
X-0012880D01*
X-0011056Y0033769D02*
X-0012880D01*
X-0011056Y0033760D02*
X-0012880D01*
X-0011056Y0033751D02*
X-0012880D01*
X-0011056Y0033742D02*
X-0012880D01*
X-0011056Y0033733D02*
X-0012880D01*
X-0011056Y0033724D02*
X-0012880D01*
X-0011056Y0033715D02*
X-0012880D01*
X-0011056Y0033706D02*
X-0012880D01*
X-0011056Y0033697D02*
X-0012880D01*
X-0011056Y0033688D02*
X-0012880D01*
X-0011056Y0033679D02*
X-0012880D01*
X-0011056Y0033670D02*
X-0012880D01*
X-0011056Y0033661D02*
X-0012880D01*
X-0011056Y0033652D02*
X-0012880D01*
X-0011056Y0033643D02*
X-0012880D01*
X-0011056Y0033634D02*
X-0012880D01*
X-0011056Y0033625D02*
X-0012880D01*
X-0011056Y0033616D02*
X-0012880D01*
X-0011056Y0033607D02*
X-0012880D01*
X-0011056Y0033598D02*
X-0012880D01*
X-0011056Y0033589D02*
X-0012880D01*
X-0011056Y0033580D02*
X-0012880D01*
X-0011056Y0033571D02*
X-0012880D01*
X-0011056Y0033562D02*
X-0012880D01*
X-0011056Y0033553D02*
X-0012880D01*
X-0011056Y0033544D02*
X-0012880D01*
X-0011056Y0033535D02*
X-0012880D01*
X-0011056Y0033526D02*
X-0012880D01*
X-0011056Y0033517D02*
X-0012880D01*
X-0011056Y0033508D02*
X-0012880D01*
X-0011056Y0033499D02*
X-0012880D01*
X-0011056Y0033490D02*
X-0012880D01*
X-0011056Y0033481D02*
X-0012880D01*
X-0011056Y0033472D02*
X-0012880D01*
X-0011056Y0033463D02*
X-0012880D01*
X-0011056Y0033454D02*
X-0012880D01*
X-0011056Y0033445D02*
X-0012880D01*
X-0011056Y0033436D02*
X-0012880D01*
X-0011056Y0033427D02*
X-0012880D01*
X-0011056Y0033418D02*
X-0012880D01*
X-0011056Y0033409D02*
X-0012880D01*
X-0011056Y0033400D02*
X-0012880D01*
X-0011056Y0033391D02*
X-0012880D01*
X-0011056Y0033382D02*
X-0012880D01*
X-0011056Y0033373D02*
X-0012880D01*
X-0011056Y0033364D02*
X-0012880D01*
X-0011056Y0033355D02*
X-0012880D01*
X-0011056Y0033346D02*
X-0012880D01*
X-0011056Y0033337D02*
X-0012880D01*
X-0011056Y0033328D02*
X-0012880D01*
X-0011056Y0033319D02*
X-0012880D01*
X-0011056Y0033310D02*
X-0012880D01*
X-0011056Y0033301D02*
X-0012880D01*
X-0011056Y0033292D02*
X-0012880D01*
X-0011056Y0033283D02*
X-0012880D01*
X-0011056Y0033274D02*
X-0012880D01*
X-0011056Y0033265D02*
X-0012880D01*
X-0011056Y0033256D02*
X-0012880D01*
X-0011056Y0033247D02*
X-0012880D01*
X-0011056Y0033238D02*
X-0012880D01*
X-0011056Y0033229D02*
X-0012880D01*
X-0011056Y0033220D02*
X-0012880D01*
X-0011056Y0033211D02*
X-0012880D01*
X-0011056Y0033202D02*
X-0012880D01*
X-0011056Y0033193D02*
X-0012880D01*
X-0011056Y0033184D02*
X-0012880D01*
X-0011056Y0033175D02*
X-0012880D01*
X-0011056Y0033166D02*
X-0012880D01*
X-0011056Y0033157D02*
X-0012880D01*
X-0011056Y0033148D02*
X-0012880D01*
X-0011056Y0033139D02*
X-0012880D01*
X-0011056Y0033130D02*
X-0012880D01*
X-0011056Y0033121D02*
X-0012880D01*
X-0011056Y0033112D02*
X-0012880D01*
X-0011056Y0033103D02*
X-0012880D01*
X-0011056Y0033094D02*
X-0012880D01*
X-0011056Y0033085D02*
X-0012880D01*
X-0011056Y0033076D02*
X-0012880D01*
X-0011056Y0033067D02*
X-0012880D01*
X-0011056Y0033058D02*
X-0012880D01*
X-0011056Y0033049D02*
X-0012880D01*
X-0011056Y0033040D02*
X-0012880D01*
X-0011056Y0033031D02*
X-0012880D01*
X-0011056Y0033022D02*
X-0012880D01*
X-0011056Y0033013D02*
X-0012880D01*
X-0011056Y0033004D02*
X-0012880D01*
X-0011056Y0032995D02*
X-0012880D01*
X-0011056Y0032986D02*
X-0012880D01*
X-0011056Y0032977D02*
X-0012880D01*
X-0011056Y0032968D02*
X-0012880D01*
X-0011056Y0032959D02*
X-0012880D01*
X-0011056Y0032950D02*
X-0012880D01*
X-0011056Y0032941D02*
X-0012880D01*
X-0011056Y0032932D02*
X-0012880D01*
X-0011056Y0032923D02*
X-0012880D01*
X-0011056Y0032914D02*
X-0012880D01*
X-0011056Y0032905D02*
X-0012880D01*
X-0010042Y0031948D02*
Y0031788D01*
X-0010051Y0031948D02*
Y0031788D01*
X-0010060Y0031948D02*
Y0031788D01*
X-0010069Y0031948D02*
Y0031788D01*
X-0010078Y0031948D02*
Y0031788D01*
X-0010087Y0031948D02*
Y0031788D01*
X-0010096Y0031948D02*
Y0031788D01*
X-0010105Y0031948D02*
Y0031788D01*
X-0010114Y0031948D02*
Y0031788D01*
X-0010123Y0031948D02*
Y0031788D01*
X-0010132Y0031948D02*
Y0031788D01*
X-0010141Y0031948D02*
Y0031788D01*
X-0010150Y0031948D02*
Y0031788D01*
X-0010159Y0031948D02*
Y0031788D01*
X-0010168Y0031948D02*
Y0031788D01*
X-0010177Y0031948D02*
Y0031788D01*
X-0010186Y0031948D02*
Y0031788D01*
X-0010195Y0031948D02*
Y0031788D01*
X-0010204Y0031948D02*
Y0031788D01*
X-0010213Y0031948D02*
Y0031788D01*
X-0010222Y0031948D02*
Y0031788D01*
X-0010231Y0031948D02*
Y0031788D01*
X-0010240Y0031948D02*
Y0031788D01*
X-0010249Y0031948D02*
Y0031788D01*
X-0010258Y0031948D02*
Y0031788D01*
X-0010267Y0031948D02*
Y0031788D01*
X-0010276Y0031948D02*
Y0031788D01*
X-0010285Y0031948D02*
Y0031788D01*
X-0010294Y0031948D02*
Y0031788D01*
X-0010303Y0031948D02*
Y0031788D01*
X-0010312Y0031948D02*
Y0031788D01*
X-0010321Y0031948D02*
Y0031788D01*
X-0010330Y0031948D02*
Y0031788D01*
X-0010339Y0031948D02*
Y0031788D01*
X-0010348Y0031948D02*
Y0031788D01*
X-0010357Y0031948D02*
Y0031788D01*
X-0010366Y0031948D02*
Y0031788D01*
X-0010375Y0031948D02*
Y0031788D01*
X-0010384Y0031948D02*
Y0031788D01*
X-0010393Y0031948D02*
Y0031788D01*
X-0010402Y0031948D02*
Y0031788D01*
X-0010411Y0031948D02*
Y0031788D01*
X-0010420Y0031948D02*
Y0031788D01*
X-0010429Y0031948D02*
Y0031788D01*
X-0010438Y0031948D02*
Y0031788D01*
X-0010447Y0031948D02*
Y0031788D01*
X-0010456Y0031948D02*
Y0031788D01*
X-0010465Y0031948D02*
Y0031788D01*
X-0010474Y0031948D02*
Y0031788D01*
X-0010483Y0031948D02*
Y0031788D01*
X-0010492Y0031948D02*
Y0031788D01*
X-0010501Y0031948D02*
Y0031788D01*
X-0010510Y0031948D02*
Y0031788D01*
X-0010519Y0031948D02*
Y0031788D01*
X-0010528Y0031948D02*
Y0031788D01*
X-0010537Y0031948D02*
Y0031788D01*
X-0010546Y0031948D02*
Y0031788D01*
X-0009748Y0031936D02*
X-0010559D01*
X-0009748Y0031927D02*
X-0010559D01*
X-0009748Y0031918D02*
X-0010559D01*
X-0009748Y0031909D02*
X-0010559D01*
X-0009748Y0031900D02*
X-0010559D01*
X-0009748Y0031891D02*
X-0010559D01*
X-0009748Y0031882D02*
X-0010559D01*
X-0009748Y0031873D02*
X-0010559D01*
X-0009748Y0031864D02*
X-0010559D01*
X-0009748Y0031855D02*
X-0010559D01*
X-0009748Y0031846D02*
X-0010559D01*
X-0009748Y0031837D02*
X-0010559D01*
X-0009748Y0031828D02*
X-0010559D01*
X-0009748Y0031819D02*
X-0010559D01*
X-0009748Y0031810D02*
X-0010559D01*
X-0009748Y0031801D02*
X-0010559D01*
Y0031948D02*
Y0031788D01*
X-0009748D02*
X-0010559D01*
X-0009748Y0031948D02*
Y0031788D01*
Y0031948D02*
X-0010559D01*
X-0009763D02*
Y0031788D01*
X-0009772Y0031948D02*
Y0031788D01*
X-0009781Y0031948D02*
Y0031788D01*
X-0009790Y0031948D02*
Y0031788D01*
X-0009799Y0031948D02*
Y0031788D01*
X-0009808Y0031948D02*
Y0031788D01*
X-0009817Y0031948D02*
Y0031788D01*
X-0009826Y0031948D02*
Y0031788D01*
X-0009835Y0031948D02*
Y0031788D01*
X-0009844Y0031948D02*
Y0031788D01*
X-0009853Y0031948D02*
Y0031788D01*
X-0009862Y0031948D02*
Y0031788D01*
X-0009871Y0031948D02*
Y0031788D01*
X-0009880Y0031948D02*
Y0031788D01*
X-0009889Y0031948D02*
Y0031788D01*
X-0009898Y0031948D02*
Y0031788D01*
X-0009907Y0031948D02*
Y0031788D01*
X-0009916Y0031948D02*
Y0031788D01*
X-0009925Y0031948D02*
Y0031788D01*
X-0009934Y0031948D02*
Y0031788D01*
X-0009943Y0031948D02*
Y0031788D01*
X-0009952Y0031948D02*
Y0031788D01*
X-0009961Y0031948D02*
Y0031788D01*
X-0009970Y0031948D02*
Y0031788D01*
X-0009979Y0031948D02*
Y0031788D01*
X-0009988Y0031948D02*
Y0031788D01*
X-0009997Y0031948D02*
Y0031788D01*
X-0010006Y0031948D02*
Y0031788D01*
X-0010015Y0031948D02*
Y0031788D01*
X-0010024Y0031948D02*
Y0031788D01*
X-0010033Y0031948D02*
Y0031788D01*
X-0010101Y0032216D02*
Y0032072D01*
X-0010110Y0032216D02*
Y0032072D01*
X-0010119Y0032216D02*
Y0032072D01*
X-0010128Y0032216D02*
Y0032072D01*
X-0010137Y0032216D02*
Y0032072D01*
X-0010146Y0032216D02*
Y0032072D01*
X-0010155Y0032216D02*
Y0032072D01*
X-0010164Y0032216D02*
Y0032072D01*
X-0010173Y0032216D02*
Y0032072D01*
X-0010182Y0032216D02*
Y0032072D01*
X-0010191Y0032216D02*
Y0032072D01*
X-0010200Y0032216D02*
Y0032072D01*
X-0010209Y0032216D02*
Y0032072D01*
X-0010218Y0032216D02*
Y0032072D01*
X-0010227Y0032216D02*
Y0032072D01*
X-0010236Y0032216D02*
Y0032072D01*
X-0010245Y0032216D02*
Y0032072D01*
X-0010254Y0032216D02*
Y0032072D01*
X-0010263Y0032216D02*
Y0032072D01*
X-0010272Y0032216D02*
Y0032072D01*
X-0010281Y0032216D02*
Y0032072D01*
X-0010290Y0032216D02*
Y0032072D01*
X-0010299Y0032216D02*
Y0032072D01*
X-0010308Y0032216D02*
Y0032072D01*
X-0010317Y0032216D02*
Y0032072D01*
X-0010326Y0032216D02*
Y0032072D01*
X-0010335Y0032216D02*
Y0032072D01*
X-0010344Y0032216D02*
Y0032072D01*
X-0010353Y0032216D02*
Y0032072D01*
X-0010362Y0032216D02*
Y0032072D01*
X-0010371Y0032216D02*
Y0032072D01*
X-0010380Y0032216D02*
Y0032072D01*
X-0010389Y0032216D02*
Y0032072D01*
X-0010398Y0032216D02*
Y0032072D01*
X-0010407Y0032216D02*
Y0032072D01*
X-0010416Y0032216D02*
Y0032072D01*
X-0010425Y0032216D02*
Y0032072D01*
X-0010434Y0032216D02*
Y0032072D01*
X-0010443Y0032216D02*
Y0032072D01*
X-0010452Y0032216D02*
Y0032072D01*
X-0010461Y0032216D02*
Y0032072D01*
X-0010470Y0032216D02*
Y0032072D01*
X-0010479Y0032216D02*
Y0032072D01*
X-0010488Y0032216D02*
Y0032072D01*
X-0010497Y0032216D02*
Y0032072D01*
X-0010506Y0032216D02*
Y0032072D01*
X-0010515Y0032216D02*
Y0032072D01*
X-0010524Y0032216D02*
Y0032072D01*
X-0010533Y0032216D02*
Y0032072D01*
X-0010542Y0032216D02*
Y0032072D01*
X-0009748Y0032202D02*
X-0010555D01*
X-0009748Y0032193D02*
X-0010555D01*
X-0009748Y0032184D02*
X-0010555D01*
X-0009748Y0032175D02*
X-0010555D01*
X-0009748Y0032166D02*
X-0010555D01*
X-0009748Y0032157D02*
X-0010555D01*
X-0009748Y0032148D02*
X-0010555D01*
X-0009748Y0032139D02*
X-0010555D01*
X-0009748Y0032130D02*
X-0010555D01*
X-0009748Y0032121D02*
X-0010555D01*
X-0009748Y0032112D02*
X-0010555D01*
X-0009748Y0032103D02*
X-0010555D01*
X-0009748Y0032094D02*
X-0010555D01*
X-0009748Y0032085D02*
X-0010555D01*
Y0032216D02*
Y0032072D01*
X-0009748D02*
X-0010555D01*
X-0009748Y0032216D02*
Y0032072D01*
Y0032216D02*
X-0010555D01*
X-0009759D02*
Y0032072D01*
X-0009768Y0032216D02*
Y0032072D01*
X-0009777Y0032216D02*
Y0032072D01*
X-0009786Y0032216D02*
Y0032072D01*
X-0009795Y0032216D02*
Y0032072D01*
X-0009804Y0032216D02*
Y0032072D01*
X-0009813Y0032216D02*
Y0032072D01*
X-0009822Y0032216D02*
Y0032072D01*
X-0009831Y0032216D02*
Y0032072D01*
X-0009840Y0032216D02*
Y0032072D01*
X-0009849Y0032216D02*
Y0032072D01*
X-0009858Y0032216D02*
Y0032072D01*
X-0009867Y0032216D02*
Y0032072D01*
X-0009876Y0032216D02*
Y0032072D01*
X-0009885Y0032216D02*
Y0032072D01*
X-0009894Y0032216D02*
Y0032072D01*
X-0009903Y0032216D02*
Y0032072D01*
X-0009912Y0032216D02*
Y0032072D01*
X-0009921Y0032216D02*
Y0032072D01*
X-0009930Y0032216D02*
Y0032072D01*
X-0009939Y0032216D02*
Y0032072D01*
X-0009948Y0032216D02*
Y0032072D01*
X-0009957Y0032216D02*
Y0032072D01*
X-0009966Y0032216D02*
Y0032072D01*
X-0009975Y0032216D02*
Y0032072D01*
X-0009984Y0032216D02*
Y0032072D01*
X-0009993Y0032216D02*
Y0032072D01*
X-0010002Y0032216D02*
Y0032072D01*
X-0010011Y0032216D02*
Y0032072D01*
X-0010020Y0032216D02*
Y0032072D01*
X-0010029Y0032216D02*
Y0032072D01*
X-0010038Y0032216D02*
Y0032072D01*
X-0010047Y0032216D02*
Y0032072D01*
X-0010056Y0032216D02*
Y0032072D01*
X-0010065Y0032216D02*
Y0032072D01*
X-0010074Y0032216D02*
Y0032072D01*
X-0010083Y0032216D02*
Y0032072D01*
X-0010092Y0032216D02*
Y0032072D01*
X-0010046Y0032472D02*
Y0032312D01*
X-0010055Y0032472D02*
Y0032312D01*
X-0010064Y0032472D02*
Y0032312D01*
X-0010073Y0032472D02*
Y0032312D01*
X-0010082Y0032472D02*
Y0032312D01*
X-0010091Y0032472D02*
Y0032312D01*
X-0010100Y0032472D02*
Y0032312D01*
X-0010109Y0032472D02*
Y0032312D01*
X-0010118Y0032472D02*
Y0032312D01*
X-0010127Y0032472D02*
Y0032312D01*
X-0010136Y0032472D02*
Y0032312D01*
X-0010145Y0032472D02*
Y0032312D01*
X-0010154Y0032472D02*
Y0032312D01*
X-0010163Y0032472D02*
Y0032312D01*
X-0010172Y0032472D02*
Y0032312D01*
X-0010181Y0032472D02*
Y0032312D01*
X-0010190Y0032472D02*
Y0032312D01*
X-0010199Y0032472D02*
Y0032312D01*
X-0010208Y0032472D02*
Y0032312D01*
X-0010217Y0032472D02*
Y0032312D01*
X-0010226Y0032472D02*
Y0032312D01*
X-0010235Y0032472D02*
Y0032312D01*
X-0010244Y0032472D02*
Y0032312D01*
X-0010253Y0032472D02*
Y0032312D01*
X-0010262Y0032472D02*
Y0032312D01*
X-0010271Y0032472D02*
Y0032312D01*
X-0010280Y0032472D02*
Y0032312D01*
X-0010289Y0032472D02*
Y0032312D01*
X-0010298Y0032472D02*
Y0032312D01*
X-0010307Y0032472D02*
Y0032312D01*
X-0010316Y0032472D02*
Y0032312D01*
X-0010325Y0032472D02*
Y0032312D01*
X-0010334Y0032472D02*
Y0032312D01*
X-0010343Y0032472D02*
Y0032312D01*
X-0010352Y0032472D02*
Y0032312D01*
X-0010361Y0032472D02*
Y0032312D01*
X-0010370Y0032472D02*
Y0032312D01*
X-0010379Y0032472D02*
Y0032312D01*
X-0010388Y0032472D02*
Y0032312D01*
X-0010397Y0032472D02*
Y0032312D01*
X-0010406Y0032472D02*
Y0032312D01*
X-0010415Y0032472D02*
Y0032312D01*
X-0010424Y0032472D02*
Y0032312D01*
X-0010433Y0032472D02*
Y0032312D01*
X-0010442Y0032472D02*
Y0032312D01*
X-0010451Y0032472D02*
Y0032312D01*
X-0010460Y0032472D02*
Y0032312D01*
X-0010469Y0032472D02*
Y0032312D01*
X-0010478Y0032472D02*
Y0032312D01*
X-0010487Y0032472D02*
Y0032312D01*
X-0010496Y0032472D02*
Y0032312D01*
X-0010505Y0032472D02*
Y0032312D01*
X-0010514Y0032472D02*
Y0032312D01*
X-0010523Y0032472D02*
Y0032312D01*
X-0010532Y0032472D02*
Y0032312D01*
X-0010541Y0032472D02*
Y0032312D01*
X-0010550Y0032472D02*
Y0032312D01*
X-0009748Y0032460D02*
X-0010563D01*
X-0009748Y0032451D02*
X-0010563D01*
X-0009748Y0032442D02*
X-0010563D01*
X-0009748Y0032433D02*
X-0010563D01*
X-0009748Y0032424D02*
X-0010563D01*
X-0009748Y0032415D02*
X-0010563D01*
X-0009748Y0032406D02*
X-0010563D01*
X-0009748Y0032397D02*
X-0010563D01*
X-0009748Y0032388D02*
X-0010563D01*
X-0009748Y0032379D02*
X-0010563D01*
X-0009748Y0032370D02*
X-0010563D01*
X-0009748Y0032361D02*
X-0010563D01*
X-0009748Y0032352D02*
X-0010563D01*
X-0009748Y0032343D02*
X-0010563D01*
X-0009748Y0032334D02*
X-0010563D01*
X-0009748Y0032325D02*
X-0010563D01*
X-0009748Y0032472D02*
X-0010563D01*
X-0009748D02*
Y0032312D01*
X-0010563D01*
Y0032472D02*
Y0032312D01*
X-0009758Y0032472D02*
Y0032312D01*
X-0009767Y0032472D02*
Y0032312D01*
X-0009776Y0032472D02*
Y0032312D01*
X-0009785Y0032472D02*
Y0032312D01*
X-0009794Y0032472D02*
Y0032312D01*
X-0009803Y0032472D02*
Y0032312D01*
X-0009812Y0032472D02*
Y0032312D01*
X-0009821Y0032472D02*
Y0032312D01*
X-0009830Y0032472D02*
Y0032312D01*
X-0009839Y0032472D02*
Y0032312D01*
X-0009848Y0032472D02*
Y0032312D01*
X-0009857Y0032472D02*
Y0032312D01*
X-0009866Y0032472D02*
Y0032312D01*
X-0009875Y0032472D02*
Y0032312D01*
X-0009884Y0032472D02*
Y0032312D01*
X-0009893Y0032472D02*
Y0032312D01*
X-0009902Y0032472D02*
Y0032312D01*
X-0009911Y0032472D02*
Y0032312D01*
X-0009920Y0032472D02*
Y0032312D01*
X-0009929Y0032472D02*
Y0032312D01*
X-0009938Y0032472D02*
Y0032312D01*
X-0009947Y0032472D02*
Y0032312D01*
X-0009956Y0032472D02*
Y0032312D01*
X-0009965Y0032472D02*
Y0032312D01*
X-0009974Y0032472D02*
Y0032312D01*
X-0009983Y0032472D02*
Y0032312D01*
X-0009992Y0032472D02*
Y0032312D01*
X-0010001Y0032472D02*
Y0032312D01*
X-0010010Y0032472D02*
Y0032312D01*
X-0010019Y0032472D02*
Y0032312D01*
X-0010028Y0032472D02*
Y0032312D01*
X-0010037Y0032472D02*
Y0032312D01*
X-0010051Y0031676D02*
Y0031516D01*
X-0010060Y0031676D02*
Y0031516D01*
X-0010069Y0031676D02*
Y0031516D01*
X-0010078Y0031676D02*
Y0031516D01*
X-0010087Y0031676D02*
Y0031516D01*
X-0010096Y0031676D02*
Y0031516D01*
X-0010105Y0031676D02*
Y0031516D01*
X-0010114Y0031676D02*
Y0031516D01*
X-0010123Y0031676D02*
Y0031516D01*
X-0010132Y0031676D02*
Y0031516D01*
X-0010141Y0031676D02*
Y0031516D01*
X-0010150Y0031676D02*
Y0031516D01*
X-0010159Y0031676D02*
Y0031516D01*
X-0010168Y0031676D02*
Y0031516D01*
X-0010177Y0031676D02*
Y0031516D01*
X-0010186Y0031676D02*
Y0031516D01*
X-0010195Y0031676D02*
Y0031516D01*
X-0010204Y0031676D02*
Y0031516D01*
X-0010213Y0031676D02*
Y0031516D01*
X-0010222Y0031676D02*
Y0031516D01*
X-0010231Y0031676D02*
Y0031516D01*
X-0010240Y0031676D02*
Y0031516D01*
X-0010249Y0031676D02*
Y0031516D01*
X-0010258Y0031676D02*
Y0031516D01*
X-0010267Y0031676D02*
Y0031516D01*
X-0010276Y0031676D02*
Y0031516D01*
X-0010285Y0031676D02*
Y0031516D01*
X-0010294Y0031676D02*
Y0031516D01*
X-0010303Y0031676D02*
Y0031516D01*
X-0010312Y0031676D02*
Y0031516D01*
X-0010321Y0031676D02*
Y0031516D01*
X-0010330Y0031676D02*
Y0031516D01*
X-0010339Y0031676D02*
Y0031516D01*
X-0010348Y0031676D02*
Y0031516D01*
X-0010357Y0031676D02*
Y0031516D01*
X-0010366Y0031676D02*
Y0031516D01*
X-0010375Y0031676D02*
Y0031516D01*
X-0010384Y0031676D02*
Y0031516D01*
X-0010393Y0031676D02*
Y0031516D01*
X-0010402Y0031676D02*
Y0031516D01*
X-0010411Y0031676D02*
Y0031516D01*
X-0010420Y0031676D02*
Y0031516D01*
X-0010429Y0031676D02*
Y0031516D01*
X-0010438Y0031676D02*
Y0031516D01*
X-0010447Y0031676D02*
Y0031516D01*
X-0010456Y0031676D02*
Y0031516D01*
X-0010465Y0031676D02*
Y0031516D01*
X-0010474Y0031676D02*
Y0031516D01*
X-0010483Y0031676D02*
Y0031516D01*
X-0010492Y0031676D02*
Y0031516D01*
X-0010501Y0031676D02*
Y0031516D01*
X-0010510Y0031676D02*
Y0031516D01*
X-0010519Y0031676D02*
Y0031516D01*
X-0010528Y0031676D02*
Y0031516D01*
X-0010537Y0031676D02*
Y0031516D01*
X-0010546Y0031676D02*
Y0031516D01*
X-0009752Y0031664D02*
X-0010559D01*
X-0009752Y0031655D02*
X-0010559D01*
X-0009752Y0031646D02*
X-0010559D01*
X-0009752Y0031637D02*
X-0010559D01*
X-0009752Y0031628D02*
X-0010559D01*
X-0009752Y0031619D02*
X-0010559D01*
X-0009752Y0031610D02*
X-0010559D01*
X-0009752Y0031601D02*
X-0010559D01*
X-0009752Y0031592D02*
X-0010559D01*
X-0009752Y0031583D02*
X-0010559D01*
X-0009752Y0031574D02*
X-0010559D01*
X-0009752Y0031565D02*
X-0010559D01*
X-0009752Y0031556D02*
X-0010559D01*
X-0009752Y0031547D02*
X-0010559D01*
X-0009752Y0031538D02*
X-0010559D01*
X-0009752Y0031529D02*
X-0010559D01*
Y0031676D02*
Y0031516D01*
X-0009752D02*
X-0010559D01*
X-0009752Y0031676D02*
Y0031516D01*
Y0031676D02*
X-0010559D01*
X-0009763D02*
Y0031516D01*
X-0009772Y0031676D02*
Y0031516D01*
X-0009781Y0031676D02*
Y0031516D01*
X-0009790Y0031676D02*
Y0031516D01*
X-0009799Y0031676D02*
Y0031516D01*
X-0009808Y0031676D02*
Y0031516D01*
X-0009817Y0031676D02*
Y0031516D01*
X-0009826Y0031676D02*
Y0031516D01*
X-0009835Y0031676D02*
Y0031516D01*
X-0009844Y0031676D02*
Y0031516D01*
X-0009853Y0031676D02*
Y0031516D01*
X-0009862Y0031676D02*
Y0031516D01*
X-0009871Y0031676D02*
Y0031516D01*
X-0009880Y0031676D02*
Y0031516D01*
X-0009889Y0031676D02*
Y0031516D01*
X-0009898Y0031676D02*
Y0031516D01*
X-0009907Y0031676D02*
Y0031516D01*
X-0009916Y0031676D02*
Y0031516D01*
X-0009925Y0031676D02*
Y0031516D01*
X-0009934Y0031676D02*
Y0031516D01*
X-0009943Y0031676D02*
Y0031516D01*
X-0009952Y0031676D02*
Y0031516D01*
X-0009961Y0031676D02*
Y0031516D01*
X-0009970Y0031676D02*
Y0031516D01*
X-0009979Y0031676D02*
Y0031516D01*
X-0009988Y0031676D02*
Y0031516D01*
X-0009997Y0031676D02*
Y0031516D01*
X-0010006Y0031676D02*
Y0031516D01*
X-0010015Y0031676D02*
Y0031516D01*
X-0010024Y0031676D02*
Y0031516D01*
X-0010033Y0031676D02*
Y0031516D01*
X-0010042Y0031676D02*
Y0031516D01*
X-0007898Y0031668D02*
Y0031508D01*
X-0007907Y0031668D02*
Y0031508D01*
X-0007916Y0031668D02*
Y0031508D01*
X-0007925Y0031668D02*
Y0031508D01*
X-0007934Y0031668D02*
Y0031508D01*
X-0007943Y0031668D02*
Y0031508D01*
X-0007952Y0031668D02*
Y0031508D01*
X-0007961Y0031668D02*
Y0031508D01*
X-0007970Y0031668D02*
Y0031508D01*
X-0007979Y0031668D02*
Y0031508D01*
X-0007988Y0031668D02*
Y0031508D01*
X-0007997Y0031668D02*
Y0031508D01*
X-0008006Y0031668D02*
Y0031508D01*
X-0008015Y0031668D02*
Y0031508D01*
X-0008024Y0031668D02*
Y0031508D01*
X-0008033Y0031668D02*
Y0031508D01*
X-0008042Y0031668D02*
Y0031508D01*
X-0008051Y0031668D02*
Y0031508D01*
X-0008060Y0031668D02*
Y0031508D01*
X-0008069Y0031668D02*
Y0031508D01*
X-0008078Y0031668D02*
Y0031508D01*
X-0008087Y0031668D02*
Y0031508D01*
X-0008096Y0031668D02*
Y0031508D01*
X-0008105Y0031668D02*
Y0031508D01*
X-0008114Y0031668D02*
Y0031508D01*
X-0008123Y0031668D02*
Y0031508D01*
X-0008132Y0031668D02*
Y0031508D01*
X-0008141Y0031668D02*
Y0031508D01*
X-0008150Y0031668D02*
Y0031508D01*
X-0008159Y0031668D02*
Y0031508D01*
X-0008168Y0031668D02*
Y0031508D01*
X-0008177Y0031668D02*
Y0031508D01*
X-0008186Y0031668D02*
Y0031508D01*
X-0008195Y0031668D02*
Y0031508D01*
X-0008204Y0031668D02*
Y0031508D01*
X-0008213Y0031668D02*
Y0031508D01*
X-0008222Y0031668D02*
Y0031508D01*
X-0008231Y0031668D02*
Y0031508D01*
X-0008240Y0031668D02*
Y0031508D01*
X-0008249Y0031668D02*
Y0031508D01*
X-0008258Y0031668D02*
Y0031508D01*
X-0008267Y0031668D02*
Y0031508D01*
X-0008276Y0031668D02*
Y0031508D01*
X-0008285Y0031668D02*
Y0031508D01*
X-0008294Y0031668D02*
Y0031508D01*
X-0008303Y0031668D02*
Y0031508D01*
X-0008312Y0031668D02*
Y0031508D01*
X-0008321Y0031668D02*
Y0031508D01*
X-0008330Y0031668D02*
Y0031508D01*
X-0008339Y0031668D02*
Y0031508D01*
X-0008348Y0031668D02*
Y0031508D01*
X-0008357Y0031668D02*
Y0031508D01*
X-0008366Y0031668D02*
Y0031508D01*
X-0008375Y0031668D02*
Y0031508D01*
X-0008384Y0031668D02*
Y0031508D01*
X-0008393Y0031668D02*
Y0031508D01*
X-0008402Y0031668D02*
Y0031508D01*
X-0008411Y0031668D02*
Y0031508D01*
X-0007604Y0031656D02*
X-0008424D01*
X-0007604Y0031647D02*
X-0008424D01*
X-0007604Y0031638D02*
X-0008424D01*
X-0007604Y0031629D02*
X-0008424D01*
X-0007604Y0031620D02*
X-0008424D01*
X-0007604Y0031611D02*
X-0008424D01*
X-0007604Y0031602D02*
X-0008424D01*
X-0007604Y0031593D02*
X-0008424D01*
X-0007604Y0031584D02*
X-0008424D01*
X-0007604Y0031575D02*
X-0008424D01*
X-0007604Y0031566D02*
X-0008424D01*
X-0007604Y0031557D02*
X-0008424D01*
X-0007604Y0031548D02*
X-0008424D01*
X-0007604Y0031539D02*
X-0008424D01*
X-0007604Y0031530D02*
X-0008424D01*
X-0007604Y0031521D02*
X-0008424D01*
Y0031668D02*
Y0031508D01*
X-0007604D02*
X-0008424D01*
X-0007604Y0031668D02*
Y0031508D01*
Y0031668D02*
X-0008424D01*
X-0007619D02*
Y0031508D01*
X-0007628Y0031668D02*
Y0031508D01*
X-0007637Y0031668D02*
Y0031508D01*
X-0007646Y0031668D02*
Y0031508D01*
X-0007655Y0031668D02*
Y0031508D01*
X-0007664Y0031668D02*
Y0031508D01*
X-0007673Y0031668D02*
Y0031508D01*
X-0007682Y0031668D02*
Y0031508D01*
X-0007691Y0031668D02*
Y0031508D01*
X-0007700Y0031668D02*
Y0031508D01*
X-0007709Y0031668D02*
Y0031508D01*
X-0007718Y0031668D02*
Y0031508D01*
X-0007727Y0031668D02*
Y0031508D01*
X-0007736Y0031668D02*
Y0031508D01*
X-0007745Y0031668D02*
Y0031508D01*
X-0007754Y0031668D02*
Y0031508D01*
X-0007763Y0031668D02*
Y0031508D01*
X-0007772Y0031668D02*
Y0031508D01*
X-0007781Y0031668D02*
Y0031508D01*
X-0007790Y0031668D02*
Y0031508D01*
X-0007799Y0031668D02*
Y0031508D01*
X-0007808Y0031668D02*
Y0031508D01*
X-0007817Y0031668D02*
Y0031508D01*
X-0007826Y0031668D02*
Y0031508D01*
X-0007835Y0031668D02*
Y0031508D01*
X-0007844Y0031668D02*
Y0031508D01*
X-0007853Y0031668D02*
Y0031508D01*
X-0007862Y0031668D02*
Y0031508D01*
X-0007871Y0031668D02*
Y0031508D01*
X-0007880Y0031668D02*
Y0031508D01*
X-0007889Y0031668D02*
Y0031508D01*
X-0007898Y0031940D02*
Y0031780D01*
X-0007907Y0031940D02*
Y0031780D01*
X-0007916Y0031940D02*
Y0031780D01*
X-0007925Y0031940D02*
Y0031780D01*
X-0007934Y0031940D02*
Y0031780D01*
X-0007943Y0031940D02*
Y0031780D01*
X-0007952Y0031940D02*
Y0031780D01*
X-0007961Y0031940D02*
Y0031780D01*
X-0007970Y0031940D02*
Y0031780D01*
X-0007979Y0031940D02*
Y0031780D01*
X-0007988Y0031940D02*
Y0031780D01*
X-0007997Y0031940D02*
Y0031780D01*
X-0008006Y0031940D02*
Y0031780D01*
X-0008015Y0031940D02*
Y0031780D01*
X-0008024Y0031940D02*
Y0031780D01*
X-0008033Y0031940D02*
Y0031780D01*
X-0008042Y0031940D02*
Y0031780D01*
X-0008051Y0031940D02*
Y0031780D01*
X-0008060Y0031940D02*
Y0031780D01*
X-0008069Y0031940D02*
Y0031780D01*
X-0008078Y0031940D02*
Y0031780D01*
X-0008087Y0031940D02*
Y0031780D01*
X-0008096Y0031940D02*
Y0031780D01*
X-0008105Y0031940D02*
Y0031780D01*
X-0008114Y0031940D02*
Y0031780D01*
X-0008123Y0031940D02*
Y0031780D01*
X-0008132Y0031940D02*
Y0031780D01*
X-0008141Y0031940D02*
Y0031780D01*
X-0008150Y0031940D02*
Y0031780D01*
X-0008159Y0031940D02*
Y0031780D01*
X-0008168Y0031940D02*
Y0031780D01*
X-0008177Y0031940D02*
Y0031780D01*
X-0008186Y0031940D02*
Y0031780D01*
X-0008195Y0031940D02*
Y0031780D01*
X-0008204Y0031940D02*
Y0031780D01*
X-0008213Y0031940D02*
Y0031780D01*
X-0008222Y0031940D02*
Y0031780D01*
X-0008231Y0031940D02*
Y0031780D01*
X-0008240Y0031940D02*
Y0031780D01*
X-0008249Y0031940D02*
Y0031780D01*
X-0008258Y0031940D02*
Y0031780D01*
X-0008267Y0031940D02*
Y0031780D01*
X-0008276Y0031940D02*
Y0031780D01*
X-0008285Y0031940D02*
Y0031780D01*
X-0008294Y0031940D02*
Y0031780D01*
X-0008303Y0031940D02*
Y0031780D01*
X-0008312Y0031940D02*
Y0031780D01*
X-0008321Y0031940D02*
Y0031780D01*
X-0008330Y0031940D02*
Y0031780D01*
X-0008339Y0031940D02*
Y0031780D01*
X-0008348Y0031940D02*
Y0031780D01*
X-0008357Y0031940D02*
Y0031780D01*
X-0008366Y0031940D02*
Y0031780D01*
X-0008375Y0031940D02*
Y0031780D01*
X-0008384Y0031940D02*
Y0031780D01*
X-0008393Y0031940D02*
Y0031780D01*
X-0008402Y0031940D02*
Y0031780D01*
X-0008411Y0031940D02*
Y0031780D01*
X-0007604Y0031928D02*
X-0008424D01*
X-0007604Y0031919D02*
X-0008424D01*
X-0007604Y0031910D02*
X-0008424D01*
X-0007604Y0031901D02*
X-0008424D01*
X-0007604Y0031892D02*
X-0008424D01*
X-0007604Y0031883D02*
X-0008424D01*
X-0007604Y0031874D02*
X-0008424D01*
X-0007604Y0031865D02*
X-0008424D01*
X-0007604Y0031856D02*
X-0008424D01*
X-0007604Y0031847D02*
X-0008424D01*
X-0007604Y0031838D02*
X-0008424D01*
X-0007604Y0031829D02*
X-0008424D01*
X-0007604Y0031820D02*
X-0008424D01*
X-0007604Y0031811D02*
X-0008424D01*
X-0007604Y0031802D02*
X-0008424D01*
X-0007604Y0031793D02*
X-0008424D01*
Y0031940D02*
Y0031780D01*
X-0007604D02*
X-0008424D01*
X-0007604Y0031940D02*
Y0031780D01*
Y0031940D02*
X-0008424D01*
X-0007619D02*
Y0031780D01*
X-0007628Y0031940D02*
Y0031780D01*
X-0007637Y0031940D02*
Y0031780D01*
X-0007646Y0031940D02*
Y0031780D01*
X-0007655Y0031940D02*
Y0031780D01*
X-0007664Y0031940D02*
Y0031780D01*
X-0007673Y0031940D02*
Y0031780D01*
X-0007682Y0031940D02*
Y0031780D01*
X-0007691Y0031940D02*
Y0031780D01*
X-0007700Y0031940D02*
Y0031780D01*
X-0007709Y0031940D02*
Y0031780D01*
X-0007718Y0031940D02*
Y0031780D01*
X-0007727Y0031940D02*
Y0031780D01*
X-0007736Y0031940D02*
Y0031780D01*
X-0007745Y0031940D02*
Y0031780D01*
X-0007754Y0031940D02*
Y0031780D01*
X-0007763Y0031940D02*
Y0031780D01*
X-0007772Y0031940D02*
Y0031780D01*
X-0007781Y0031940D02*
Y0031780D01*
X-0007790Y0031940D02*
Y0031780D01*
X-0007799Y0031940D02*
Y0031780D01*
X-0007808Y0031940D02*
Y0031780D01*
X-0007817Y0031940D02*
Y0031780D01*
X-0007826Y0031940D02*
Y0031780D01*
X-0007835Y0031940D02*
Y0031780D01*
X-0007844Y0031940D02*
Y0031780D01*
X-0007853Y0031940D02*
Y0031780D01*
X-0007862Y0031940D02*
Y0031780D01*
X-0007871Y0031940D02*
Y0031780D01*
X-0007880Y0031940D02*
Y0031780D01*
X-0007889Y0031940D02*
Y0031780D01*
X-0007898Y0032212D02*
Y0032052D01*
X-0007907Y0032212D02*
Y0032052D01*
X-0007916Y0032212D02*
Y0032052D01*
X-0007925Y0032212D02*
Y0032052D01*
X-0007934Y0032212D02*
Y0032052D01*
X-0007943Y0032212D02*
Y0032052D01*
X-0007952Y0032212D02*
Y0032052D01*
X-0007961Y0032212D02*
Y0032052D01*
X-0007970Y0032212D02*
Y0032052D01*
X-0007979Y0032212D02*
Y0032052D01*
X-0007988Y0032212D02*
Y0032052D01*
X-0007997Y0032212D02*
Y0032052D01*
X-0008006Y0032212D02*
Y0032052D01*
X-0008015Y0032212D02*
Y0032052D01*
X-0008024Y0032212D02*
Y0032052D01*
X-0008033Y0032212D02*
Y0032052D01*
X-0008042Y0032212D02*
Y0032052D01*
X-0008051Y0032212D02*
Y0032052D01*
X-0008060Y0032212D02*
Y0032052D01*
X-0008069Y0032212D02*
Y0032052D01*
X-0008078Y0032212D02*
Y0032052D01*
X-0008087Y0032212D02*
Y0032052D01*
X-0008096Y0032212D02*
Y0032052D01*
X-0008105Y0032212D02*
Y0032052D01*
X-0008114Y0032212D02*
Y0032052D01*
X-0008123Y0032212D02*
Y0032052D01*
X-0008132Y0032212D02*
Y0032052D01*
X-0008141Y0032212D02*
Y0032052D01*
X-0008150Y0032212D02*
Y0032052D01*
X-0008159Y0032212D02*
Y0032052D01*
X-0008168Y0032212D02*
Y0032052D01*
X-0008177Y0032212D02*
Y0032052D01*
X-0008186Y0032212D02*
Y0032052D01*
X-0008195Y0032212D02*
Y0032052D01*
X-0008204Y0032212D02*
Y0032052D01*
X-0008213Y0032212D02*
Y0032052D01*
X-0008222Y0032212D02*
Y0032052D01*
X-0008231Y0032212D02*
Y0032052D01*
X-0008240Y0032212D02*
Y0032052D01*
X-0008249Y0032212D02*
Y0032052D01*
X-0008258Y0032212D02*
Y0032052D01*
X-0008267Y0032212D02*
Y0032052D01*
X-0008276Y0032212D02*
Y0032052D01*
X-0008285Y0032212D02*
Y0032052D01*
X-0008294Y0032212D02*
Y0032052D01*
X-0008303Y0032212D02*
Y0032052D01*
X-0008312Y0032212D02*
Y0032052D01*
X-0008321Y0032212D02*
Y0032052D01*
X-0008330Y0032212D02*
Y0032052D01*
X-0008339Y0032212D02*
Y0032052D01*
X-0008348Y0032212D02*
Y0032052D01*
X-0008357Y0032212D02*
Y0032052D01*
X-0008366Y0032212D02*
Y0032052D01*
X-0008375Y0032212D02*
Y0032052D01*
X-0008384Y0032212D02*
Y0032052D01*
X-0008393Y0032212D02*
Y0032052D01*
X-0008402Y0032212D02*
Y0032052D01*
X-0008411Y0032212D02*
Y0032052D01*
X-0007600Y0032200D02*
X-0008424D01*
X-0007600Y0032191D02*
X-0008424D01*
X-0007600Y0032182D02*
X-0008424D01*
X-0007600Y0032173D02*
X-0008424D01*
X-0007600Y0032164D02*
X-0008424D01*
X-0007600Y0032155D02*
X-0008424D01*
X-0007600Y0032146D02*
X-0008424D01*
X-0007600Y0032137D02*
X-0008424D01*
X-0007600Y0032128D02*
X-0008424D01*
X-0007600Y0032119D02*
X-0008424D01*
X-0007600Y0032110D02*
X-0008424D01*
X-0007600Y0032101D02*
X-0008424D01*
X-0007600Y0032092D02*
X-0008424D01*
X-0007600Y0032083D02*
X-0008424D01*
X-0007600Y0032074D02*
X-0008424D01*
X-0007600Y0032065D02*
X-0008424D01*
X-0007600Y0032212D02*
X-0008424D01*
X-0007600D02*
Y0032052D01*
X-0008424D01*
Y0032212D02*
Y0032052D01*
X-0007610Y0032212D02*
Y0032052D01*
X-0007619Y0032212D02*
Y0032052D01*
X-0007628Y0032212D02*
Y0032052D01*
X-0007637Y0032212D02*
Y0032052D01*
X-0007646Y0032212D02*
Y0032052D01*
X-0007655Y0032212D02*
Y0032052D01*
X-0007664Y0032212D02*
Y0032052D01*
X-0007673Y0032212D02*
Y0032052D01*
X-0007682Y0032212D02*
Y0032052D01*
X-0007691Y0032212D02*
Y0032052D01*
X-0007700Y0032212D02*
Y0032052D01*
X-0007709Y0032212D02*
Y0032052D01*
X-0007718Y0032212D02*
Y0032052D01*
X-0007727Y0032212D02*
Y0032052D01*
X-0007736Y0032212D02*
Y0032052D01*
X-0007745Y0032212D02*
Y0032052D01*
X-0007754Y0032212D02*
Y0032052D01*
X-0007763Y0032212D02*
Y0032052D01*
X-0007772Y0032212D02*
Y0032052D01*
X-0007781Y0032212D02*
Y0032052D01*
X-0007790Y0032212D02*
Y0032052D01*
X-0007799Y0032212D02*
Y0032052D01*
X-0007808Y0032212D02*
Y0032052D01*
X-0007817Y0032212D02*
Y0032052D01*
X-0007826Y0032212D02*
Y0032052D01*
X-0007835Y0032212D02*
Y0032052D01*
X-0007844Y0032212D02*
Y0032052D01*
X-0007853Y0032212D02*
Y0032052D01*
X-0007862Y0032212D02*
Y0032052D01*
X-0007871Y0032212D02*
Y0032052D01*
X-0007880Y0032212D02*
Y0032052D01*
X-0007889Y0032212D02*
Y0032052D01*
Y0032476D02*
Y0032316D01*
X-0007898Y0032476D02*
Y0032316D01*
X-0007907Y0032476D02*
Y0032316D01*
X-0007916Y0032476D02*
Y0032316D01*
X-0007925Y0032476D02*
Y0032316D01*
X-0007934Y0032476D02*
Y0032316D01*
X-0007943Y0032476D02*
Y0032316D01*
X-0007952Y0032476D02*
Y0032316D01*
X-0007961Y0032476D02*
Y0032316D01*
X-0007970Y0032476D02*
Y0032316D01*
X-0007979Y0032476D02*
Y0032316D01*
X-0007988Y0032476D02*
Y0032316D01*
X-0007997Y0032476D02*
Y0032316D01*
X-0008006Y0032476D02*
Y0032316D01*
X-0008015Y0032476D02*
Y0032316D01*
X-0008024Y0032476D02*
Y0032316D01*
X-0008033Y0032476D02*
Y0032316D01*
X-0008042Y0032476D02*
Y0032316D01*
X-0008051Y0032476D02*
Y0032316D01*
X-0008060Y0032476D02*
Y0032316D01*
X-0008069Y0032476D02*
Y0032316D01*
X-0008078Y0032476D02*
Y0032316D01*
X-0008087Y0032476D02*
Y0032316D01*
X-0008096Y0032476D02*
Y0032316D01*
X-0008105Y0032476D02*
Y0032316D01*
X-0008114Y0032476D02*
Y0032316D01*
X-0008123Y0032476D02*
Y0032316D01*
X-0008132Y0032476D02*
Y0032316D01*
X-0008141Y0032476D02*
Y0032316D01*
X-0008150Y0032476D02*
Y0032316D01*
X-0008159Y0032476D02*
Y0032316D01*
X-0008168Y0032476D02*
Y0032316D01*
X-0008177Y0032476D02*
Y0032316D01*
X-0008186Y0032476D02*
Y0032316D01*
X-0008195Y0032476D02*
Y0032316D01*
X-0008204Y0032476D02*
Y0032316D01*
X-0008213Y0032476D02*
Y0032316D01*
X-0008222Y0032476D02*
Y0032316D01*
X-0008231Y0032476D02*
Y0032316D01*
X-0008240Y0032476D02*
Y0032316D01*
X-0008249Y0032476D02*
Y0032316D01*
X-0008258Y0032476D02*
Y0032316D01*
X-0008267Y0032476D02*
Y0032316D01*
X-0008276Y0032476D02*
Y0032316D01*
X-0008285Y0032476D02*
Y0032316D01*
X-0008294Y0032476D02*
Y0032316D01*
X-0008303Y0032476D02*
Y0032316D01*
X-0008312Y0032476D02*
Y0032316D01*
X-0008321Y0032476D02*
Y0032316D01*
X-0008330Y0032476D02*
Y0032316D01*
X-0008339Y0032476D02*
Y0032316D01*
X-0008348Y0032476D02*
Y0032316D01*
X-0008357Y0032476D02*
Y0032316D01*
X-0008366Y0032476D02*
Y0032316D01*
X-0008375Y0032476D02*
Y0032316D01*
X-0008384Y0032476D02*
Y0032316D01*
X-0008393Y0032476D02*
Y0032316D01*
X-0008402Y0032476D02*
Y0032316D01*
X-0008411Y0032476D02*
Y0032316D01*
X-0007592Y0032464D02*
X-0008424D01*
X-0007592Y0032455D02*
X-0008424D01*
X-0007592Y0032446D02*
X-0008424D01*
X-0007592Y0032437D02*
X-0008424D01*
X-0007592Y0032428D02*
X-0008424D01*
X-0007592Y0032419D02*
X-0008424D01*
X-0007592Y0032410D02*
X-0008424D01*
X-0007592Y0032401D02*
X-0008424D01*
X-0007592Y0032392D02*
X-0008424D01*
X-0007592Y0032383D02*
X-0008424D01*
X-0007592Y0032374D02*
X-0008424D01*
X-0007592Y0032365D02*
X-0008424D01*
X-0007592Y0032356D02*
X-0008424D01*
X-0007592Y0032347D02*
X-0008424D01*
X-0007592Y0032338D02*
X-0008424D01*
X-0007592Y0032329D02*
X-0008424D01*
X-0007592Y0032476D02*
X-0008424D01*
X-0007592D02*
Y0032316D01*
X-0008424D01*
Y0032476D02*
Y0032316D01*
X-0007601Y0032476D02*
Y0032316D01*
X-0007610Y0032476D02*
Y0032316D01*
X-0007619Y0032476D02*
Y0032316D01*
X-0007628Y0032476D02*
Y0032316D01*
X-0007637Y0032476D02*
Y0032316D01*
X-0007646Y0032476D02*
Y0032316D01*
X-0007655Y0032476D02*
Y0032316D01*
X-0007664Y0032476D02*
Y0032316D01*
X-0007673Y0032476D02*
Y0032316D01*
X-0007682Y0032476D02*
Y0032316D01*
X-0007691Y0032476D02*
Y0032316D01*
X-0007700Y0032476D02*
Y0032316D01*
X-0007709Y0032476D02*
Y0032316D01*
X-0007718Y0032476D02*
Y0032316D01*
X-0007727Y0032476D02*
Y0032316D01*
X-0007736Y0032476D02*
Y0032316D01*
X-0007745Y0032476D02*
Y0032316D01*
X-0007754Y0032476D02*
Y0032316D01*
X-0007763Y0032476D02*
Y0032316D01*
X-0007772Y0032476D02*
Y0032316D01*
X-0007781Y0032476D02*
Y0032316D01*
X-0007790Y0032476D02*
Y0032316D01*
X-0007799Y0032476D02*
Y0032316D01*
X-0007808Y0032476D02*
Y0032316D01*
X-0007817Y0032476D02*
Y0032316D01*
X-0007826Y0032476D02*
Y0032316D01*
X-0007835Y0032476D02*
Y0032316D01*
X-0007844Y0032476D02*
Y0032316D01*
X-0007853Y0032476D02*
Y0032316D01*
X-0007862Y0032476D02*
Y0032316D01*
X-0007871Y0032476D02*
Y0032316D01*
X-0007880Y0032476D02*
Y0032316D01*
G54D39*
G01X-0009342Y0032607D02*
Y0031388D01*
X-0009378Y0032607D02*
Y0031388D01*
X-0009413Y0032607D02*
Y0031388D01*
X-0009448Y0032607D02*
Y0031388D01*
X-0008653Y0032587D02*
X-0009479D01*
X-0008653Y0032552D02*
X-0009479D01*
X-0008653Y0032516D02*
X-0009479D01*
X-0008653Y0032481D02*
X-0009479D01*
X-0008653Y0032445D02*
X-0009479D01*
X-0008653Y0032410D02*
X-0009479D01*
X-0008653Y0032375D02*
X-0009479D01*
X-0008653Y0032339D02*
X-0009479D01*
X-0008653Y0032304D02*
X-0009479D01*
X-0008653Y0032268D02*
X-0009479D01*
X-0008653Y0032233D02*
X-0009479D01*
X-0008653Y0032198D02*
X-0009479D01*
X-0008653Y0032162D02*
X-0009479D01*
X-0008653Y0032127D02*
X-0009479D01*
X-0008653Y0032091D02*
X-0009479D01*
X-0008653Y0032056D02*
X-0009479D01*
X-0008653Y0032021D02*
X-0009479D01*
X-0008653Y0031985D02*
X-0009479D01*
X-0008653Y0031950D02*
X-0009479D01*
X-0008653Y0031914D02*
X-0009479D01*
X-0008653Y0031879D02*
X-0009479D01*
X-0008653Y0031844D02*
X-0009479D01*
X-0008653Y0031808D02*
X-0009479D01*
X-0008653Y0031773D02*
X-0009479D01*
X-0008653Y0031737D02*
X-0009479D01*
X-0008653Y0031702D02*
X-0009479D01*
X-0008653Y0031667D02*
X-0009479D01*
X-0008653Y0031631D02*
X-0009479D01*
X-0008653Y0031596D02*
X-0009479D01*
X-0008653Y0031560D02*
X-0009479D01*
X-0008653Y0031525D02*
X-0009479D01*
X-0008653Y0031490D02*
X-0009479D01*
X-0008653Y0031454D02*
X-0009479D01*
X-0008653Y0031419D02*
X-0009479D01*
X-0008653Y0032607D02*
X-0009479D01*
X-0008653D02*
Y0031388D01*
X-0009479D01*
Y0032607D02*
Y0031388D01*
X-0008670Y0032607D02*
Y0031388D01*
X-0008705Y0032607D02*
Y0031388D01*
X-0008740Y0032607D02*
Y0031388D01*
X-0008776Y0032607D02*
Y0031388D01*
X-0008811Y0032607D02*
Y0031388D01*
X-0008847Y0032607D02*
Y0031388D01*
X-0008882Y0032607D02*
Y0031388D01*
X-0008917Y0032607D02*
Y0031388D01*
X-0008953Y0032607D02*
Y0031388D01*
X-0008988Y0032607D02*
Y0031388D01*
X-0009024Y0032607D02*
Y0031388D01*
X-0009059Y0032607D02*
Y0031388D01*
X-0009094Y0032607D02*
Y0031388D01*
X-0009130Y0032607D02*
Y0031388D01*
X-0009165Y0032607D02*
Y0031388D01*
X-0009201Y0032607D02*
Y0031388D01*
X-0009236Y0032607D02*
Y0031388D01*
X-0009271Y0032607D02*
Y0031388D01*
X-0009307Y0032607D02*
Y0031388D01*
G54D11*
X-0007280Y0030220D03*
X-0008120D03*
X-0004128Y0031452D03*
X-0003288D03*
X-0004132Y0032292D03*
X-0003292D03*
X-0001180Y0031088D03*
X-0000340D03*
X0000744D03*
X0001584D03*
X-0000340Y0030212D03*
X-0001180D03*
X-0000320Y0032516D03*
X-0001160D03*
X0003316D03*
X0004156D03*
X0003328Y0031048D03*
X0004168D03*
X0001924Y0025616D03*
Y0024776D03*
X0002768Y0026696D03*
X0001928D03*
X-0005384Y0027492D03*
Y0028332D03*
X-0004412Y0027492D03*
Y0028332D03*
X-0009558Y0033709D03*
X-0008718D03*
X-0012184Y0029204D03*
Y0028364D03*
X-0013020Y0030208D03*
X-0012180D03*
X-0005392Y0029356D03*
X-0004552D03*
X-0006376Y0030220D03*
Y0031060D03*
X-0004540Y0024108D03*
X-0005380D03*
X-0005384Y0026520D03*
Y0025680D03*
X-0004412Y0026524D03*
Y0025684D03*
X-0010304Y0029376D03*
Y0030216D03*
X-0013963Y0029382D03*
Y0030222D03*
X-0005464Y0031452D03*
Y0032292D03*
X0003855Y0027494D03*
Y0028334D03*
X0003815Y0025134D03*
Y0025974D03*
X-0001632Y0024788D03*
Y0025628D03*
X-0003432Y0029240D03*
Y0028400D03*
X-0011220Y0029376D03*
Y0030216D03*
X-0004556Y0030312D03*
X-0005396D03*
G54D12*
X-0009224Y0029811D03*
G54D13*
Y0028788D03*
G54D16*
X-0000322Y0028291D03*
G54D17*
X-0000617Y0027662D03*
X-0000420D03*
X-0000224D03*
X-0000027D03*
Y0028921D03*
X-0000224D03*
X-0000420D03*
X-0000617D03*
G54D18*
X-0000951Y0028586D03*
Y0028390D03*
Y0028193D03*
Y0027996D03*
X0000288D03*
Y0028193D03*
Y0028390D03*
Y0028586D03*
G54D20*
X-0013991Y0032100D03*
X-0011991D03*
G54D21*
X-0002464Y0025684D03*
X-0003024D03*
X-0003565D03*
X-0007376Y0025680D03*
X-0006816D03*
X-0006275D03*
G54D22*
X-0015593Y0028231D03*
X-0015605Y0031843D03*
G54D23*
X-0008720Y0036052D03*
G54D25*
X-0009047Y0031545D03*
Y0032017D03*
X-0008771Y0032450D03*
Y0032017D03*
Y0031545D03*
X-0009361Y0032450D03*
X-0000315Y0028084D03*
Y0028477D03*
Y0028281D03*
X-0000118D03*
X-0000511D03*
X-0000118Y0028084D03*
X-0000511D03*
Y0028477D03*
X-0008614Y0024347D03*
X-0004091Y0033669D03*
X-0004799D03*
X-0005546D03*
X-0006254D03*
X-0006962D03*
X-0007434Y0028163D03*
Y0028753D03*
X-0009755Y0032961D03*
X-0008496D03*
X-0009047Y0032450D03*
X-0009322Y0031113D03*
X-0007080D03*
X-0007631D03*
X-0008181D03*
X-0009361Y0032017D03*
Y0031545D03*
X-0008771Y0031113D03*
X-0010826Y0027360D03*
X-0011416D03*
X-0010826Y0028147D03*
X-0009842Y0027557D03*
Y0028147D03*
X-0008661Y0027557D03*
X-0008267Y0028147D03*
X-0014762Y0026376D03*
X-0015550D03*
Y0026966D03*
X-0015156Y0030706D03*
X-0015943D03*
Y0030115D03*
X-0015156D03*
Y0029525D03*
X-0015943D03*
X-0014762Y0026966D03*
X-0013975D03*
Y0028541D03*
Y0027753D03*
X-0013188D03*
X-0011416Y0028147D03*
X-0002756Y0033658D03*
X-0001968Y0033068D03*
Y0033658D03*
X0005231Y0031034D03*
X0003937Y0033658D03*
X0004724D03*
X0005231Y0033276D03*
Y0032450D03*
X-0001181Y0033658D03*
X0005231Y0031703D03*
X-0007873Y0026376D03*
X-0010038Y0025588D03*
X-0013188Y0028541D03*
X-0008661Y0026376D03*
X-0009054Y0025588D03*
X-0008267D03*
X-0012204Y0027360D03*
X-0009448Y0026376D03*
X-0010826Y0025588D03*
X-0011810D03*
X-0012794D03*
X-0013778D03*
X-0008267Y0028738D03*
X-0010235Y0026376D03*
X-0011416D03*
X-0012400D03*
X-0013188D03*
X-0013975D03*
X0003800Y0027438D03*
X-0000960Y0024878D03*
Y0025496D03*
X-0000958Y0026094D03*
X0005192Y0025449D03*
X0004744Y0026110D03*
X0005271Y0026393D03*
X0004740Y0026780D03*
X0003780Y0023688D03*
Y0024318D03*
X0004470Y0024310D03*
X0004476Y0023728D03*
X0004480Y0024878D03*
X0004476Y0025434D03*
X0003068Y0023732D03*
X0003070Y0024318D03*
Y0024870D03*
Y0025408D03*
X-0000738Y0026582D03*
X-0002164Y0026610D03*
X-0001794Y0027060D03*
X-0001390Y0027496D03*
X-0002568Y0029164D03*
X-0002000Y0029844D03*
X-0001994Y0029170D03*
X-0001458Y0029178D03*
X0001332Y0029098D03*
X0000712D03*
X-0000118Y0028477D03*
G54D35*
X-0002584Y0032280D03*
X-0002200Y0031452D03*
X-0008120Y0029396D03*
X-0011060Y0031020D03*
X0002528Y0031040D03*
X0001932Y0029156D03*
X0001928Y0027400D03*
X0002016Y0030016D03*
X0002768Y0028840D03*
Y0027400D03*
X-0011060Y0031030D03*
X-0011056Y0032392D03*
X-0007288Y0029388D03*
X0000920Y0027296D03*
X-0000916Y0031816D03*
Y0029452D03*
X-0002924Y0027580D03*
X-0006816D03*
G54D41*
X-0010264Y0032381D03*
Y0032125D03*
Y0031869D03*
Y0031614D03*
X-0007904D03*
Y0031869D03*
Y0032125D03*
Y0032381D03*
M02*
