*
G04 Mass Parameters ***
*
G04 Image ***
*
%INC:\USERS\FOX\DESKTOP\ST\ISV0012V1\ISV0012V1-1.BOT*%
%ICAS*%
%MOIN*%
%IPPOS*%
%ASAXBY*%
G74*%FSLAN2X34Y34*%
*
G04 Aperture Definitions ***
*
%ADD10C,0.1870*%
%ADD11R,0.0500X0.0500*%
%ADD12R,0.0787X0.1181*%
%ADD13R,0.0394X0.0394*%
%ADD14C,0.0620*%
%ADD15R,0.0590X0.0100*%
%ADD16R,0.0630X0.0630*%
%ADD17R,0.0098X0.0394*%
%ADD18R,0.0394X0.0098*%
%ADD19C,0.0787*%
%ADD20R,0.0720X0.1660*%
%ADD21R,0.0320X0.0380*%
%ADD22R,0.1150X0.1100*%
%ADD23R,0.1100X0.1150*%
%ADD24C,0.0157*%
%ADD25C,0.0197*%
%ADD26C,0.0010*%
%ADD27C,0.0100*%
%ADD28C,0.0157*%
%ADD29C,0.0118*%
%ADD30C,0.0197*%
%ADD31C,0.0197*%
%ADD32C,0.0120*%
%ADD33C,0.0394*%
%ADD34R,0.9449X0.1968*%
%ADD35C,0.0197*%
*
G04 Plot Data ***
*
G54D26*
G01X-0009501Y0032607D02*
Y0031349D01*
X-0008575D02*
X-0009501D01*
X-0008575Y0032607D02*
Y0031349D01*
Y0032607D02*
X-0009501D01*
X-0008588D02*
Y0031349D01*
X-0008597Y0032607D02*
Y0031349D01*
X-0008606Y0032607D02*
Y0031349D01*
X-0008615Y0032607D02*
Y0031349D01*
X-0008624Y0032607D02*
Y0031349D01*
X-0008633Y0032607D02*
Y0031349D01*
X-0008642Y0032607D02*
Y0031349D01*
X-0008651Y0032607D02*
Y0031349D01*
X-0008660Y0032607D02*
Y0031349D01*
X-0008669Y0032607D02*
Y0031349D01*
X-0008678Y0032607D02*
Y0031349D01*
X-0008687Y0032607D02*
Y0031349D01*
X-0008696Y0032607D02*
Y0031349D01*
X-0008705Y0032607D02*
Y0031349D01*
X-0008714Y0032607D02*
Y0031349D01*
X-0008723Y0032607D02*
Y0031349D01*
X-0008732Y0032607D02*
Y0031349D01*
X-0008741Y0032607D02*
Y0031349D01*
X-0008750Y0032607D02*
Y0031349D01*
X-0008759Y0032607D02*
Y0031349D01*
X-0008768Y0032607D02*
Y0031349D01*
X-0008777Y0032607D02*
Y0031349D01*
X-0008786Y0032607D02*
Y0031349D01*
X-0008795Y0032607D02*
Y0031349D01*
X-0008804Y0032607D02*
Y0031349D01*
X-0008813Y0032607D02*
Y0031349D01*
X-0008822Y0032607D02*
Y0031349D01*
X-0008831Y0032607D02*
Y0031349D01*
X-0008840Y0032607D02*
Y0031349D01*
X-0008849Y0032607D02*
Y0031349D01*
X-0008858Y0032607D02*
Y0031349D01*
X-0008867Y0032607D02*
Y0031349D01*
X-0008876Y0032607D02*
Y0031349D01*
X-0008885Y0032607D02*
Y0031349D01*
X-0008894Y0032607D02*
Y0031349D01*
X-0008903Y0032607D02*
Y0031349D01*
X-0008912Y0032607D02*
Y0031349D01*
X-0008921Y0032607D02*
Y0031349D01*
X-0008930Y0032607D02*
Y0031349D01*
X-0008939Y0032607D02*
Y0031349D01*
X-0008948Y0032607D02*
Y0031349D01*
X-0008957Y0032607D02*
Y0031349D01*
X-0008966Y0032607D02*
Y0031349D01*
X-0008975Y0032607D02*
Y0031349D01*
X-0008984Y0032607D02*
Y0031349D01*
X-0008993Y0032607D02*
Y0031349D01*
X-0009002Y0032607D02*
Y0031349D01*
X-0009011Y0032607D02*
Y0031349D01*
X-0009020Y0032607D02*
Y0031349D01*
X-0009029Y0032607D02*
Y0031349D01*
X-0009038Y0032607D02*
Y0031349D01*
X-0009047Y0032607D02*
Y0031349D01*
X-0009056Y0032607D02*
Y0031349D01*
X-0009065Y0032607D02*
Y0031349D01*
X-0009074Y0032607D02*
Y0031349D01*
X-0009083Y0032607D02*
Y0031349D01*
X-0009092Y0032607D02*
Y0031349D01*
X-0009101Y0032607D02*
Y0031349D01*
X-0009110Y0032607D02*
Y0031349D01*
X-0009119Y0032607D02*
Y0031349D01*
X-0009128Y0032607D02*
Y0031349D01*
X-0009137Y0032607D02*
Y0031349D01*
X-0009146Y0032607D02*
Y0031349D01*
X-0009155Y0032607D02*
Y0031349D01*
X-0009164Y0032607D02*
Y0031349D01*
X-0009173Y0032607D02*
Y0031349D01*
X-0009182Y0032607D02*
Y0031349D01*
X-0009191Y0032607D02*
Y0031349D01*
X-0009200Y0032607D02*
Y0031349D01*
X-0009209Y0032607D02*
Y0031349D01*
X-0009218Y0032607D02*
Y0031349D01*
X-0009227Y0032607D02*
Y0031349D01*
X-0009236Y0032607D02*
Y0031349D01*
X-0009245Y0032607D02*
Y0031349D01*
X-0009254Y0032607D02*
Y0031349D01*
X-0009263Y0032607D02*
Y0031349D01*
X-0009272Y0032607D02*
Y0031349D01*
X-0009281Y0032607D02*
Y0031349D01*
X-0009290Y0032607D02*
Y0031349D01*
X-0009299Y0032607D02*
Y0031349D01*
X-0009308Y0032607D02*
Y0031349D01*
X-0009317Y0032607D02*
Y0031349D01*
X-0009326Y0032607D02*
Y0031349D01*
X-0009335Y0032607D02*
Y0031349D01*
X-0009344Y0032607D02*
Y0031349D01*
X-0009353Y0032607D02*
Y0031349D01*
X-0009362Y0032607D02*
Y0031349D01*
X-0009371Y0032607D02*
Y0031349D01*
X-0009380Y0032607D02*
Y0031349D01*
X-0009389Y0032607D02*
Y0031349D01*
X-0009398Y0032607D02*
Y0031349D01*
X-0009407Y0032607D02*
Y0031349D01*
X-0009416Y0032607D02*
Y0031349D01*
X-0009425Y0032607D02*
Y0031349D01*
X-0009434Y0032607D02*
Y0031349D01*
X-0009443Y0032607D02*
Y0031349D01*
X-0009452Y0032607D02*
Y0031349D01*
X-0009461Y0032607D02*
Y0031349D01*
X-0009470Y0032607D02*
Y0031349D01*
X-0009479Y0032607D02*
Y0031349D01*
X-0009488Y0032607D02*
Y0031349D01*
X-0008575Y0032595D02*
X-0009501D01*
X-0008575Y0032586D02*
X-0009501D01*
X-0008575Y0032577D02*
X-0009501D01*
X-0008575Y0032568D02*
X-0009501D01*
X-0008575Y0032559D02*
X-0009501D01*
X-0008575Y0032550D02*
X-0009501D01*
X-0008575Y0032541D02*
X-0009501D01*
X-0008575Y0032532D02*
X-0009501D01*
X-0008575Y0032523D02*
X-0009501D01*
X-0008575Y0032514D02*
X-0009501D01*
X-0008575Y0032505D02*
X-0009501D01*
X-0008575Y0032496D02*
X-0009501D01*
X-0008575Y0032487D02*
X-0009501D01*
X-0008575Y0032478D02*
X-0009501D01*
X-0008575Y0032469D02*
X-0009501D01*
X-0008575Y0032460D02*
X-0009501D01*
X-0008575Y0032451D02*
X-0009501D01*
X-0008575Y0032442D02*
X-0009501D01*
X-0008575Y0032433D02*
X-0009501D01*
X-0008575Y0032424D02*
X-0009501D01*
X-0008575Y0032415D02*
X-0009501D01*
X-0008575Y0032406D02*
X-0009501D01*
X-0008575Y0032397D02*
X-0009501D01*
X-0008575Y0032388D02*
X-0009501D01*
X-0008575Y0032379D02*
X-0009501D01*
X-0008575Y0032370D02*
X-0009501D01*
X-0008575Y0032361D02*
X-0009501D01*
X-0008575Y0032352D02*
X-0009501D01*
X-0008575Y0032343D02*
X-0009501D01*
X-0008575Y0032334D02*
X-0009501D01*
X-0008575Y0032325D02*
X-0009501D01*
X-0008575Y0032316D02*
X-0009501D01*
X-0008575Y0032307D02*
X-0009501D01*
X-0008575Y0032298D02*
X-0009501D01*
X-0008575Y0032289D02*
X-0009501D01*
X-0008575Y0032280D02*
X-0009501D01*
X-0008575Y0032271D02*
X-0009501D01*
X-0008575Y0032262D02*
X-0009501D01*
X-0008575Y0032253D02*
X-0009501D01*
X-0008575Y0032244D02*
X-0009501D01*
X-0008575Y0032235D02*
X-0009501D01*
X-0008575Y0032226D02*
X-0009501D01*
X-0008575Y0032217D02*
X-0009501D01*
X-0008575Y0032208D02*
X-0009501D01*
X-0008575Y0032199D02*
X-0009501D01*
X-0008575Y0032190D02*
X-0009501D01*
X-0008575Y0032181D02*
X-0009501D01*
X-0008575Y0032172D02*
X-0009501D01*
X-0008575Y0032163D02*
X-0009501D01*
X-0008575Y0032154D02*
X-0009501D01*
X-0008575Y0032145D02*
X-0009501D01*
X-0008575Y0032136D02*
X-0009501D01*
X-0008575Y0032127D02*
X-0009501D01*
X-0008575Y0032118D02*
X-0009501D01*
X-0008575Y0032109D02*
X-0009501D01*
X-0008575Y0032100D02*
X-0009501D01*
X-0008575Y0032091D02*
X-0009501D01*
X-0008575Y0032082D02*
X-0009501D01*
X-0008575Y0032073D02*
X-0009501D01*
X-0008575Y0032064D02*
X-0009501D01*
X-0008575Y0032055D02*
X-0009501D01*
X-0008575Y0032046D02*
X-0009501D01*
X-0008575Y0032037D02*
X-0009501D01*
X-0008575Y0032028D02*
X-0009501D01*
X-0008575Y0032019D02*
X-0009501D01*
X-0008575Y0032010D02*
X-0009501D01*
X-0008575Y0032001D02*
X-0009501D01*
X-0008575Y0031992D02*
X-0009501D01*
X-0008575Y0031983D02*
X-0009501D01*
X-0008575Y0031974D02*
X-0009501D01*
X-0008575Y0031965D02*
X-0009501D01*
X-0008575Y0031956D02*
X-0009501D01*
X-0008575Y0031947D02*
X-0009501D01*
X-0008575Y0031938D02*
X-0009501D01*
X-0008575Y0031929D02*
X-0009501D01*
X-0008575Y0031920D02*
X-0009501D01*
X-0008575Y0031911D02*
X-0009501D01*
X-0008575Y0031902D02*
X-0009501D01*
X-0008575Y0031893D02*
X-0009501D01*
X-0008575Y0031884D02*
X-0009501D01*
X-0008575Y0031875D02*
X-0009501D01*
X-0008575Y0031866D02*
X-0009501D01*
X-0008575Y0031857D02*
X-0009501D01*
X-0008575Y0031848D02*
X-0009501D01*
X-0008575Y0031839D02*
X-0009501D01*
X-0008575Y0031830D02*
X-0009501D01*
X-0008575Y0031821D02*
X-0009501D01*
X-0008575Y0031812D02*
X-0009501D01*
X-0008575Y0031803D02*
X-0009501D01*
X-0008575Y0031794D02*
X-0009501D01*
X-0008575Y0031785D02*
X-0009501D01*
X-0008575Y0031776D02*
X-0009501D01*
X-0008575Y0031767D02*
X-0009501D01*
X-0008575Y0031758D02*
X-0009501D01*
X-0008575Y0031749D02*
X-0009501D01*
X-0008575Y0031740D02*
X-0009501D01*
X-0008575Y0031731D02*
X-0009501D01*
X-0008575Y0031722D02*
X-0009501D01*
X-0008575Y0031713D02*
X-0009501D01*
X-0008575Y0031704D02*
X-0009501D01*
X-0008575Y0031695D02*
X-0009501D01*
X-0008575Y0031686D02*
X-0009501D01*
X-0008575Y0031677D02*
X-0009501D01*
X-0008575Y0031668D02*
X-0009501D01*
X-0008575Y0031659D02*
X-0009501D01*
X-0008575Y0031650D02*
X-0009501D01*
X-0008575Y0031641D02*
X-0009501D01*
X-0008575Y0031632D02*
X-0009501D01*
X-0008575Y0031623D02*
X-0009501D01*
X-0008575Y0031614D02*
X-0009501D01*
X-0008575Y0031605D02*
X-0009501D01*
X-0008575Y0031596D02*
X-0009501D01*
X-0008575Y0031587D02*
X-0009501D01*
X-0008575Y0031578D02*
X-0009501D01*
X-0008575Y0031569D02*
X-0009501D01*
X-0008575Y0031560D02*
X-0009501D01*
X-0008575Y0031551D02*
X-0009501D01*
X-0008575Y0031542D02*
X-0009501D01*
X-0008575Y0031533D02*
X-0009501D01*
X-0008575Y0031524D02*
X-0009501D01*
X-0008575Y0031515D02*
X-0009501D01*
X-0008575Y0031506D02*
X-0009501D01*
X-0008575Y0031497D02*
X-0009501D01*
X-0008575Y0031488D02*
X-0009501D01*
X-0008575Y0031479D02*
X-0009501D01*
X-0008575Y0031470D02*
X-0009501D01*
X-0008575Y0031461D02*
X-0009501D01*
X-0008575Y0031452D02*
X-0009501D01*
X-0008575Y0031443D02*
X-0009501D01*
X-0008575Y0031434D02*
X-0009501D01*
X-0008575Y0031425D02*
X-0009501D01*
X-0008575Y0031416D02*
X-0009501D01*
X-0008575Y0031407D02*
X-0009501D01*
X-0008575Y0031398D02*
X-0009501D01*
X-0008575Y0031389D02*
X-0009501D01*
X-0008575Y0031380D02*
X-0009501D01*
X-0008575Y0031371D02*
X-0009501D01*
X-0008575Y0031362D02*
X-0009501D01*
G54D27*
G01X-0013921Y0036884D02*
Y0028741D01*
X0000569Y0036895D02*
Y0029248D01*
X-0009241Y0030943D02*
Y0026392D01*
X-0013201Y0027546D02*
Y0026582D01*
X-0008341Y0032855D02*
Y0031211D01*
X-0003045Y0027412D02*
X-0006694D01*
X0002580Y0029774D02*
X-0000728D01*
X-0012952Y0025454D02*
X-0013620D01*
X-0012841Y0036884D02*
Y0025790D01*
X0001469Y0028942D02*
Y0023384D01*
X-0001104Y0030854D02*
X-0002012D01*
X0001828Y0031664D02*
X-0000728D01*
X0004799Y0033465D02*
Y0026979D01*
X0000713Y0026174D02*
X-0000039D01*
X-0004091Y0036884D02*
X-0016441D01*
X-0003029Y0036895D02*
X-0004091Y0036884D01*
X0005113Y0036895D02*
X-0003029D01*
X0005113D02*
X0008860Y0036884D01*
Y0023384D01*
X-0016441Y0036884D02*
Y0023384D01*
X0008849Y0036884D02*
Y0023384D01*
X0008759Y0036884D02*
Y0023384D01*
X0008669Y0036884D02*
Y0023384D01*
X-0013408Y0023744D02*
X-0014562D01*
X0006509Y0034956D02*
Y0024869D01*
X0008860Y0023564D02*
X0007738D01*
X0008399Y0035040D02*
Y0025135D01*
X0008309Y0034869D02*
Y0025259D01*
X0008219Y0034751D02*
Y0025352D01*
X0008860Y0026354D02*
X0007949D01*
X0008129Y0026675D02*
Y0025426D01*
X0008039Y0026449D02*
Y0025485D01*
X0007949Y0026354D02*
Y0025532D01*
X0007859Y0026295D02*
Y0025568D01*
X0007769Y0026260D02*
Y0025595D01*
X0007679Y0026243D02*
Y0025614D01*
X0007589Y0026242D02*
Y0025624D01*
X0007499Y0026258D02*
Y0025627D01*
X0007409Y0026292D02*
Y0025622D01*
X0007319Y0026349D02*
Y0025609D01*
X0007229Y0026441D02*
Y0025588D01*
X0007049Y0034469D02*
Y0025518D01*
X0006959Y0034510D02*
Y0025468D01*
X0006869Y0034562D02*
Y0025405D01*
X0006779Y0034627D02*
Y0025326D01*
X0006689Y0034708D02*
Y0025224D01*
X0006599Y0034813D02*
Y0025088D01*
X0006419Y0035196D02*
Y0023384D01*
X0006329Y0036891D02*
Y0023384D01*
X0006239Y0036891D02*
Y0023384D01*
X0006149Y0036892D02*
Y0023384D01*
X0006059Y0036892D02*
Y0023384D01*
X0005969Y0036892D02*
Y0023384D01*
X0005879Y0036892D02*
Y0023384D01*
X0005789Y0036893D02*
Y0023384D01*
X0005699Y0036893D02*
Y0023384D01*
X0005609Y0036893D02*
Y0023384D01*
X0005069Y0026346D02*
Y0025615D01*
X-0001253Y0033464D02*
X-0001896D01*
X-0000514Y0025094D02*
X-0003741D01*
X0006819Y0025364D02*
X0005381D01*
X0005249Y0026186D02*
Y0025648D01*
X0005069Y0025282D02*
Y0023384D01*
X0000550Y0025994D02*
X0000149D01*
X0006936Y0025454D02*
X0005399D01*
X0004889Y0026635D02*
Y0026258D01*
X0004270Y0025454D02*
X0003272D01*
X0006497Y0024824D02*
X0004680D01*
X0004269Y0023744D02*
X0003980D01*
X0007287Y0023564D02*
X0004603D01*
X0004349D02*
Y0023384D01*
X0004259Y0036895D02*
Y0023384D01*
X0003812Y0033824D02*
X-0001056D01*
X0003899Y0036895D02*
Y0033862D01*
X0004264Y0024284D02*
X0003984D01*
X0004799Y0026581D02*
Y0026310D01*
X0006703Y0023924D02*
X0004544D01*
X0003809Y0024113D02*
Y0023893D01*
X0003629Y0023546D02*
Y0023384D01*
X0003539Y0036895D02*
Y0023384D01*
X0003449Y0036895D02*
Y0023384D01*
X0002865Y0024284D02*
X-0003741D01*
X0000505Y0024824D02*
X0000198D01*
X0006637Y0024014D02*
X-0003741D01*
X0002861Y0023744D02*
X-0003741D01*
X0003269Y0024259D02*
Y0023784D01*
X0002580Y0027704D02*
X0002096D01*
X0004439Y0023524D02*
Y0023384D01*
X0002580Y0029414D02*
X-0000712D01*
X-0001321Y0036895D02*
Y0033811D01*
X0002580Y0030044D02*
X0002221D01*
X0007229Y0030378D02*
Y0028982D01*
X0001760Y0027704D02*
X-0002758D01*
X0002189Y0029901D02*
Y0023384D01*
X0001739Y0027315D02*
Y0023384D01*
X-0003045Y0027748D02*
X-0006694D01*
X0001649Y0032314D02*
Y0023384D01*
X0001289Y0025598D02*
Y0025010D01*
X0001661Y0032294D02*
X0001371D01*
X0000537Y0024644D02*
X0000170D01*
X0000679Y0024464D02*
X0000036D01*
X0000119Y0036895D02*
Y0026043D01*
X0001289Y0024598D02*
Y0023384D01*
X0001199Y0024488D02*
Y0023384D01*
X0000839Y0025394D02*
Y0025214D01*
X0001559Y0036895D02*
Y0023384D01*
X0002580Y0029594D02*
X-0000728D01*
X0000839Y0024394D02*
Y0023384D01*
X0000569Y0024582D02*
Y0023384D01*
X0000479Y0036895D02*
Y0023384D01*
X0000389Y0036895D02*
Y0023384D01*
X0000299Y0036895D02*
Y0023384D01*
X-0016216Y0024734D02*
X-0016441D01*
X0000541Y0025634D02*
X0000166D01*
X0001019Y0024396D02*
Y0023384D01*
X-0000421Y0027919D02*
Y0026163D01*
X0000029Y0024459D02*
Y0023384D01*
X-0000331Y0025392D02*
Y0025200D01*
X0000209Y0036895D02*
Y0023384D01*
X0000713Y0026444D02*
X-0000611D01*
X-0000331Y0024392D02*
Y0023384D01*
X-0000601Y0026453D02*
Y0025970D01*
X-0014181Y0026354D02*
X-0014556D01*
X-0002176Y0029954D02*
X-0002749D01*
X-0000622Y0024914D02*
X-0000776D01*
X-0000871Y0025331D02*
Y0025043D01*
X-0014824Y0027164D02*
X-0015488D01*
X-0008249Y0029234D02*
X-0016441D01*
X0002568Y0027344D02*
X0002128D01*
X-0001141Y0024830D02*
Y0023384D01*
X-0001231Y0027362D02*
Y0023384D01*
X-0002221Y0026411D02*
Y0023384D01*
X-0001501Y0027321D02*
Y0023384D01*
X-0001951Y0029642D02*
Y0029373D01*
X-0001591Y0027016D02*
Y0023384D01*
X-0001681Y0026886D02*
Y0023384D01*
X-0014171Y0026444D02*
X-0014567D01*
X-0000691Y0026400D02*
Y0023384D01*
X-0001951Y0026925D02*
Y0023384D01*
X-0012391Y0036884D02*
Y0027448D01*
X-0001595Y0027524D02*
X-0002724D01*
X-0002311Y0026464D02*
Y0023384D01*
X-0002401Y0029041D02*
Y0023384D01*
X-0002491Y0028971D02*
Y0023384D01*
Y0030211D02*
Y0029357D01*
X-0002761Y0027451D02*
Y0023384D01*
X-0002851Y0027386D02*
Y0023384D01*
X-0000728Y0031728D02*
Y0029540D01*
X-0003031Y0027403D02*
Y0023384D01*
X-0003121Y0027412D02*
Y0023384D01*
X-0003211Y0027412D02*
Y0023384D01*
X-0003301Y0027412D02*
Y0023384D01*
X-0003391Y0027412D02*
Y0023384D01*
X-0002949Y0033734D02*
X-0003894D01*
X-0003751Y0027412D02*
Y0025440D01*
X-0003841Y0027412D02*
Y0025440D01*
X-0003931Y0027412D02*
Y0025440D01*
X-0004111Y0027412D02*
Y0025440D01*
X-0004201Y0027412D02*
Y0025440D01*
X-0004291Y0027412D02*
Y0025440D01*
X-0004937Y0033824D02*
X-0005408D01*
X-0004381Y0027412D02*
Y0025440D01*
X-0004471Y0027412D02*
Y0025440D01*
X-0004561Y0027412D02*
Y0025440D01*
X-0004741Y0027412D02*
Y0025440D01*
X-0004831Y0027412D02*
Y0025440D01*
X-0004921Y0027412D02*
Y0025440D01*
X-0005011Y0027412D02*
Y0025440D01*
X-0005684Y0033824D02*
X-0006116D01*
X-0005101Y0027412D02*
Y0025440D01*
X-0005191Y0027412D02*
Y0025440D01*
X-0005281Y0027412D02*
Y0025440D01*
X-0005371Y0027412D02*
Y0025440D01*
X-0005551Y0027412D02*
Y0025440D01*
X-0005641Y0027412D02*
Y0025440D01*
X-0005731Y0027412D02*
Y0025440D01*
X-0006392Y0033824D02*
X-0006824D01*
X-0005821Y0027412D02*
Y0025440D01*
X-0005911Y0027412D02*
Y0025440D01*
X-0006001Y0027412D02*
Y0025440D01*
X-0006091Y0027412D02*
Y0025440D01*
X-0006271Y0027412D02*
Y0025440D01*
X-0002941Y0029761D02*
Y0027787D01*
X-0006361Y0027412D02*
Y0025440D01*
X-0007100Y0033824D02*
X-0016441D01*
X-0010887Y0032272D02*
Y0031144D01*
X-0001588Y0027434D02*
X-0002777D01*
X-0006721Y0027395D02*
Y0025440D01*
X-0006901Y0033471D02*
Y0031170D01*
X-0009691Y0027414D02*
Y0025440D01*
X-0007801Y0031034D02*
X-0008011D01*
X-0008071Y0026314D02*
Y0025657D01*
X-0009257Y0025544D02*
X-0009836D01*
X-0007081Y0033500D02*
Y0031300D01*
X-0007261Y0028048D02*
Y0025440D01*
X-0007531Y0027980D02*
Y0025440D01*
X-0013561Y0036884D02*
Y0023384D01*
X-0010861Y0027155D02*
Y0025793D01*
X-0009241Y0026359D02*
Y0025678D01*
X-0008079Y0026354D02*
X-0008454D01*
X-0008071Y0025520D02*
Y0025440D01*
X-0008794Y0026534D02*
X-0009314D01*
X-0001143Y0025454D02*
X-0008109D01*
X-0008381Y0027974D02*
X-0009727D01*
X-0008341Y0027953D02*
Y0025782D01*
X-0007711Y0026246D02*
Y0025440D01*
X-0008701Y0027353D02*
Y0026579D01*
X-0009061Y0031358D02*
Y0025795D01*
X-0008425Y0025454D02*
X-0008896D01*
X-0011028Y0025634D02*
X-0011608D01*
X-0008521Y0027403D02*
Y0026529D01*
X-0009151Y0031035D02*
Y0025771D01*
X-0009199Y0025440D02*
X-0009893D01*
X-0010952Y0027524D02*
X-0011290D01*
X-0013992Y0028334D02*
X-0016441D01*
X-0008071Y0029194D02*
Y0028806D01*
X-0010940Y0027974D02*
X-0011302D01*
X-0010410Y0026264D02*
X-0011242D01*
X-0009212Y0025454D02*
X-0009881D01*
X-0001037Y0026264D02*
X-0007699D01*
X-0013408Y0023384D02*
X-0016441D01*
X-0013408Y0025440D02*
Y0023384D01*
X-0010411Y0036884D02*
Y0026485D01*
X-0010195Y0025724D02*
X-0010669D01*
X-0012410Y0027344D02*
X-0016441D01*
X-0009472Y0031394D02*
X-0010887D01*
X-0010971Y0025440D02*
X-0011665D01*
X-0003015Y0030674D02*
X-0014951D01*
X-0011591Y0026264D02*
X-0012226D01*
X-0010231Y0026168D02*
Y0025665D01*
X-0010894Y0027164D02*
X-0011348D01*
X-0011221Y0027289D02*
Y0026446D01*
X-0011311Y0027181D02*
Y0026554D01*
X-0010983Y0025724D02*
X-0011653D01*
X-0011955Y0025440D02*
X-0012649D01*
X-0010051Y0036884D02*
Y0026471D01*
X-0011671Y0036884D02*
Y0025742D01*
X-0007347Y0029594D02*
X-0007645D01*
X-0011401Y0027153D02*
Y0026582D01*
X-0012575Y0026264D02*
X-0013013D01*
X-0008431Y0025462D02*
Y0025440D01*
X-0012031Y0027244D02*
Y0025440D01*
X-0012211Y0026291D02*
Y0025440D01*
X-0012121Y0027169D02*
Y0025440D01*
X-0012951Y0025724D02*
X-0013621D01*
X-0012939Y0025440D02*
X-0013408D01*
X-0011851Y0036884D02*
Y0025791D01*
X-0012571Y0036884D02*
Y0026493D01*
X-0012661Y0036884D02*
Y0025747D01*
X-0010321Y0036884D02*
Y0026564D01*
X-0014011Y0027549D02*
Y0027170D01*
X-0013021Y0027630D02*
Y0026499D01*
X-0012931Y0036884D02*
Y0025744D01*
X-0013471Y0036884D02*
Y0023384D01*
X-0013921Y0026175D02*
Y0025738D01*
Y0025438D02*
Y0023384D01*
X-0013384Y0026444D02*
X-0013780D01*
X-0013981Y0025544D02*
X-0014774D01*
X-0013831Y0026226D02*
Y0025789D01*
X-0013921Y0026766D02*
Y0026576D01*
X-0013408Y0023654D02*
X-0014707D01*
X-0000511Y0025495D02*
Y0025097D01*
X-0014191Y0035470D02*
Y0024911D01*
X-0014281Y0035183D02*
Y0025110D01*
X-0014371Y0035031D02*
Y0025240D01*
X-0014461Y0034921D02*
Y0025338D01*
X-0014551Y0034836D02*
Y0025415D01*
X-0014461Y0023829D02*
Y0023384D01*
X-0014551Y0023752D02*
Y0023384D01*
X-0014641Y0023691D02*
Y0023384D01*
X-0014731Y0023642D02*
Y0023384D01*
X-0016150Y0030134D02*
X-0016441D01*
X-0015001Y0029387D02*
Y0025611D01*
X-0015091Y0029328D02*
Y0025623D01*
X-0015181Y0029319D02*
Y0025627D01*
Y0023539D02*
Y0023384D01*
X-0015271Y0023543D02*
Y0023384D01*
X-0015598Y0026174D02*
X-0016441D01*
X-0015451Y0023574D02*
Y0023384D01*
X-0015684Y0026534D02*
X-0016441D01*
X-0015207Y0029324D02*
X-0015893D01*
X-0015811Y0029365D02*
Y0025417D01*
X-0015901Y0029322D02*
Y0025341D01*
X-0015991Y0029323D02*
Y0025244D01*
X-0016261Y0035537D02*
Y0023384D01*
X-0007081Y0036884D02*
Y0033839D01*
X-0016263Y0035714D02*
X-0016441D01*
X-0000516Y0025092D02*
X-0000220Y0024796D01*
X0008860Y0036794D02*
X-0016441D01*
X-0015991Y0023923D02*
Y0023384D01*
X-0016261Y0036884D02*
Y0035735D01*
X0006689Y0023942D02*
Y0023384D01*
X-0015587Y0036614D02*
X-0016441D01*
X0007117Y0036434D02*
X-0014549D01*
X0006913Y0036344D02*
X-0014455D01*
X0006781Y0036254D02*
X-0014380D01*
X0006682Y0036164D02*
X-0014321D01*
X0006605Y0036074D02*
X-0014274D01*
X0006543Y0035984D02*
X-0014238D01*
X0006494Y0035894D02*
X-0014210D01*
X0006456Y0035804D02*
X-0014192D01*
X0006427Y0035714D02*
X-0014181D01*
X0006406Y0035624D02*
X-0014178D01*
X0006394Y0035534D02*
X-0014183D01*
X0006390Y0035444D02*
X-0014196D01*
X0006393Y0035354D02*
X-0014217D01*
X0006405Y0035264D02*
X-0014246D01*
X0006424Y0035174D02*
X-0014286D01*
X0006452Y0035084D02*
X-0014336D01*
X0006490Y0034994D02*
X-0014399D01*
X0006538Y0034904D02*
X-0014478D01*
X0006598Y0034814D02*
X-0014578D01*
X0006673Y0034724D02*
X-0014714D01*
X-0015866Y0034814D02*
X-0016441D01*
X0007089Y0034454D02*
X-0016441D01*
X0008860Y0034364D02*
X-0016441D01*
X0008860Y0034274D02*
X-0016441D01*
X0008860Y0034184D02*
X-0016441D01*
X0008860Y0034094D02*
X-0016441D01*
X0008860Y0034004D02*
X-0016441D01*
X0005249Y0032243D02*
Y0031909D01*
X-0009871Y0032814D02*
Y0028352D01*
X-0009956Y0027974D02*
X-0010712D01*
X-0001662Y0029144D02*
X-0001788D01*
X-0002581Y0030121D02*
Y0029371D01*
X0004079Y0033507D02*
Y0023384D01*
X0005144Y0033464D02*
X0004796D01*
X-0006991D02*
X-0016441D01*
X-0007162Y0030944D02*
X-0007548D01*
X-0007020Y0027614D02*
X-0008461D01*
X0000713Y0026264D02*
X-0000878D01*
X-0009691Y0032785D02*
Y0028290D01*
X-0002133Y0033194D02*
X-0016441D01*
X-0008521Y0032775D02*
Y0027710D01*
X-0009892Y0032834D02*
X-0016441D01*
X-0006963Y0027434D02*
X-0008493D01*
X-0011225Y0032272D02*
Y0031155D01*
X0002621Y0027254D02*
X0002075D01*
X-0008369Y0031124D02*
X-0008584D01*
X-0008264Y0030944D02*
X-0008689D01*
X0003809Y0023483D02*
Y0023384D01*
X-0009381Y0032204D02*
X-0010887D01*
X-0002772Y0032114D02*
X-0008610D01*
X-0009331Y0030925D02*
Y0026547D01*
X-0009511Y0031432D02*
Y0026573D01*
X-0002772Y0031394D02*
X-0008660D01*
X-0002772Y0031304D02*
X-0010887D01*
X0005519Y0036893D02*
Y0023384D01*
X-0013291Y0028361D02*
Y0027933D01*
X-0009421Y0026170D02*
Y0025440D01*
X-0009547Y0031574D02*
X-0010887D01*
X-0009421Y0030953D02*
Y0026581D01*
X-0016081Y0030551D02*
Y0030270D01*
X-0015091Y0030509D02*
Y0030312D01*
X-0015991Y0034930D02*
Y0030908D01*
X-0015271Y0034593D02*
Y0030878D01*
X-0002835Y0030854D02*
X-0010936D01*
X-0015286Y0029954D02*
X-0015813D01*
X-0015181Y0029909D02*
Y0029731D01*
X-0002774Y0029144D02*
X-0016441D01*
X-0010951Y0036884D02*
Y0032571D01*
X-0015901Y0029912D02*
Y0029728D01*
X-0006901Y0027391D02*
Y0025440D01*
X0000736Y0032204D02*
X-0002391D01*
X-0007981Y0029242D02*
Y0026553D01*
X-0016138Y0030044D02*
X-0016441D01*
X-0008181Y0029594D02*
X-0014961D01*
X-0001321Y0027300D02*
Y0023384D01*
X0000659Y0025480D02*
Y0025128D01*
X0007409Y0023544D02*
Y0023384D01*
X-0002041Y0028968D02*
Y0026777D01*
X-0007995Y0029774D02*
X-0016441D01*
X-0008071Y0028078D02*
Y0026437D01*
X-0013936Y0025454D02*
X-0014606D01*
X-0013381Y0036884D02*
Y0028615D01*
X-0000061Y0025408D02*
Y0025184D01*
X-0013201Y0026169D02*
Y0025440D01*
X-0013327Y0028694D02*
X-0013836D01*
X-0013385Y0028604D02*
X-0013778D01*
X-0011506Y0028334D02*
X-0013171D01*
X-0010032Y0028064D02*
X-0010636D01*
X-0014147Y0028424D02*
X-0016441D01*
X-0013291Y0026196D02*
Y0025440D01*
X-0013831Y0026817D02*
Y0026525D01*
X-0013349Y0027884D02*
X-0013814D01*
X-0001104Y0030764D02*
X-0002012D01*
X-0013391Y0027794D02*
X-0013772D01*
X-0012211Y0027152D02*
Y0026460D01*
X-0012301Y0036884D02*
Y0027542D01*
X-0001771Y0026854D02*
Y0023384D01*
X-0013408Y0023564D02*
X-0014957D01*
X-0011610Y0027434D02*
X-0012010D01*
X-0014129Y0027614D02*
X-0016441D01*
X-0008297Y0029504D02*
X-0014950D01*
X-0014150Y0026264D02*
X-0014588D01*
X-0013408Y0024644D02*
X-0014140D01*
X-0014940Y0027074D02*
X-0015373D01*
X-0008007Y0026534D02*
X-0008527D01*
X-0016351Y0036884D02*
Y0023384D01*
X-0015631Y0026775D02*
Y0026566D01*
X-0000511Y0027896D02*
Y0026097D01*
X0000659Y0028898D02*
Y0026128D01*
X-0001051Y0025332D02*
Y0025042D01*
X-0014011Y0026762D02*
Y0026580D01*
X0008860Y0031664D02*
X0005435D01*
X0000659Y0024480D02*
Y0023384D01*
X-0015725Y0026264D02*
X-0016441D01*
X-0013651Y0025424D02*
Y0023384D01*
X0006770Y0034634D02*
X-0014929D01*
X-0016171Y0035202D02*
Y0024919D01*
X-0016081Y0024052D02*
Y0023384D01*
X-0015756Y0026354D02*
X-0016441D01*
X-0010431Y0026444D02*
X-0011221D01*
X-0013408Y0025364D02*
X-0014489D01*
X-0013408Y0025274D02*
X-0014400D01*
X-0013408Y0025184D02*
X-0014329D01*
X-0013408Y0025094D02*
X-0014272D01*
X-0013408Y0025004D02*
X-0014227D01*
X-0013408Y0024914D02*
X-0014192D01*
X-0013408Y0024824D02*
X-0014167D01*
X-0013408Y0024734D02*
X-0014150D01*
X-0010241Y0025544D02*
X-0010623D01*
X-0013408Y0024554D02*
X-0014139D01*
X-0013408Y0024464D02*
X-0014145D01*
X-0013408Y0024374D02*
X-0014160D01*
X-0013408Y0024284D02*
X-0014182D01*
X-0013408Y0024194D02*
X-0014214D01*
X-0013408Y0024104D02*
X-0014255D01*
X-0013408Y0024014D02*
X-0014307D01*
X-0013408Y0023924D02*
X-0014373D01*
X-0013408Y0023834D02*
X-0014456D01*
X-0015803Y0023744D02*
X-0016441D01*
X0008860Y0036884D02*
X-0004091D01*
X-0016090Y0030262D02*
X-0015944Y0030115D01*
X-0015797Y0029969D02*
X-0015944Y0030115D01*
X-0016090Y0029969D02*
X-0015944Y0030115D01*
X-0015797Y0030262D02*
X-0015944Y0030115D01*
X-0015303Y0030262D02*
X-0015156Y0030115D01*
X-0015010Y0029969D02*
X-0015156Y0030115D01*
X-0015303Y0029969D02*
X-0015156Y0030115D01*
X-0015010Y0030262D02*
X-0015156Y0030115D01*
X-0015303Y0029672D02*
X-0015156Y0029525D01*
X-0015010Y0029378D02*
X-0015156Y0029525D01*
X-0015303Y0029378D02*
X-0015156Y0029525D01*
X-0015010Y0029672D02*
X-0015156Y0029525D01*
X-0016090Y0029672D02*
X-0015944Y0029525D01*
X-0015797Y0029378D02*
X-0015944Y0029525D01*
X-0016090Y0029378D02*
X-0015944Y0029525D01*
X-0015797Y0029672D02*
X-0015944Y0029525D01*
X-0014909Y0027113D02*
X-0014763Y0026966D01*
X-0014616Y0026819D02*
X-0014763Y0026966D01*
X-0014909Y0026819D02*
X-0014763Y0026966D01*
X-0014616Y0027113D02*
X-0014763Y0026966D01*
X-0014122Y0027113D02*
X-0013975Y0026966D01*
X-0013829Y0026819D02*
X-0013975Y0026966D01*
X-0014122Y0026819D02*
X-0013975Y0026966D01*
X-0013829Y0027113D02*
X-0013975Y0026966D01*
X-0014122Y0028687D02*
X-0013975Y0028541D01*
X-0013829Y0028394D02*
X-0013975Y0028541D01*
X-0014122Y0028394D02*
X-0013975Y0028541D01*
X-0013829Y0028687D02*
X-0013975Y0028541D01*
X-0014122Y0027900D02*
X-0013975Y0027753D01*
X-0013829Y0027607D02*
X-0013975Y0027753D01*
X-0014122Y0027607D02*
X-0013975Y0027753D01*
X-0013829Y0027900D02*
X-0013975Y0027753D01*
X-0013335Y0027900D02*
X-0013188Y0027753D01*
X-0013041Y0027607D02*
X-0013188Y0027753D01*
X-0013335Y0027607D02*
X-0013188Y0027753D01*
X-0013041Y0027900D02*
X-0013188Y0027753D01*
X-0011563Y0028294D02*
X-0011416Y0028147D01*
X-0011270Y0028000D02*
X-0011416Y0028147D01*
X-0011563Y0028000D02*
X-0011416Y0028147D01*
X-0011270Y0028294D02*
X-0011416Y0028147D01*
X-0002902Y0033805D02*
X-0002756Y0033658D01*
X-0002609Y0033512D02*
X-0002756Y0033658D01*
X-0002902Y0033512D02*
X-0002756Y0033658D01*
X-0002609Y0033805D02*
X-0002756Y0033658D01*
X-0002115Y0033215D02*
X-0001968Y0033068D01*
X-0001822Y0032921D02*
X-0001968Y0033068D01*
X-0002115Y0032921D02*
X-0001968Y0033068D01*
X-0001822Y0033215D02*
X-0001968Y0033068D01*
X-0002115Y0033805D02*
X-0001968Y0033658D01*
X-0001822Y0033512D02*
X-0001968Y0033658D01*
X-0002115Y0033512D02*
X-0001968Y0033658D01*
X-0001822Y0033805D02*
X-0001968Y0033658D01*
X0005085Y0031181D02*
X0005231Y0031034D01*
X0005378Y0030887D02*
X0005231Y0031034D01*
X0005085Y0030887D02*
X0005231Y0031034D01*
X0005378Y0031181D02*
X0005231Y0031034D01*
X0003790Y0033805D02*
X0003937Y0033658D01*
X0004083Y0033512D02*
X0003937Y0033658D01*
X0003790Y0033512D02*
X0003937Y0033658D01*
X0004083Y0033805D02*
X0003937Y0033658D01*
X0004577Y0033805D02*
X0004724Y0033658D01*
X0004871Y0033512D02*
X0004724Y0033658D01*
X0004577Y0033512D02*
X0004724Y0033658D01*
X0004871Y0033805D02*
X0004724Y0033658D01*
X0005085Y0033423D02*
X0005231Y0033276D01*
X0005378Y0033129D02*
X0005231Y0033276D01*
X0005085Y0033129D02*
X0005231Y0033276D01*
X0005378Y0033423D02*
X0005231Y0033276D01*
X0005085Y0032597D02*
X0005231Y0032450D01*
X0005378Y0032303D02*
X0005231Y0032450D01*
X0005085Y0032303D02*
X0005231Y0032450D01*
X0005378Y0032597D02*
X0005231Y0032450D01*
X-0001328Y0033805D02*
X-0001181Y0033658D01*
X-0001034Y0033512D02*
X-0001181Y0033658D01*
X-0001328Y0033512D02*
X-0001181Y0033658D01*
X-0001034Y0033805D02*
X-0001181Y0033658D01*
X0005085Y0031849D02*
X0005231Y0031703D01*
X0005378Y0031556D02*
X0005231Y0031703D01*
X0005085Y0031556D02*
X0005231Y0031703D01*
X0005378Y0031849D02*
X0005231Y0031703D01*
X-0008020Y0026522D02*
X-0007873Y0026376D01*
X-0007727Y0026229D02*
X-0007873Y0026376D01*
X-0008020Y0026229D02*
X-0007873Y0026376D01*
X-0007727Y0026522D02*
X-0007873Y0026376D01*
X-0010185Y0025735D02*
X-0010039Y0025588D01*
X-0009892Y0025442D02*
X-0010039Y0025588D01*
X-0010185Y0025442D02*
X-0010039Y0025588D01*
X-0009892Y0025735D02*
X-0010039Y0025588D01*
X-0013335Y0028687D02*
X-0013188Y0028541D01*
X-0013041Y0028394D02*
X-0013188Y0028541D01*
X-0013335Y0028394D02*
X-0013188Y0028541D01*
X-0013041Y0028687D02*
X-0013188Y0028541D01*
X-0008807Y0026522D02*
X-0008661Y0026376D01*
X-0008514Y0026229D02*
X-0008661Y0026376D01*
X-0008807Y0026229D02*
X-0008661Y0026376D01*
X-0008514Y0026522D02*
X-0008661Y0026376D01*
X-0009201Y0025735D02*
X-0009054Y0025588D01*
X-0008908Y0025442D02*
X-0009054Y0025588D01*
X-0009201Y0025442D02*
X-0009054Y0025588D01*
X-0008908Y0025735D02*
X-0009054Y0025588D01*
X-0008414Y0025735D02*
X-0008267Y0025588D01*
X-0008120Y0025442D02*
X-0008267Y0025588D01*
X-0008414Y0025442D02*
X-0008267Y0025588D01*
X-0008120Y0025735D02*
X-0008267Y0025588D01*
X-0012350Y0027506D02*
X-0012204Y0027360D01*
X-0012057Y0027213D02*
X-0012204Y0027360D01*
X-0012350Y0027213D02*
X-0012204Y0027360D01*
X-0012057Y0027506D02*
X-0012204Y0027360D01*
X-0009595Y0026522D02*
X-0009448Y0026376D01*
X-0009301Y0026229D02*
X-0009448Y0026376D01*
X-0009595Y0026229D02*
X-0009448Y0026376D01*
X-0009301Y0026522D02*
X-0009448Y0026376D01*
X-0010973Y0025735D02*
X-0010826Y0025588D01*
X-0010679Y0025442D02*
X-0010826Y0025588D01*
X-0010973Y0025442D02*
X-0010826Y0025588D01*
X-0010679Y0025735D02*
X-0010826Y0025588D01*
X-0011957Y0025735D02*
X-0011810Y0025588D01*
X-0011663Y0025442D02*
X-0011810Y0025588D01*
X-0011957Y0025442D02*
X-0011810Y0025588D01*
X-0011663Y0025735D02*
X-0011810Y0025588D01*
X-0012941Y0025735D02*
X-0012794Y0025588D01*
X-0012648Y0025442D02*
X-0012794Y0025588D01*
X-0012941Y0025442D02*
X-0012794Y0025588D01*
X-0012648Y0025735D02*
X-0012794Y0025588D01*
X-0013925Y0025735D02*
X-0013778Y0025588D01*
X-0013632Y0025442D02*
X-0013778Y0025588D01*
X-0013925Y0025442D02*
X-0013778Y0025588D01*
X-0013632Y0025735D02*
X-0013778Y0025588D01*
X-0008414Y0028884D02*
X-0008267Y0028738D01*
X-0008120Y0028591D02*
X-0008267Y0028738D01*
X-0008414Y0028591D02*
X-0008267Y0028738D01*
X-0008120Y0028884D02*
X-0008267Y0028738D01*
X-0010382Y0026522D02*
X-0010235Y0026376D01*
X-0010089Y0026229D02*
X-0010235Y0026376D01*
X-0010382Y0026229D02*
X-0010235Y0026376D01*
X-0010089Y0026522D02*
X-0010235Y0026376D01*
X-0011563Y0026522D02*
X-0011416Y0026376D01*
X-0011270Y0026229D02*
X-0011416Y0026376D01*
X-0011563Y0026229D02*
X-0011416Y0026376D01*
X-0011270Y0026522D02*
X-0011416Y0026376D01*
X-0012547Y0026522D02*
X-0012401Y0026376D01*
X-0012254Y0026229D02*
X-0012401Y0026376D01*
X-0012547Y0026229D02*
X-0012401Y0026376D01*
X-0012254Y0026522D02*
X-0012401Y0026376D01*
X-0013335Y0026522D02*
X-0013188Y0026376D01*
X-0013041Y0026229D02*
X-0013188Y0026376D01*
X-0013335Y0026229D02*
X-0013188Y0026376D01*
X-0013041Y0026522D02*
X-0013188Y0026376D01*
X-0014122Y0026522D02*
X-0013975Y0026376D01*
X-0013829Y0026229D02*
X-0013975Y0026376D01*
X-0014122Y0026229D02*
X-0013975Y0026376D01*
X-0013829Y0026522D02*
X-0013975Y0026376D01*
X0003667Y0027571D02*
X0003800Y0027438D01*
X0003933Y0027305D02*
X0003800Y0027438D01*
X0003667Y0027305D02*
X0003800Y0027438D01*
X0003933Y0027571D02*
X0003800Y0027438D01*
X-0001093Y0025011D02*
X-0000960Y0024878D01*
X-0000827Y0024745D02*
X-0000960Y0024878D01*
X-0001093Y0024745D02*
X-0000960Y0024878D01*
X-0000827Y0025011D02*
X-0000960Y0024878D01*
X-0001093Y0025629D02*
X-0000960Y0025496D01*
X-0000827Y0025363D02*
X-0000960Y0025496D01*
X-0001093Y0025363D02*
X-0000960Y0025496D01*
X-0000827Y0025629D02*
X-0000960Y0025496D01*
X-0001091Y0026227D02*
X-0000958Y0026094D01*
X-0000825Y0025961D02*
X-0000958Y0026094D01*
X-0001091Y0025961D02*
X-0000958Y0026094D01*
X-0000825Y0026227D02*
X-0000958Y0026094D01*
X0005045Y0025595D02*
X0005192Y0025449D01*
X0005339Y0025302D02*
X0005192Y0025449D01*
X0005045Y0025302D02*
X0005192Y0025449D01*
X0005339Y0025595D02*
X0005192Y0025449D01*
X0004597Y0026257D02*
X0004744Y0026110D01*
X0004891Y0025963D02*
X0004744Y0026110D01*
X0004597Y0025963D02*
X0004744Y0026110D01*
X0004891Y0026257D02*
X0004744Y0026110D01*
X0005124Y0026539D02*
X0005271Y0026393D01*
X0005417Y0026246D02*
X0005271Y0026393D01*
X0005124Y0026246D02*
X0005271Y0026393D01*
X0005417Y0026539D02*
X0005271Y0026393D01*
X0004593Y0026927D02*
X0004740Y0026780D01*
X0004887Y0026633D02*
X0004740Y0026780D01*
X0004593Y0026633D02*
X0004740Y0026780D01*
X0004887Y0026927D02*
X0004740Y0026780D01*
X0003633Y0023835D02*
X0003780Y0023688D01*
X0003927Y0023541D02*
X0003780Y0023688D01*
X0003633Y0023541D02*
X0003780Y0023688D01*
X0003927Y0023835D02*
X0003780Y0023688D01*
X0003633Y0024465D02*
X0003780Y0024318D01*
X0003927Y0024171D02*
X0003780Y0024318D01*
X0003633Y0024171D02*
X0003780Y0024318D01*
X0003927Y0024465D02*
X0003780Y0024318D01*
X0004323Y0024457D02*
X0004470Y0024310D01*
X0004617Y0024163D02*
X0004470Y0024310D01*
X0004323Y0024163D02*
X0004470Y0024310D01*
X0004617Y0024457D02*
X0004470Y0024310D01*
X0004329Y0023875D02*
X0004476Y0023728D01*
X0004623Y0023581D02*
X0004476Y0023728D01*
X0004329Y0023581D02*
X0004476Y0023728D01*
X0004623Y0023875D02*
X0004476Y0023728D01*
X0004333Y0025025D02*
X0004480Y0024878D01*
X0004627Y0024731D02*
X0004480Y0024878D01*
X0004333Y0024731D02*
X0004480Y0024878D01*
X0004627Y0025025D02*
X0004480Y0024878D01*
X0004329Y0025581D02*
X0004476Y0025434D01*
X0004623Y0025287D02*
X0004476Y0025434D01*
X0004329Y0025287D02*
X0004476Y0025434D01*
X0004623Y0025581D02*
X0004476Y0025434D01*
X0002921Y0023879D02*
X0003068Y0023732D01*
X0003215Y0023585D02*
X0003068Y0023732D01*
X0002921Y0023585D02*
X0003068Y0023732D01*
X0003215Y0023879D02*
X0003068Y0023732D01*
X0002923Y0024465D02*
X0003070Y0024318D01*
X0003217Y0024171D02*
X0003070Y0024318D01*
X0002923Y0024171D02*
X0003070Y0024318D01*
X0003217Y0024465D02*
X0003070Y0024318D01*
X0002923Y0025017D02*
X0003070Y0024870D01*
X0003217Y0024723D02*
X0003070Y0024870D01*
X0002923Y0024723D02*
X0003070Y0024870D01*
X0003217Y0025017D02*
X0003070Y0024870D01*
X0002923Y0025555D02*
X0003070Y0025408D01*
X0003217Y0025261D02*
X0003070Y0025408D01*
X0002923Y0025261D02*
X0003070Y0025408D01*
X0003217Y0025555D02*
X0003070Y0025408D01*
X-0000871Y0026715D02*
X-0000738Y0026582D01*
X-0000605Y0026449D02*
X-0000738Y0026582D01*
X-0000871Y0026449D02*
X-0000738Y0026582D01*
X-0000605Y0026715D02*
X-0000738Y0026582D01*
X-0002311Y0026757D02*
X-0002164Y0026610D01*
X-0002017Y0026463D02*
X-0002164Y0026610D01*
X-0002311Y0026463D02*
X-0002164Y0026610D01*
X-0002017Y0026757D02*
X-0002164Y0026610D01*
X-0001941Y0027207D02*
X-0001794Y0027060D01*
X-0001647Y0026913D02*
X-0001794Y0027060D01*
X-0001941Y0026913D02*
X-0001794Y0027060D01*
X-0001647Y0027207D02*
X-0001794Y0027060D01*
X-0001537Y0027643D02*
X-0001390Y0027496D01*
X-0001243Y0027349D02*
X-0001390Y0027496D01*
X-0001537Y0027349D02*
X-0001390Y0027496D01*
X-0001243Y0027643D02*
X-0001390Y0027496D01*
X-0002715Y0029311D02*
X-0002568Y0029164D01*
X-0002421Y0029017D02*
X-0002568Y0029164D01*
X-0002715Y0029017D02*
X-0002568Y0029164D01*
X-0002421Y0029311D02*
X-0002568Y0029164D01*
X-0002147Y0029991D02*
X-0002000Y0029844D01*
X-0001853Y0029697D02*
X-0002000Y0029844D01*
X-0002147Y0029697D02*
X-0002000Y0029844D01*
X-0001853Y0029991D02*
X-0002000Y0029844D01*
X-0002141Y0029317D02*
X-0001994Y0029170D01*
X-0001847Y0029023D02*
X-0001994Y0029170D01*
X-0002141Y0029023D02*
X-0001994Y0029170D01*
X-0001847Y0029317D02*
X-0001994Y0029170D01*
X-0001605Y0029325D02*
X-0001458Y0029178D01*
X-0001311Y0029031D02*
X-0001458Y0029178D01*
X-0001605Y0029031D02*
X-0001458Y0029178D01*
X-0001311Y0029325D02*
X-0001458Y0029178D01*
X0001185Y0029245D02*
X0001332Y0029098D01*
X0001479Y0028951D02*
X0001332Y0029098D01*
X0001185Y0028951D02*
X0001332Y0029098D01*
X0001479Y0029245D02*
X0001332Y0029098D01*
X0000565Y0029245D02*
X0000712Y0029098D01*
X0000859Y0028951D02*
X0000712Y0029098D01*
X0000565Y0028951D02*
X0000712Y0029098D01*
X0000859Y0029245D02*
X0000712Y0029098D01*
X-0000251Y0028610D02*
X-0000118Y0028477D01*
X0000015Y0028345D02*
X-0000118Y0028477D01*
X0000015Y0028610D02*
X-0000118Y0028477D01*
X-0008575Y0025440D02*
Y0024347D01*
X-0013408D02*
X-0008575D01*
X-0003741D02*
X-0008575D01*
X0007986Y0027098D02*
X0007631Y0026743D01*
X0007275Y0026387D02*
X0007631Y0026743D01*
X0007275Y0027098D02*
X0007631Y0026743D01*
X0007986Y0026387D02*
X0007631Y0026743D01*
X0000628Y0024508D02*
X0000924Y0024804D01*
X0001220Y0025100D02*
X0000924Y0024804D01*
X0001220Y0024508D02*
X0000924Y0024804D01*
X0000628Y0025100D02*
X0000924Y0024804D01*
X-0000516Y0024500D02*
X-0000220Y0024796D01*
X0000076Y0025092D02*
X-0000220Y0024796D01*
X0000076Y0024500D02*
X-0000220Y0024796D01*
X0007589Y0023542D02*
Y0023384D01*
X-0001104Y0031034D02*
X-0002012D01*
X-0006870Y0029540D02*
X-0007093Y0029318D01*
X-0001104Y0031484D02*
X-0001995D01*
X-0002851Y0033474D02*
Y0030838D01*
X-0002581Y0033546D02*
Y0032487D01*
X0000659Y0036895D02*
Y0032735D01*
X-0002311Y0036895D02*
Y0031627D01*
X-0002772Y0030918D02*
X-0003390Y0030300D01*
X-0003375Y0030314D02*
X-0015097D01*
X-0003661Y0036888D02*
Y0030300D01*
X-0002761Y0029941D02*
Y0029239D01*
X-0007531Y0030953D02*
Y0030238D01*
X-0001104Y0030404D02*
X-0002299D01*
X0000713Y0026804D02*
X-0002091D01*
X0008860Y0032204D02*
X0002296D01*
X-0002763Y0029234D02*
X-0007149D01*
X-0007711Y0030943D02*
Y0030058D01*
X-0002491Y0036895D02*
Y0032465D01*
X-0004263Y0033554D02*
X-0004626D01*
X-0002131Y0032940D02*
Y0031648D01*
X-0007485Y0029324D02*
X-0007915D01*
X-0009961Y0036884D02*
Y0028316D01*
X-0007633Y0028694D02*
X-0008064D01*
X-0007261Y0029182D02*
Y0028867D01*
X-0007314Y0029924D02*
X-0007934Y0029305D01*
X-0006901Y0031055D02*
Y0030300D01*
X-0007545Y0030224D02*
X-0014980D01*
X-0007427Y0029234D02*
X-0007991D01*
X-0006811Y0033527D02*
Y0030300D01*
X-0007460Y0029504D02*
X-0007735D01*
X-0007621Y0029617D02*
Y0028841D01*
X-0007578Y0028604D02*
X-0008108D01*
X-0008161Y0029193D02*
Y0028916D01*
Y0030926D02*
Y0029608D01*
X-0007531Y0029707D02*
Y0028936D01*
X-0008071Y0030961D02*
Y0029698D01*
X-0001104Y0030494D02*
X-0002209D01*
X-0002772Y0032192D02*
Y0030918D01*
X-0002221Y0036895D02*
Y0031658D01*
X-0001104Y0030584D02*
X-0002119D01*
X-0008854Y0030944D02*
X-0009240D01*
X-0002041Y0030668D02*
Y0030047D01*
X-0002851Y0029851D02*
Y0027774D01*
X-0002041Y0033464D02*
X-0002683D01*
X-0003390Y0030300D02*
X-0007392D01*
X-0007801Y0031035D02*
Y0029968D01*
X-0003031Y0029671D02*
Y0027757D01*
X-0008251Y0029235D02*
Y0028944D01*
X-0002131Y0026405D02*
Y0023384D01*
X-0007621Y0030925D02*
Y0030148D01*
X-0002744Y0029054D02*
X-0016441D01*
X-0007351Y0029190D02*
Y0028943D01*
X-0006451Y0029540D02*
Y0027748D01*
X-0006991Y0029419D02*
Y0027691D01*
X-0003312Y0029924D02*
X-0007314D01*
X-0007351Y0029887D02*
Y0029590D01*
X-0006541Y0029540D02*
Y0027748D01*
X-0007261Y0031064D02*
Y0030300D01*
X-0006361Y0029540D02*
Y0027748D01*
X-0009404Y0030944D02*
X-0010867D01*
X-0003571Y0029540D02*
Y0027748D01*
X-0010049Y0028154D02*
X-0010619D01*
X0008860Y0027884D02*
X0002956D01*
X-0009510Y0032564D02*
X-0010940D01*
X0008860Y0029684D02*
X0002956D01*
X0002729Y0027196D02*
Y0023384D01*
X0003633Y0027524D02*
X0002956D01*
X-0002772Y0030944D02*
X-0006998D01*
X-0009061Y0032263D02*
Y0032204D01*
X0008860Y0028334D02*
X0007995D01*
X-0010501Y0036884D02*
Y0025440D01*
X-0011221Y0036884D02*
Y0032517D01*
X-0011131Y0036884D02*
Y0032585D01*
X-0011225Y0031214D02*
X-0016441D01*
X-0011491Y0027954D02*
Y0027553D01*
X0002819Y0027199D02*
Y0023384D01*
X0001175Y0029234D02*
X0000868D01*
X0002580Y0028604D02*
X0002096D01*
X-0010861Y0032321D02*
Y0031089D01*
X0002909Y0027248D02*
Y0025538D01*
X0002458Y0030845D02*
X0002580Y0030722D01*
X0002099Y0029033D02*
Y0028709D01*
X0007252Y0027074D02*
X0001127D01*
X0002321Y0031034D02*
X0002204D01*
X0007139Y0034438D02*
Y0030783D01*
X-0003741Y0025440D02*
Y0023384D01*
X0007210Y0030404D02*
X0002956D01*
X0002436Y0030854D02*
X0002204D01*
X0005128Y0031214D02*
X0002641D01*
X0002580Y0028752D02*
Y0027488D01*
X0002723Y0031110D02*
X0002899Y0030934D01*
X-0011263Y0032384D02*
X-0016441D01*
X-0011225Y0031484D02*
X-0016441D01*
X0007164Y0030494D02*
X0002956D01*
X0007198Y0028424D02*
X0002956D01*
X0002539Y0030764D02*
X0002204D01*
X0005069Y0030905D02*
Y0026439D01*
X0008860Y0029504D02*
X0002956D01*
X0002580Y0028514D02*
X0002096D01*
X-0001104Y0029684D02*
X-0001868D01*
X0002580D02*
X-0000728D01*
X0001760Y0028514D02*
X0000066D01*
X0001760Y0028604D02*
X0000020D01*
X0001199Y0032139D02*
Y0029257D01*
X0001764Y0028964D02*
X0001490D01*
X0001760Y0027974D02*
X0000034D01*
X0001760Y0028064D02*
X0000069D01*
X0002580Y0027794D02*
X0002096D01*
X0002580Y0027884D02*
X0002096D01*
X0008860Y0029414D02*
X0002956D01*
X0002819Y0036895D02*
Y0031015D01*
X0001875Y0029864D02*
X-0000728D01*
X0001760Y0028684D02*
Y0027521D01*
X0003637Y0027344D02*
X0002968D01*
X0008860Y0031304D02*
X0002204D01*
X0001919Y0027193D02*
Y0023384D01*
X0002580Y0029954D02*
X0002214D01*
X0002580Y0027974D02*
X0002096D01*
X0001760Y0027524D02*
X-0001184D01*
X0002580Y0029054D02*
X0002112D01*
X0001764Y0029034D02*
Y0028688D01*
X0007499Y0023539D02*
Y0023384D01*
X0001828Y0031844D02*
X-0000710D01*
X0002459Y0036895D02*
Y0031235D01*
X0001810Y0030044D02*
X-0000728D01*
X-0003318Y0029916D02*
X-0006948D01*
X0002580Y0029144D02*
X0002139D01*
X0001828Y0032141D02*
Y0030104D01*
X0002369Y0030907D02*
Y0023384D01*
X0001828Y0030134D02*
X-0000728D01*
X0002956Y0028752D02*
Y0027488D01*
X0001723Y0027434D02*
X0001075D01*
X0008860Y0027344D02*
X0003962D01*
X0001760Y0027614D02*
X-0001219D01*
X-0016111Y0030584D02*
X-0016441D01*
X0007139Y0026640D02*
Y0025558D01*
X0002204Y0032141D02*
Y0030104D01*
X0003629Y0027361D02*
Y0024460D01*
X0001828Y0031934D02*
X-0000745D01*
X-0003571Y0036889D02*
Y0030300D01*
X0001828Y0030224D02*
X-0000728D01*
X0001828Y0030404D02*
X-0000728D01*
X0001828Y0030494D02*
X-0000728D01*
X0001828Y0030584D02*
X-0000728D01*
X-0010887Y0032272D02*
Y0031144D01*
X0007134Y0028604D02*
X0002956D01*
X-0007238Y0031214D02*
X-0007473D01*
X-0008251Y0030938D02*
Y0029556D01*
X0002580Y0028424D02*
X0002096D01*
X-0011267Y0031034D02*
X-0016441D01*
X0001829Y0027218D02*
Y0023384D01*
X-0011041Y0036884D02*
Y0032599D01*
X-0006631Y0036884D02*
Y0030300D01*
X0007167Y0028874D02*
X0002972D01*
X0008860Y0029774D02*
X0002956D01*
X0007156Y0028514D02*
X0002956D01*
X-0002772Y0031844D02*
X-0008699D01*
X-0016143Y0030764D02*
X-0016441D01*
X-0003240Y0029540D02*
X-0006870D01*
X-0006991Y0027469D02*
Y0025440D01*
X0001109Y0025428D02*
Y0025180D01*
X0000595Y0025544D02*
X0000115D01*
X0005159Y0025244D02*
Y0023384D01*
X0001289Y0028895D02*
Y0026010D01*
X0001739Y0032202D02*
Y0029231D01*
X-0015352Y0029594D02*
X-0015748D01*
X-0001114Y0031754D02*
X-0002396D01*
X0003089Y0024111D02*
Y0023938D01*
X0004439Y0024675D02*
Y0024515D01*
X0000505Y0025814D02*
X0000199D01*
X0000517Y0025904D02*
X0000185D01*
X0000612Y0026084D02*
X0000084D01*
X0002913Y0025544D02*
X0001252D01*
X0004547Y0026174D02*
X0001127D01*
X-0015591Y0025544D02*
X-0016441D01*
X0000929Y0025385D02*
Y0025223D01*
X0005035Y0032384D02*
X0002414D01*
X0005025Y0032474D02*
X0002433D01*
X-0001951Y0028967D02*
Y0027195D01*
X0000713Y0027074D02*
X-0001587D01*
X0000839Y0028934D02*
Y0027487D01*
X0001019Y0032097D02*
Y0027478D01*
X0000509Y0029054D02*
X-0001292D01*
X0001760Y0028424D02*
X0000062D01*
X-0001117Y0029504D02*
X-0006907D01*
X0003735Y0027614D02*
X0002956D01*
X-0011225Y0031754D02*
X-0016441D01*
X-0001104Y0029774D02*
X-0001805D01*
X-0000781Y0036895D02*
Y0031974D01*
X0005028Y0031664D02*
X0002204D01*
X0001751Y0029054D02*
X0001535D01*
X0002580Y0029324D02*
X0002053D01*
X-0008431Y0032785D02*
Y0028864D01*
X-0002941Y0027373D02*
Y0023384D01*
X-0001560Y0027614D02*
X-0002719D01*
X-0003481Y0027412D02*
Y0023384D01*
X-0003661Y0029540D02*
Y0027748D01*
X-0009507Y0031664D02*
X-0010887D01*
X-0008701Y0031371D02*
Y0031287D01*
X-0008881Y0031393D02*
Y0031265D01*
X-0009421Y0036884D02*
Y0032628D01*
X-0009331Y0031832D02*
Y0031731D01*
X-0008791Y0031359D02*
Y0031299D01*
X-0008881Y0031865D02*
Y0031697D01*
X-0009511Y0031904D02*
Y0031658D01*
X-0008611Y0036884D02*
Y0033109D01*
X-0008881Y0036884D02*
Y0032602D01*
X-0009241Y0036884D02*
Y0032594D01*
X-0009119Y0031844D02*
X-0009289D01*
X-0009151Y0031389D02*
Y0031191D01*
X-0009158Y0031394D02*
X-0009250D01*
X-0007616Y0028064D02*
X-0008077D01*
X-0009421Y0032272D02*
Y0032195D01*
X0002580Y0028154D02*
X0002096D01*
X-0000663Y0027974D02*
X-0007348D01*
X-0013394Y0028514D02*
X-0013770D01*
X0001760Y0028334D02*
X0000062D01*
X-0002772Y0031934D02*
X-0008603D01*
X-0008876Y0032294D02*
X-0008942D01*
X-0000691Y0028227D02*
Y0028137D01*
X-0009241Y0032306D02*
Y0032162D01*
X-0009331Y0032265D02*
Y0032203D01*
X-0000695Y0028244D02*
X-0007243D01*
X-0000601Y0036895D02*
Y0028642D01*
X-0008611Y0032352D02*
Y0032115D01*
X-0009151Y0032294D02*
X-0009257D01*
X-0007494Y0029414D02*
X-0007825D01*
X0002580Y0027524D02*
X0002096D01*
X0000620Y0032654D02*
X-0016441D01*
X-0006811Y0029540D02*
Y0027787D01*
X-0000331Y0027897D02*
Y0026200D01*
X-0000691Y0028424D02*
Y0028334D01*
X-0001591Y0029019D02*
Y0027545D01*
X0001760Y0028154D02*
X0000056D01*
X-0009151Y0036884D02*
Y0032606D01*
X0000029Y0036895D02*
Y0028594D01*
X-0009421Y0031839D02*
Y0031723D01*
X-0008791Y0031831D02*
Y0031732D01*
X-0008881Y0032298D02*
Y0032169D01*
X-0009511Y0032337D02*
Y0032130D01*
X0008860Y0025994D02*
X0004916D01*
X0007142Y0026624D02*
X0004876D01*
X0008860Y0025904D02*
X0004767D01*
X0007139Y0028577D02*
Y0026846D01*
X0004720Y0025904D02*
X0001331D01*
X0007173Y0026534D02*
X0005422D01*
X0007227Y0026444D02*
X0005471D01*
X-0002671Y0028984D02*
Y0023384D01*
X-0006541Y0027412D02*
Y0025440D01*
X0007478Y0026264D02*
X0005433D01*
X0004889Y0025961D02*
Y0023384D01*
X0005429Y0030970D02*
Y0026527D01*
X0007356Y0027164D02*
X0001127D01*
X0000713Y0026894D02*
X-0001670D01*
X0007189Y0026984D02*
X0004777D01*
X0007312Y0026354D02*
X0005474D01*
X0004619Y0025945D02*
Y0025584D01*
X0007159Y0030854D02*
X0005334D01*
X0007132Y0026804D02*
X0004946D01*
X0004709Y0036895D02*
Y0033865D01*
X0004619Y0033480D02*
Y0026948D01*
X0003989Y0033458D02*
Y0023384D01*
X0004349Y0024142D02*
Y0023892D01*
X0005429Y0026258D02*
Y0023384D01*
X0003633Y0023834D02*
X0003248D01*
X0004529Y0024676D02*
Y0024509D01*
X-0010441Y0026354D02*
X-0011210D01*
X0003614Y0023564D02*
X0003189D01*
X0003809Y0027250D02*
Y0024523D01*
X0004446Y0024104D02*
X-0003741D01*
X0004979Y0036895D02*
Y0023384D01*
X0003633Y0024464D02*
X0003217D01*
X0003580Y0024374D02*
X0003270D01*
X-0013980Y0025634D02*
X-0016441D01*
X0003614Y0024194D02*
X0003236D01*
X0003899Y0023518D02*
Y0023384D01*
Y0027278D02*
Y0024488D01*
X0004985Y0025454D02*
X0004682D01*
X0004349Y0036895D02*
Y0025598D01*
X0006585Y0024104D02*
X0004493D01*
X0003575Y0024284D02*
X0003274D01*
X0004529Y0024111D02*
Y0023928D01*
X0005003Y0025364D02*
X0004671D01*
X0006490Y0024374D02*
X0004667D01*
X0004331Y0024734D02*
X0003226D01*
X0004619Y0025283D02*
Y0025032D01*
X0006475Y0024464D02*
X0004609D01*
X0003575Y0023654D02*
X0003260D01*
X0004408Y0023924D02*
X0003146D01*
X0006786Y0023834D02*
X0004654D01*
X0006892Y0023744D02*
X0004683D01*
X0002923Y0024464D02*
X0001169D01*
X0003580Y0023744D02*
X0003275D01*
X0004273Y0024374D02*
X0003980D01*
X0004619Y0023577D02*
Y0023384D01*
X0007037Y0023654D02*
X0004670D01*
X0004619Y0024165D02*
Y0023878D01*
X0004315Y0025004D02*
X0003228D01*
X0004276Y0024914D02*
X0003273D01*
X0004344Y0025274D02*
X0003228D01*
X0006544Y0024194D02*
X0004642D01*
X0004439Y0024105D02*
Y0023932D01*
X0004709Y0025906D02*
Y0023384D01*
X0005339Y0026197D02*
Y0025595D01*
X0004421Y0025634D02*
X0001307D01*
X0005339Y0025302D02*
Y0023384D01*
X0007104Y0025544D02*
X0005376D01*
X0004619Y0026612D02*
Y0026275D01*
X-0000921Y0026624D02*
X-0001957D01*
X0004889Y0033532D02*
Y0026924D01*
X0004709Y0033451D02*
Y0026985D01*
X0004439Y0025230D02*
Y0025081D01*
X0003089Y0023526D02*
Y0023384D01*
X0004282Y0023654D02*
X0003984D01*
X0003899Y0024148D02*
Y0023858D01*
X0002946Y0023564D02*
X-0003741D01*
X0004298Y0023834D02*
X0003927D01*
X0004298Y0024194D02*
X0003946D01*
X0004349Y0023564D02*
X0003946D01*
X0004529Y0023527D02*
Y0023384D01*
X0003179Y0024693D02*
Y0024494D01*
X0002999Y0024675D02*
Y0024513D01*
X0004619Y0024724D02*
Y0024454D01*
X0003629Y0024176D02*
Y0023830D01*
X0002904Y0024194D02*
X-0003741D01*
X0004331Y0024464D02*
X0003927D01*
X0006480Y0024734D02*
X0004629D01*
X0003269Y0023680D02*
Y0023384D01*
Y0024811D02*
Y0024377D01*
X0003179Y0025231D02*
Y0025046D01*
X0002999Y0025213D02*
Y0025065D01*
X0004349Y0024717D02*
Y0024478D01*
X0002913Y0024734D02*
X0001337D01*
X0006557Y0025004D02*
X0004645D01*
X0006522Y0024914D02*
X0004684D01*
X0004281Y0025364D02*
X0003273D01*
X0003719Y0023490D02*
Y0023384D01*
X0003269Y0025349D02*
Y0024929D01*
Y0036895D02*
Y0025467D01*
X0003359Y0036895D02*
Y0023384D01*
X0000513Y0025724D02*
X0000193D01*
X0002912Y0025274D02*
X-0003741D01*
X0006730D02*
X0005304D01*
X0004300Y0025544D02*
X0003226D01*
X0003089Y0024663D02*
Y0024524D01*
X0002999Y0023537D02*
Y0023384D01*
X0003089Y0025201D02*
Y0025076D01*
X0003179Y0036895D02*
Y0025584D01*
X0002100Y0029034D02*
Y0028688D01*
X0000713Y0026984D02*
X-0001601D01*
X0005030Y0031754D02*
X0002204D01*
X0004709Y0026575D02*
Y0026314D01*
X-0000961Y0024690D02*
Y0023384D01*
X-0000865Y0026444D02*
X-0002040D01*
X-0000241Y0025377D02*
Y0025214D01*
X-0001080Y0024734D02*
X-0003741D01*
X-0000601Y0027919D02*
Y0026711D01*
X-0001591Y0027446D02*
Y0027104D01*
X0003179Y0024141D02*
Y0023907D01*
X-0002343Y0026714D02*
X-0016441D01*
X-0001093Y0025364D02*
X-0003741D01*
X-0000871Y0026714D02*
X-0001985D01*
X-0002195Y0029774D02*
X-0002929D01*
X-0000919Y0026534D02*
X-0001971D01*
X-0001104Y0030944D02*
X-0002012D01*
X-0002772Y0031664D02*
X-0008626D01*
X-0007081Y0029861D02*
X-0007358Y0029583D01*
X0004703Y0026984D02*
X0001127D01*
X-0006283Y0033464D02*
X-0006933D01*
X-0001987Y0026984D02*
X-0013769D01*
X0004567Y0026894D02*
X0001127D01*
X0002909Y0023599D02*
Y0023384D01*
X0002009Y0027209D02*
Y0023384D01*
X0005159Y0026218D02*
Y0025653D01*
X-0010951Y0027982D02*
Y0027525D01*
X-0002041Y0026443D02*
Y0023384D01*
X0000554Y0028964D02*
X-0001970D01*
X-0001141Y0033455D02*
Y0026134D01*
X-0001321Y0029022D02*
Y0027692D01*
X-0001411Y0028976D02*
Y0027702D01*
X0003179Y0023557D02*
Y0023384D01*
X-0015408Y0023564D02*
X-0016441D01*
X-0002131Y0029015D02*
Y0026815D01*
X0008860Y0033914D02*
X-0016441D01*
X-0002221Y0030481D02*
Y0026809D01*
X-0002017Y0028964D02*
X-0002513D01*
X-0001861Y0029011D02*
Y0027256D01*
X-0002401Y0030301D02*
Y0029287D01*
X-0002133Y0029324D02*
X-0002436D01*
X-0002191Y0029234D02*
X-0002373D01*
X-0002200Y0029144D02*
X-0002362D01*
X0002580Y0030494D02*
X0002204D01*
X-0002055Y0030044D02*
X-0002659D01*
X0001829Y0029927D02*
Y0029336D01*
X-0001104Y0030044D02*
X-0001945D01*
X0002580Y0030134D02*
X0002204D01*
X-0006991Y0036884D02*
Y0033874D01*
X-0000691Y0036895D02*
Y0028530D01*
X-0001104Y0029864D02*
X-0001794D01*
X-0001771Y0033003D02*
Y0027266D01*
X-0015901Y0023826D02*
Y0023384D01*
X-0002166Y0029054D02*
X-0002392D01*
X-0001861Y0032890D02*
Y0029998D01*
Y0029690D02*
Y0029329D01*
X-0001501Y0028975D02*
Y0027671D01*
X-0002041Y0029641D02*
Y0029372D01*
X-0001605Y0029324D02*
X-0001855D01*
X-0001658Y0029234D02*
X-0001797D01*
X0000765Y0027434D02*
X-0001192D01*
X0000749Y0028894D02*
Y0027413D01*
X-0001231Y0033457D02*
Y0027629D01*
X-0001681Y0036895D02*
Y0027234D01*
X-0001411Y0036895D02*
Y0029380D01*
X-0007891Y0026169D02*
Y0025440D01*
X-0001624Y0029054D02*
X-0001822D01*
X-0001501Y0036895D02*
Y0029381D01*
X0000555Y0029234D02*
X-0001258D01*
X0001736Y0032204D02*
X0001296D01*
X0001174Y0028964D02*
X0000870D01*
X0002580Y0029234D02*
X0002124D01*
X0001379Y0032306D02*
Y0029300D01*
X0001760Y0028694D02*
X-0007235D01*
X0001199Y0028939D02*
Y0026120D01*
X-0001591Y0036895D02*
Y0029337D01*
X0007128Y0028694D02*
X0002956D01*
X0000713Y0027164D02*
X-0001615D01*
X0001129Y0029054D02*
X0000915D01*
X0000839Y0032136D02*
Y0029262D01*
X0001725Y0029144D02*
X0001534D01*
X0000749Y0025423D02*
Y0025184D01*
X0000510Y0029144D02*
X-0001253D01*
X0001740Y0029234D02*
X0001488D01*
X0001469Y0036895D02*
Y0029254D01*
X0000659Y0032297D02*
Y0029298D01*
X-0000638Y0024824D02*
X-0000780D01*
X0002909Y0025278D02*
Y0025000D01*
X-0000781Y0025438D02*
Y0024935D01*
X-0001144Y0024914D02*
X-0003741D01*
X0008860Y0023384D02*
X-0003741D01*
X-0000961Y0025308D02*
Y0025066D01*
X-0000584Y0025004D02*
X-0000821D01*
X-0000871Y0025927D02*
Y0025661D01*
X-0001140Y0024824D02*
X-0003741D01*
X-0000634Y0024734D02*
X-0000840D01*
X-0000610Y0024644D02*
X-0003741D01*
X0000569Y0025582D02*
Y0025026D01*
X-0000476Y0024464D02*
X-0003741D01*
X0002999Y0036895D02*
Y0025603D01*
X0003719Y0024120D02*
Y0023886D01*
X0000511Y0024734D02*
X0000194D01*
X0005249Y0025249D02*
Y0023384D01*
X0003719Y0027269D02*
Y0024516D01*
X0004439Y0036895D02*
Y0025638D01*
X0002990Y0023924D02*
X-0003741D01*
X0002887Y0023834D02*
X-0003741D01*
X0002876Y0023654D02*
X-0003741D01*
X0007151Y0026894D02*
X0004913D01*
X0008860Y0027254D02*
X0003837D01*
X0008860Y0027164D02*
X0007905D01*
X0008860Y0027074D02*
X0008009D01*
X0008860Y0026984D02*
X0008072D01*
X0007129Y0026714D02*
X0004936D01*
X0003089Y0036895D02*
Y0025614D01*
X0008860Y0026714D02*
X0008132D01*
X0008860Y0026624D02*
X0008119D01*
X0008860Y0026534D02*
X0008088D01*
X0008860Y0026444D02*
X0008035D01*
X0008860Y0029594D02*
X0002956D01*
X0008860Y0026894D02*
X0008110D01*
X0008129Y0028612D02*
Y0026811D01*
X0008039Y0028386D02*
Y0027037D01*
X0007949Y0028291D02*
Y0027132D01*
X0007859Y0028232D02*
Y0027191D01*
X0007769Y0028197D02*
Y0027226D01*
X0007679Y0028180D02*
Y0027243D01*
X0007589Y0028179D02*
Y0027244D01*
X0007499Y0028195D02*
Y0027228D01*
X0007409Y0028229D02*
Y0027194D01*
X0007319Y0028286D02*
Y0027137D01*
X0007286Y0030314D02*
X0002956D01*
X0007229Y0028378D02*
Y0027045D01*
X0008129Y0030612D02*
Y0028748D01*
X0008039Y0030386D02*
Y0028974D01*
X0007949Y0030291D02*
Y0029069D01*
X0007859Y0030232D02*
Y0029128D01*
X0007769Y0030197D02*
Y0029163D01*
X0007679Y0030180D02*
Y0029180D01*
X0007589Y0030179D02*
Y0029181D01*
X0007499Y0030195D02*
Y0029165D01*
X0007409Y0030229D02*
Y0029131D01*
X0007319Y0030286D02*
Y0029074D01*
X0007139Y0030577D02*
Y0028783D01*
X0008860Y0026804D02*
X0008130D01*
X0008860Y0029144D02*
X0007824D01*
X0008860Y0029054D02*
X0007966D01*
X0008860Y0028964D02*
X0008045D01*
X0008860Y0028874D02*
X0008094D01*
X0008860Y0028784D02*
X0008122D01*
X0008860Y0028694D02*
X0008133D01*
X0008860Y0028604D02*
X0008127D01*
X0008860Y0028514D02*
X0008105D01*
X0008860Y0028424D02*
X0008063D01*
X0007203Y0030944D02*
X0005418D01*
X0008860Y0031574D02*
X0005394D01*
X0008860Y0031124D02*
X0007866D01*
X0008860Y0031034D02*
X0007987D01*
X0008860Y0030944D02*
X0008058D01*
X0008860Y0030854D02*
X0008102D01*
X0008860Y0030764D02*
X0008126D01*
X0008860Y0030674D02*
X0008133D01*
X0008860Y0030584D02*
X0008124D01*
X0008860Y0030494D02*
X0008098D01*
X0008860Y0030404D02*
X0008051D01*
X0008399Y0024031D02*
Y0023384D01*
X0008860Y0030314D02*
X0007975D01*
X0008129Y0034660D02*
Y0030748D01*
X0008039Y0034588D02*
Y0030974D01*
X0007949Y0034531D02*
Y0031069D01*
X0007859Y0034486D02*
Y0031128D01*
X0007769Y0034450D02*
Y0031163D01*
X0007679Y0034424D02*
Y0031180D01*
X0007589Y0034407D02*
Y0031181D01*
X0007499Y0034397D02*
Y0031165D01*
X0007409Y0034396D02*
Y0031131D01*
X0007319Y0034402D02*
Y0031074D01*
X0002549Y0036895D02*
Y0031246D01*
X0008860Y0033014D02*
X-0001768D01*
X0002369Y0036895D02*
Y0032742D01*
X0002279Y0036895D02*
Y0032842D01*
X0002189Y0036895D02*
Y0032898D01*
X0002099Y0036895D02*
Y0032927D01*
X0002009Y0036895D02*
Y0032935D01*
X0001919Y0036895D02*
Y0032923D01*
X0001829Y0036895D02*
Y0032891D01*
X0001739Y0036895D02*
Y0032830D01*
X0001921Y0032924D02*
X0001111D01*
X0001743Y0032834D02*
X0001289D01*
X0005159Y0032256D02*
Y0031897D01*
X0001664Y0032744D02*
X0001367D01*
X0001620Y0032654D02*
X0001412D01*
X0001600Y0032564D02*
X0001432D01*
X0001599Y0032474D02*
X0001433D01*
X0005069Y0033147D02*
Y0032578D01*
X0008860Y0032744D02*
X0002367D01*
X0001379Y0036895D02*
Y0032726D01*
X0001289Y0036895D02*
Y0032834D01*
X0001199Y0036895D02*
Y0032893D01*
X0001109Y0036895D02*
Y0032925D01*
X0001019Y0036895D02*
Y0032935D01*
X0000929Y0036895D02*
Y0032926D01*
X0000839Y0036895D02*
Y0032896D01*
X0002580Y0028964D02*
X0002100D01*
X0008860Y0032114D02*
X0002204D01*
X0001649Y0036895D02*
Y0032717D01*
X0008860Y0032924D02*
X0002111D01*
X0008860Y0032834D02*
X0002289D01*
X0000749Y0036895D02*
Y0032839D01*
X0005194Y0032654D02*
X0002412D01*
X0005058Y0032564D02*
X0002432D01*
X0000713Y0026624D02*
X-0000555D01*
X0001130Y0029144D02*
X0000914D01*
X0000713Y0026354D02*
X-0007667D01*
X0001379Y0028896D02*
Y0023384D01*
X-0015730Y0034724D02*
X-0016441D01*
X0002870Y0024374D02*
X-0003741D01*
X0002999Y0024123D02*
Y0023927D01*
X0000621Y0025094D02*
X0000074D01*
X0000556Y0025004D02*
X0000144D01*
X0000520Y0024914D02*
X0000182D01*
X0006659Y0025184D02*
X0001100D01*
X0000747D02*
X-0000062D01*
X0002909Y0024188D02*
Y0023865D01*
X-0000421Y0025428D02*
Y0025163D01*
X0001109Y0024428D02*
Y0023384D01*
X0000694Y0025454D02*
X0000022D01*
X-0000151Y0024383D02*
Y0023384D01*
X0001199Y0025488D02*
Y0025120D01*
X0000713Y0027296D02*
Y0026166D01*
X0001019Y0025396D02*
Y0025212D01*
X0001127Y0027296D02*
Y0026170D01*
X0000929Y0024385D02*
Y0023384D01*
X-0009466Y0032294D02*
X-0010873D01*
X0005067Y0026354D02*
X0001127D01*
X0005119Y0026534D02*
X0001127D01*
X0004538Y0026084D02*
X0001236D01*
X0004572Y0025994D02*
X0001297D01*
X-0000241Y0027911D02*
Y0026214D01*
X0008860Y0025814D02*
X0001343D01*
X0004349Y0025270D02*
Y0025038D01*
X0008860Y0023474D02*
X-0003741D01*
X-0001120Y0029414D02*
X-0006997D01*
X0000119Y0025549D02*
Y0025043D01*
X0000029Y0025459D02*
Y0025133D01*
X-0008701Y0032276D02*
Y0032191D01*
X0002580Y0028064D02*
X0002096D01*
X-0000524Y0026084D02*
X-0000771D01*
X0004543Y0026714D02*
X0001127D01*
X0000749Y0024423D02*
Y0023384D01*
X-0000562Y0024554D02*
X-0003741D01*
X0006602Y0025094D02*
X0001226D01*
X0006470Y0024644D02*
X0001311D01*
X0002909Y0024740D02*
Y0024448D01*
X0002912Y0025004D02*
X0001292D01*
X0002867Y0024914D02*
X0001328D01*
X0002868Y0024824D02*
X0001342D01*
X0006469Y0024554D02*
X0001260D01*
X-0012996Y0025634D02*
X-0013576D01*
X0000588Y0024554D02*
X0000122D01*
X0008860Y0025724D02*
X0001335D01*
X0000029Y0027967D02*
Y0026133D01*
X-0000061Y0027905D02*
Y0026184D01*
X0000119Y0024549D02*
Y0023384D01*
X-0000061Y0024408D02*
Y0023384D01*
X-0000241Y0024377D02*
Y0023384D01*
X-0015658Y0023654D02*
X-0016441D01*
X-0015721Y0026849D02*
Y0026492D01*
X-0014101Y0026211D02*
Y0023384D01*
X-0014191Y0024256D02*
Y0023384D01*
X-0014281Y0024056D02*
Y0023384D01*
X-0014957Y0026894D02*
X-0015355D01*
X-0011491Y0036884D02*
Y0028340D01*
X-0000511Y0024495D02*
Y0023384D01*
X-0014641Y0026798D02*
Y0026544D01*
X-0015351Y0030044D02*
X-0015749D01*
X-0014821Y0023604D02*
Y0023384D01*
X-0014911Y0023575D02*
Y0023384D01*
X-0015001Y0023555D02*
Y0023384D01*
X-0015091Y0023543D02*
Y0023384D01*
X-0015746Y0026444D02*
X-0016441D01*
X-0014911Y0026821D02*
Y0026520D01*
X-0015361Y0026880D02*
Y0026462D01*
X-0015451Y0026784D02*
Y0026558D01*
X-0016150Y0029504D02*
X-0016441D01*
X-0015631Y0023641D02*
Y0023384D01*
X-0015721Y0023689D02*
Y0023384D01*
X-0015811Y0023750D02*
Y0023384D01*
X-0016148Y0030674D02*
X-0016441D01*
X-0001141Y0025448D02*
Y0024926D01*
X-0013741Y0036884D02*
Y0025792D01*
X-0013111Y0027561D02*
Y0026568D01*
X-0001145Y0026084D02*
X-0016441D01*
X-0000421Y0024428D02*
Y0023384D01*
X-0015759Y0025454D02*
X-0016441D01*
X-0015876Y0025364D02*
X-0016441D01*
X-0015965Y0025274D02*
X-0016441D01*
X-0016036Y0025184D02*
X-0016441D01*
X-0016093Y0025094D02*
X-0016441D01*
X-0016138Y0025004D02*
X-0016441D01*
X-0016173Y0024914D02*
X-0016441D01*
X-0016198Y0024824D02*
X-0016441D01*
X-0000639Y0025814D02*
X-0016441D01*
X-0016226Y0024554D02*
X-0016441D01*
X-0016220Y0024464D02*
X-0016441D01*
X-0016205Y0024374D02*
X-0016441D01*
X-0016183Y0024284D02*
X-0016441D01*
X-0016151Y0024194D02*
X-0016441D01*
X-0016110Y0024104D02*
X-0016441D01*
X-0016058Y0024014D02*
X-0016441D01*
X-0015992Y0023924D02*
X-0016441D01*
X-0015910Y0023834D02*
X-0016441D01*
X-0016225Y0024644D02*
X-0016441D01*
X-0014191Y0036884D02*
Y0035802D01*
X-0014281Y0036884D02*
Y0036089D01*
X-0014371Y0036884D02*
Y0036241D01*
X-0014461Y0036884D02*
Y0036351D01*
X-0014551Y0036884D02*
Y0036436D01*
X-0014641Y0036884D02*
Y0036504D01*
X-0014731Y0036884D02*
Y0036557D01*
X-0014821Y0036884D02*
Y0036600D01*
X-0014911Y0036884D02*
Y0036633D01*
X-0015001Y0036884D02*
Y0036656D01*
X-0015091Y0036884D02*
Y0036672D01*
X-0015181Y0036884D02*
Y0036679D01*
X-0015271Y0036884D02*
Y0036679D01*
X-0015361Y0036884D02*
Y0036671D01*
X-0015451Y0036884D02*
Y0036654D01*
X-0015541Y0036884D02*
Y0036630D01*
X-0015631Y0036884D02*
Y0036596D01*
X-0015721Y0036884D02*
Y0036553D01*
X-0015811Y0036884D02*
Y0036498D01*
X-0015901Y0036884D02*
Y0036429D01*
X-0015991Y0036884D02*
Y0036342D01*
X-0016081Y0036884D02*
Y0036229D01*
X-0016171Y0036884D02*
Y0036070D01*
X0008860Y0036614D02*
X-0014857D01*
X0006509Y0024297D02*
Y0023384D01*
X0008860Y0036524D02*
X-0014673D01*
X-0015771D02*
X-0016441D01*
X-0015895Y0036434D02*
X-0016441D01*
X-0015989Y0036344D02*
X-0016441D01*
X-0016063Y0036254D02*
X-0016441D01*
X-0016123Y0036164D02*
X-0016441D01*
X-0016170Y0036074D02*
X-0016441D01*
X-0016206Y0035984D02*
X-0016441D01*
X-0016234Y0035894D02*
X-0016441D01*
X-0016252Y0035804D02*
X-0016441D01*
X0008860Y0036704D02*
X-0016441D01*
X-0016266Y0035624D02*
X-0016441D01*
X-0016261Y0035534D02*
X-0016441D01*
X-0016248Y0035444D02*
X-0016441D01*
X-0016227Y0035354D02*
X-0016441D01*
X-0016197Y0035264D02*
X-0016441D01*
X-0016158Y0035174D02*
X-0016441D01*
X-0016108Y0035084D02*
X-0016441D01*
X-0016045Y0034994D02*
X-0016441D01*
X-0015966Y0034904D02*
X-0016441D01*
X0006512Y0024284D02*
X0004676D01*
X0008860Y0026264D02*
X0007783D01*
X0008860Y0025544D02*
X0007921D01*
X0008860Y0025454D02*
X0008089D01*
X0008860Y0025364D02*
X0008206D01*
X0008860Y0025274D02*
X0008295D01*
X0008860Y0025184D02*
X0008366D01*
X0008860Y0025094D02*
X0008423D01*
X0008860Y0025004D02*
X0008468D01*
X0008860Y0024914D02*
X0008503D01*
X0008860Y0024824D02*
X0008528D01*
X0008860Y0024734D02*
X0008546D01*
X0008860Y0024644D02*
X0008555D01*
X0008860Y0024554D02*
X0008556D01*
X0008860Y0024464D02*
X0008550D01*
X0008860Y0024374D02*
X0008535D01*
X0008860Y0024284D02*
X0008513D01*
X0008860Y0024194D02*
X0008481D01*
X0008860Y0024104D02*
X0008440D01*
X0008860Y0024014D02*
X0008388D01*
X0008860Y0023924D02*
X0008322D01*
X0008860Y0023834D02*
X0008240D01*
X0008860Y0023744D02*
X0008133D01*
X0008860Y0023654D02*
X0007988D01*
X0006599Y0024079D02*
Y0023384D01*
X0008489Y0036885D02*
Y0024954D01*
Y0024213D02*
Y0023384D01*
X-0011253Y0030944D02*
X-0016441D01*
X0007319Y0023557D02*
Y0023384D01*
X-0015361Y0023555D02*
Y0023384D01*
X0008309Y0023908D02*
Y0023384D01*
X0008219Y0023814D02*
Y0023384D01*
X0008129Y0023740D02*
Y0023384D01*
X0008039Y0023681D02*
Y0023384D01*
X0007949Y0023635D02*
Y0023384D01*
X0007859Y0023598D02*
Y0023384D01*
X0007769Y0023571D02*
Y0023384D01*
X0007679Y0023553D02*
Y0023384D01*
X0008579Y0036885D02*
Y0023384D01*
X0007229Y0034416D02*
Y0030982D01*
Y0023579D02*
Y0023384D01*
X0007139Y0023609D02*
Y0023384D01*
X0007049Y0023648D02*
Y0023384D01*
X0006959Y0023698D02*
Y0023384D01*
X0006869Y0023762D02*
Y0023384D01*
X0006779Y0023841D02*
Y0023384D01*
X0006897Y0034544D02*
X-0016441D01*
X0004529Y0036895D02*
Y0033728D01*
X0008399Y0036885D02*
Y0035838D01*
X0008309Y0036885D02*
Y0036009D01*
X0008219Y0036886D02*
Y0036128D01*
X0008129Y0036886D02*
Y0036219D01*
X0008039Y0036886D02*
Y0036290D01*
X0007949Y0036887D02*
Y0036348D01*
X0007859Y0036887D02*
Y0036393D01*
X0007769Y0036887D02*
Y0036428D01*
X0007679Y0036887D02*
Y0036454D01*
X0007589Y0036888D02*
Y0036472D01*
X0007499Y0036888D02*
Y0036481D01*
X0007409Y0036888D02*
Y0036483D01*
X0007319Y0036888D02*
Y0036477D01*
X0007229Y0036889D02*
Y0036463D01*
X0007139Y0036889D02*
Y0036441D01*
X0007049Y0036889D02*
Y0036410D01*
X0006959Y0036889D02*
Y0036369D01*
X0006869Y0036890D02*
Y0036317D01*
X0006779Y0036890D02*
Y0036252D01*
X0006689Y0036890D02*
Y0036170D01*
X0006599Y0036890D02*
Y0036065D01*
X0006509Y0036891D02*
Y0035923D01*
X0006419Y0036891D02*
Y0035682D01*
X0008860Y0036434D02*
X0007751D01*
X0008860Y0036344D02*
X0007955D01*
X0008860Y0036254D02*
X0008087D01*
X0008860Y0036164D02*
X0008185D01*
X0008860Y0036074D02*
X0008263D01*
X0008860Y0035984D02*
X0008325D01*
X0008860Y0035894D02*
X0008374D01*
X0008860Y0035804D02*
X0008412D01*
X0008860Y0035714D02*
X0008441D01*
X0008860Y0035624D02*
X0008461D01*
X0008860Y0035534D02*
X0008474D01*
X0008860Y0035444D02*
X0008478D01*
X0008860Y0035354D02*
X0008474D01*
X0008860Y0035264D02*
X0008463D01*
X0008860Y0035174D02*
X0008444D01*
X0008860Y0035084D02*
X0008416D01*
X0008860Y0034994D02*
X0008378D01*
X0008860Y0034904D02*
X0008330D01*
X0008860Y0034814D02*
X0008270D01*
X0008860Y0034724D02*
X0008194D01*
X0008860Y0034634D02*
X0008098D01*
X-0015515D02*
X-0016441D01*
X-0009179Y0031678D02*
X-0009047Y0031545D01*
X-0008914Y0031413D02*
X-0009047Y0031545D01*
X-0009179Y0031413D02*
X-0009047Y0031545D01*
X-0008914Y0031678D02*
X-0009047Y0031545D01*
X-0009179Y0032150D02*
X-0009047Y0032017D01*
X-0008914Y0031885D02*
X-0009047Y0032017D01*
X-0009179Y0031885D02*
X-0009047Y0032017D01*
X-0008914Y0032150D02*
X-0009047Y0032017D01*
X-0008904Y0032583D02*
X-0008771Y0032450D01*
X-0008639Y0032317D02*
X-0008771Y0032450D01*
X-0008904Y0032317D02*
X-0008771Y0032450D01*
X-0008639Y0032583D02*
X-0008771Y0032450D01*
X-0008904Y0032150D02*
X-0008771Y0032017D01*
X-0008639Y0031885D02*
X-0008771Y0032017D01*
X-0008904Y0031885D02*
X-0008771Y0032017D01*
X-0008639Y0032150D02*
X-0008771Y0032017D01*
X-0008904Y0031678D02*
X-0008771Y0031545D01*
X-0008639Y0031413D02*
X-0008771Y0031545D01*
X-0008904Y0031413D02*
X-0008771Y0031545D01*
X-0008639Y0031678D02*
X-0008771Y0031545D01*
X-0009494Y0032583D02*
X-0009361Y0032450D01*
X-0009229Y0032317D02*
X-0009361Y0032450D01*
X-0009494Y0032317D02*
X-0009361Y0032450D01*
X-0009229Y0032583D02*
X-0009361Y0032450D01*
X-0000182Y0027951D02*
X-0000315Y0028084D01*
X-0000447Y0027951D02*
X-0000315Y0028084D01*
X-0000447Y0028610D02*
X-0000315Y0028477D01*
X-0013408Y0023474D02*
X-0016441D01*
X-0000182Y0028610D02*
X-0000315Y0028477D01*
X0008860Y0034544D02*
X0007971D01*
X0000929Y0032106D02*
Y0027503D01*
X0005044Y0030944D02*
X0002889D01*
X0000015Y0028148D02*
X-0000118Y0028281D01*
X0000015Y0028413D02*
X-0000118Y0028281D01*
X-0000644Y0028413D02*
X-0000511Y0028281D01*
X-0000644Y0028148D02*
X-0000511Y0028281D01*
X0000015Y0027951D02*
X-0000118Y0028084D01*
X-0000251Y0027951D02*
X-0000118Y0028084D01*
X0000015Y0028217D02*
X-0000118Y0028084D01*
X-0000644Y0028217D02*
X-0000511Y0028084D01*
X-0000379Y0027951D02*
X-0000511Y0028084D01*
X-0000644Y0027951D02*
X-0000511Y0028084D01*
X-0000644Y0028610D02*
X-0000511Y0028477D01*
X-0000644Y0028345D02*
X-0000511Y0028477D01*
X-0000379Y0028610D02*
X-0000511Y0028477D01*
X-0002657Y0032474D02*
X-0008585D01*
X-0000151Y0036895D02*
Y0028662D01*
X-0009061Y0031830D02*
Y0031732D01*
X-0000061Y0036895D02*
Y0028656D01*
X-0004237Y0033816D02*
X-0004091Y0033669D01*
X-0003944Y0033523D02*
X-0004091Y0033669D01*
X-0004237Y0033523D02*
X-0004091Y0033669D01*
X-0003944Y0033816D02*
X-0004091Y0033669D01*
X-0004945Y0033816D02*
X-0004799Y0033669D01*
X-0004652Y0033523D02*
X-0004799Y0033669D01*
X-0004945Y0033523D02*
X-0004799Y0033669D01*
X-0004652Y0033816D02*
X-0004799Y0033669D01*
X-0005693Y0033816D02*
X-0005546Y0033669D01*
X-0005399Y0033523D02*
X-0005546Y0033669D01*
X-0005693Y0033523D02*
X-0005546Y0033669D01*
X-0005399Y0033816D02*
X-0005546Y0033669D01*
X-0006401Y0033816D02*
X-0006254Y0033669D01*
X-0006107Y0033523D02*
X-0006254Y0033669D01*
X-0006401Y0033523D02*
X-0006254Y0033669D01*
X-0006107Y0033816D02*
X-0006254Y0033669D01*
X-0007109Y0033816D02*
X-0006962Y0033669D01*
X-0006815Y0033523D02*
X-0006962Y0033669D01*
X-0007109Y0033523D02*
X-0006962Y0033669D01*
X-0006815Y0033816D02*
X-0006962Y0033669D01*
X-0007581Y0028309D02*
X-0007434Y0028163D01*
X-0007287Y0028016D02*
X-0007434Y0028163D01*
X-0007581Y0028016D02*
X-0007434Y0028163D01*
X-0007287Y0028309D02*
X-0007434Y0028163D01*
X-0007581Y0028899D02*
X-0007434Y0028753D01*
X-0007287Y0028606D02*
X-0007434Y0028753D01*
X-0007581Y0028606D02*
X-0007434Y0028753D01*
X-0007287Y0028899D02*
X-0007434Y0028753D01*
X-0009887Y0033094D02*
X-0009755Y0032961D01*
X-0009622Y0032829D02*
X-0009755Y0032961D01*
X-0009887Y0032829D02*
X-0009755Y0032961D01*
X-0009622Y0033094D02*
X-0009755Y0032961D01*
X-0008629Y0033094D02*
X-0008496Y0032961D01*
X-0008363Y0032829D02*
X-0008496Y0032961D01*
X-0008629Y0032829D02*
X-0008496Y0032961D01*
X-0008363Y0033094D02*
X-0008496Y0032961D01*
X-0009179Y0032583D02*
X-0009047Y0032450D01*
X-0008914Y0032317D02*
X-0009047Y0032450D01*
X-0009179Y0032317D02*
X-0009047Y0032450D01*
X-0008914Y0032583D02*
X-0009047Y0032450D01*
X-0009455Y0031245D02*
X-0009322Y0031113D01*
X-0009189Y0030980D02*
X-0009322Y0031113D01*
X-0009455Y0030980D02*
X-0009322Y0031113D01*
X-0009189Y0031245D02*
X-0009322Y0031113D01*
X-0007213Y0031245D02*
X-0007080Y0031113D01*
X-0006947Y0030980D02*
X-0007080Y0031113D01*
X-0007213Y0030980D02*
X-0007080Y0031113D01*
X-0006947Y0031245D02*
X-0007080Y0031113D01*
X-0007763Y0031245D02*
X-0007631Y0031113D01*
X-0007498Y0030980D02*
X-0007631Y0031113D01*
X-0007763Y0030980D02*
X-0007631Y0031113D01*
X-0007498Y0031245D02*
X-0007631Y0031113D01*
X-0008314Y0031245D02*
X-0008181Y0031113D01*
X-0008049Y0030980D02*
X-0008181Y0031113D01*
X-0008314Y0030980D02*
X-0008181Y0031113D01*
X-0008049Y0031245D02*
X-0008181Y0031113D01*
X-0009494Y0032150D02*
X-0009361Y0032017D01*
X-0009229Y0031885D02*
X-0009361Y0032017D01*
X-0009494Y0031885D02*
X-0009361Y0032017D01*
X-0009229Y0032150D02*
X-0009361Y0032017D01*
X-0009494Y0031678D02*
X-0009361Y0031545D01*
X-0009229Y0031413D02*
X-0009361Y0031545D01*
X-0009494Y0031413D02*
X-0009361Y0031545D01*
X-0009229Y0031678D02*
X-0009361Y0031545D01*
X-0008904Y0031245D02*
X-0008771Y0031113D01*
X-0008639Y0030980D02*
X-0008771Y0031113D01*
X-0008904Y0030980D02*
X-0008771Y0031113D01*
X-0008639Y0031245D02*
X-0008771Y0031113D01*
X-0010973Y0027506D02*
X-0010826Y0027360D01*
X-0010679Y0027213D02*
X-0010826Y0027360D01*
X-0010973Y0027213D02*
X-0010826Y0027360D01*
X-0010679Y0027506D02*
X-0010826Y0027360D01*
X-0011563Y0027506D02*
X-0011416Y0027360D01*
X-0011270Y0027213D02*
X-0011416Y0027360D01*
X-0011563Y0027213D02*
X-0011416Y0027360D01*
X-0011270Y0027506D02*
X-0011416Y0027360D01*
X-0010973Y0028294D02*
X-0010826Y0028147D01*
X-0010679Y0028000D02*
X-0010826Y0028147D01*
X-0010973Y0028000D02*
X-0010826Y0028147D01*
X-0010679Y0028294D02*
X-0010826Y0028147D01*
X-0009988Y0027703D02*
X-0009842Y0027557D01*
X-0009695Y0027410D02*
X-0009842Y0027557D01*
X-0009988Y0027410D02*
X-0009842Y0027557D01*
X-0009695Y0027703D02*
X-0009842Y0027557D01*
X-0009988Y0028294D02*
X-0009842Y0028147D01*
X-0009695Y0028000D02*
X-0009842Y0028147D01*
X-0009988Y0028000D02*
X-0009842Y0028147D01*
X-0009695Y0028294D02*
X-0009842Y0028147D01*
X-0008807Y0027703D02*
X-0008661Y0027557D01*
X-0008514Y0027410D02*
X-0008661Y0027557D01*
X-0008807Y0027410D02*
X-0008661Y0027557D01*
X-0008514Y0027703D02*
X-0008661Y0027557D01*
X-0008414Y0028294D02*
X-0008267Y0028147D01*
X-0008120Y0028000D02*
X-0008267Y0028147D01*
X-0008414Y0028000D02*
X-0008267Y0028147D01*
X-0008120Y0028294D02*
X-0008267Y0028147D01*
X-0014909Y0026522D02*
X-0014763Y0026376D01*
X-0014616Y0026229D02*
X-0014763Y0026376D01*
X-0014909Y0026229D02*
X-0014763Y0026376D01*
X-0014616Y0026522D02*
X-0014763Y0026376D01*
X-0015697Y0026522D02*
X-0015550Y0026376D01*
X-0015403Y0026229D02*
X-0015550Y0026376D01*
X-0015697Y0026229D02*
X-0015550Y0026376D01*
X-0015403Y0026522D02*
X-0015550Y0026376D01*
X-0015697Y0027113D02*
X-0015550Y0026966D01*
X-0015403Y0026819D02*
X-0015550Y0026966D01*
X-0015697Y0026819D02*
X-0015550Y0026966D01*
X-0015403Y0027113D02*
X-0015550Y0026966D01*
X-0015303Y0030853D02*
X-0015156Y0030706D01*
X-0015010Y0030559D02*
X-0015156Y0030706D01*
X-0015303Y0030559D02*
X-0015156Y0030706D01*
X-0015010Y0030853D02*
X-0015156Y0030706D01*
X-0016090Y0030853D02*
X-0015944Y0030706D01*
X-0015797Y0030559D02*
X-0015944Y0030706D01*
X-0016090Y0030559D02*
X-0015944Y0030706D01*
X-0015797Y0030853D02*
X-0015944Y0030706D01*
X0001828Y0031214D02*
X-0000728D01*
X0001828Y0031124D02*
X-0000728D01*
X0002369Y0032290D02*
Y0031173D01*
X0002415Y0031214D02*
X0002204D01*
X0001828Y0030764D02*
X-0000728D01*
X0007419Y0030224D02*
X0002956D01*
X0002580Y0030584D02*
X0002204D01*
X0002099Y0029826D02*
Y0029279D01*
X-0001104Y0029954D02*
X-0001824D01*
X0005080Y0031844D02*
X0002204D01*
X-0001321Y0033506D02*
Y0029334D01*
X-0001051Y0033496D02*
Y0031973D01*
X-0000961Y0036895D02*
Y0032018D01*
X0002580Y0030404D02*
X0002204D01*
X-0002368Y0031574D02*
X-0002396D01*
X0002099Y0027282D02*
Y0023384D01*
X-0002131Y0029683D02*
Y0029325D01*
X0001818Y0029954D02*
X-0000728D01*
X0002580Y0029864D02*
X0002157D01*
X-0007081Y0029924D02*
Y0029860D01*
X-0002131Y0030571D02*
Y0030004D01*
X-0003571Y0027412D02*
Y0023384D01*
X-0002067Y0030635D02*
X-0003105Y0029597D01*
X-0003391Y0029540D02*
Y0027748D01*
X-0002206Y0029864D02*
X-0002839D01*
X-0006631Y0027412D02*
Y0025440D01*
X-0007171Y0029924D02*
Y0029770D01*
X-0003751Y0029540D02*
Y0027748D01*
X-0005101Y0029540D02*
Y0027748D01*
X-0002671Y0030031D02*
Y0029344D01*
X0002580Y0028334D02*
X0002096D01*
X-0002761Y0029089D02*
Y0027708D01*
X-0006451Y0027412D02*
Y0025440D01*
X-0002581Y0028957D02*
Y0023384D01*
X-0000331Y0036895D02*
Y0028664D01*
X-0008611Y0032813D02*
Y0032548D01*
X-0008971Y0032278D02*
Y0032189D01*
X-0002772Y0031574D02*
X-0008586D01*
X-0013381Y0028466D02*
Y0027828D01*
X-0007602Y0028874D02*
X-0008111D01*
X-0000151Y0027899D02*
Y0026209D01*
X-0003211Y0029542D02*
Y0027748D01*
X0002580Y0027614D02*
X0002096D01*
X-0009549Y0032024D02*
X-0010887D01*
X-0003285Y0030404D02*
X-0016441D01*
X-0001079Y0029324D02*
X-0001311D01*
X-0006982Y0027704D02*
X-0008515D01*
X-0007520Y0027974D02*
X-0008153D01*
X-0000151Y0025383D02*
Y0025209D01*
X0000718Y0027344D02*
X-0001249D01*
X-0009066Y0032204D02*
X-0009342D01*
X-0000691Y0028424D02*
X-0013017D01*
X0008860Y0027704D02*
X0002956D01*
X-0000421Y0036895D02*
Y0028642D01*
X-0000511Y0036895D02*
Y0028665D01*
X-0008611Y0031447D02*
Y0031211D01*
X-0008701Y0031843D02*
Y0031719D01*
X-0002772Y0031484D02*
X-0008594D01*
X-0011606Y0028064D02*
X-0016441D01*
X-0004229Y0033824D02*
X-0004661D01*
X-0004296Y0033644D02*
X-0004593D01*
X-0003121Y0036894D02*
Y0030568D01*
X-0003931Y0036886D02*
Y0033802D01*
X-0004021Y0036885D02*
Y0033865D01*
X-0004111Y0036884D02*
Y0033876D01*
X-0002851Y0036895D02*
Y0033842D01*
X-0004201Y0033494D02*
Y0030300D01*
X-0004119Y0033464D02*
X-0004770D01*
X-0002880Y0033824D02*
X-0003953D01*
X-0005004Y0033644D02*
X-0005340D01*
X-0004291Y0036884D02*
Y0033721D01*
X-0004651Y0036884D02*
Y0033815D01*
X-0004741Y0036884D02*
Y0033868D01*
X-0004021Y0027412D02*
Y0025440D01*
X-0004831Y0033465D02*
Y0030300D01*
X-0004971Y0033554D02*
X-0005374D01*
X-0004827Y0033464D02*
X-0005517D01*
X-0002962Y0033644D02*
X-0003885D01*
X-0005752D02*
X-0006048D01*
X-0004921Y0036884D02*
Y0033836D01*
X-0005371Y0036884D02*
Y0033781D01*
X-0005461Y0036884D02*
Y0033859D01*
X-0005551Y0036884D02*
Y0033877D01*
X-0004651Y0027412D02*
Y0025440D01*
X-0005641Y0033485D02*
Y0030300D01*
X-0005718Y0033554D02*
X-0006082D01*
X-0005575Y0033464D02*
X-0006225D01*
X-0004996Y0033734D02*
X-0005349D01*
X-0006460Y0033644D02*
X-0006756D01*
X-0005731Y0036884D02*
Y0033762D01*
X-0006091Y0036884D02*
Y0033798D01*
X-0006181Y0036884D02*
Y0033863D01*
X-0006271Y0036884D02*
Y0033876D01*
X-0005461Y0027412D02*
Y0025440D01*
X-0006991Y0030947D02*
Y0030300D01*
X-0006426Y0033554D02*
X-0006790D01*
X-0007159Y0033734D02*
X-0016441D01*
X-0005743D02*
X-0006057D01*
X-0006451D02*
X-0006765D01*
X-0006181Y0027412D02*
Y0025440D01*
X-0006001Y0036884D02*
Y0030300D01*
X-0006451Y0036884D02*
Y0033733D01*
X-0006811Y0036884D02*
Y0033812D01*
X-0006901Y0036884D02*
Y0033868D01*
X-0000691Y0028334D02*
X-0007317D01*
X-0007621Y0028074D02*
Y0025440D01*
X-0007261Y0028638D02*
Y0028277D01*
X-0007351Y0028562D02*
Y0028353D01*
X-0007441Y0028545D02*
Y0028370D01*
X-0008425Y0028604D02*
X-0012990D01*
X0005070Y0026444D02*
X0001127D01*
X-0007551Y0028334D02*
X-0008177D01*
X-0007625Y0028244D02*
X-0008084D01*
X-0007641Y0028154D02*
X-0008060D01*
X-0015363Y0029504D02*
X-0015737D01*
X-0007016Y0027524D02*
X-0008456D01*
X-0008314Y0029324D02*
X-0015105D01*
X-0015744Y0026894D02*
X-0016441D01*
X-0007639Y0028784D02*
X-0008065D01*
X0002580Y0030722D02*
Y0028928D01*
X0001828Y0030314D02*
X-0000728D01*
X0001781Y0027254D02*
X0001127D01*
X0004603Y0026624D02*
X0001127D01*
X-0009938Y0032924D02*
X-0016441D01*
X-0009331Y0036884D02*
Y0032635D01*
X-0009601Y0036884D02*
Y0033069D01*
X-0009691Y0036884D02*
Y0033138D01*
X0000743Y0032834D02*
X-0008358D01*
X-0009781Y0036884D02*
Y0033147D01*
X-0008618Y0033104D02*
X-0009633D01*
X-0008676Y0033014D02*
X-0009574D01*
X-0008680Y0032924D02*
X-0009571D01*
X-0009871Y0036884D02*
Y0033108D01*
X0005024Y0033284D02*
X-0016441D01*
X-0008431Y0036884D02*
Y0033137D01*
X-0002172Y0033104D02*
X-0008374D01*
X0001109Y0032107D02*
Y0027382D01*
X-0002117Y0032924D02*
X-0008312D01*
X-0009061Y0036884D02*
Y0032637D01*
X-0009196Y0032564D02*
X-0009212D01*
X-0008341Y0036884D02*
Y0033068D01*
X0000664Y0032744D02*
X-0016441D01*
X-0001104Y0030674D02*
X-0002037D01*
X0000600Y0032564D02*
X-0008622D01*
X-0008971Y0036884D02*
Y0032622D01*
X-0009547Y0032474D02*
X-0010865D01*
X-0008882Y0031394D02*
X-0008936D01*
X-0009151Y0031861D02*
Y0031701D01*
X-0009241Y0031401D02*
Y0031282D01*
X-0008881Y0030961D02*
Y0025703D01*
X-0009421Y0031367D02*
Y0031272D01*
X-0008929Y0031214D02*
X-0009164D01*
X-0008959Y0031124D02*
X-0009135D01*
X-0011225Y0031574D02*
X-0016441D01*
X-0006361Y0033492D02*
Y0030300D01*
X-0002828Y0033464D02*
X-0004062D01*
X-0006991D02*
Y0031278D01*
X-0008701Y0036884D02*
Y0032624D01*
X0008860Y0027794D02*
X0002956D01*
X-0002772Y0032024D02*
X-0008584D01*
X-0009433Y0031844D02*
X-0010887D01*
X-0007171Y0036884D02*
Y0031277D01*
X-0002772Y0031214D02*
X-0006922D01*
X-0007261Y0036884D02*
Y0031161D01*
X-0007531Y0036884D02*
Y0031272D01*
X-0007621Y0036884D02*
Y0031300D01*
X-0000685Y0028154D02*
X-0007227D01*
X-0003031Y0036895D02*
Y0030658D01*
X-0002772Y0031754D02*
X-0010887D01*
X-0007789Y0031214D02*
X-0008023D01*
X-0002772Y0031124D02*
X-0006893D01*
X-0007801Y0036884D02*
Y0031191D01*
X-0008071Y0036884D02*
Y0031265D01*
X-0009877Y0033104D02*
X-0016441D01*
X-0007801Y0026181D02*
Y0025440D01*
X-0008521Y0036884D02*
Y0033147D01*
X-0007711Y0036884D02*
Y0031282D01*
X-0008339Y0031214D02*
X-0008613D01*
X-0008881Y0025474D02*
Y0025440D01*
X-0009529Y0031934D02*
X-0010887D01*
X-0002791Y0032294D02*
X-0008667D01*
X-0008971Y0031845D02*
Y0031717D01*
X-0009537Y0032384D02*
X-0010849D01*
X-0008791Y0032204D02*
X-0009027D01*
X-0006541Y0036884D02*
Y0030300D01*
X-0009241Y0031873D02*
Y0031690D01*
X-0009522Y0032114D02*
X-0010887D01*
X-0009331Y0031360D02*
Y0031300D01*
X-0008843Y0031844D02*
X-0008975D01*
X-0008791Y0036884D02*
Y0032637D01*
X-0011184Y0030854D02*
X-0015011D01*
X-0009539Y0031484D02*
X-0010887D01*
X-0009151Y0032294D02*
Y0032173D01*
X-0008341Y0031015D02*
Y0028931D01*
X-0007818Y0031124D02*
X-0007994D01*
X-0008611Y0031919D02*
Y0031643D01*
X-0008251Y0036884D02*
Y0031287D01*
X-0008341Y0028544D02*
Y0028340D01*
X-0008942Y0031034D02*
X-0009152D01*
X-0008161Y0036884D02*
Y0031299D01*
X-0008791Y0032263D02*
Y0032204D01*
X-0011485Y0027164D02*
X-0012135D01*
X-0010951Y0027194D02*
Y0025753D01*
X-0010681Y0027998D02*
Y0027508D01*
X-0010771Y0027947D02*
Y0027560D01*
X-0001411Y0027290D02*
Y0023384D01*
X-0010041Y0027614D02*
X-0013034D01*
X-0001973Y0027164D02*
X-0010757D01*
X-0001861Y0026864D02*
Y0023384D01*
X-0011019Y0027434D02*
X-0011223D01*
X-0014179Y0027794D02*
X-0016441D01*
X-0011033Y0027344D02*
X-0011210D01*
X-0011221Y0028076D02*
Y0027430D01*
X-0011311Y0027968D02*
Y0027538D01*
X-0011401Y0027940D02*
Y0027566D01*
X-0010771Y0027160D02*
Y0025788D01*
X-0011581Y0027234D02*
Y0026501D01*
X-0001531Y0027344D02*
X-0010619D01*
X-0011581Y0028021D02*
Y0027485D01*
X-0011543Y0027524D02*
X-0012077D01*
X-0010861Y0027943D02*
Y0027564D01*
X-0007981Y0036884D02*
Y0029788D01*
X-0008326Y0029414D02*
X-0014981D01*
X-0011221Y0030890D02*
Y0028217D01*
X-0008828Y0027434D02*
X-0009674D01*
X-0011131Y0030825D02*
Y0025440D01*
X-0010915Y0028334D02*
X-0011327D01*
X-0011009Y0028244D02*
X-0011233D01*
X-0011033Y0028154D02*
X-0011209D01*
X-0011016Y0028064D02*
X-0011226D01*
X-0010046Y0027524D02*
X-0010699D01*
X-0009691Y0028004D02*
Y0027699D01*
X-0009781Y0027949D02*
Y0027755D01*
X-0009961Y0027978D02*
Y0027726D01*
X-0008806Y0027704D02*
X-0009696D01*
X-0008860Y0027614D02*
X-0009642D01*
X-0009511Y0026178D02*
Y0025440D01*
X-0009871Y0027942D02*
Y0027762D01*
X-0009601Y0032853D02*
Y0026515D01*
X-0009781Y0032775D02*
Y0028345D01*
X-0007891Y0036884D02*
Y0029878D01*
X-0008356Y0028334D02*
X-0009752D01*
X-0008450Y0028244D02*
X-0009658D01*
X-0008474Y0028154D02*
X-0009634D01*
X0001764Y0028874D02*
X-0007266D01*
X-0008865Y0027524D02*
X-0009637D01*
X-0006811Y0027373D02*
Y0025440D01*
X-0008791Y0027396D02*
Y0026537D01*
X-0008701Y0030938D02*
Y0027760D01*
X-0009511Y0036884D02*
Y0032563D01*
X-0008634Y0032834D02*
X-0009617D01*
X-0008457Y0028064D02*
X-0009652D01*
X-0008071Y0028669D02*
Y0028215D01*
X-0008161Y0028559D02*
Y0028325D01*
X-0008251Y0028531D02*
Y0028354D01*
X-0007441Y0027955D02*
Y0025440D01*
X-0008431Y0028020D02*
Y0025715D01*
X-0007621Y0028664D02*
Y0028251D01*
X-0008431Y0028611D02*
Y0028273D01*
X-0000691Y0028031D02*
Y0026764D01*
X-0014911Y0034639D02*
Y0027110D01*
X-0000698Y0028064D02*
X-0007252D01*
X-0014641Y0026207D02*
Y0025476D01*
X-0014731Y0026171D02*
Y0025525D01*
X-0013363Y0026264D02*
X-0013801D01*
X-0014011Y0026171D02*
Y0023384D01*
X-0014811Y0026174D02*
X-0015502D01*
X-0014896Y0026534D02*
X-0015416D01*
X-0012596Y0026444D02*
X-0012992D01*
X-0015721Y0034719D02*
Y0027083D01*
X-0014937Y0026264D02*
X-0015375D01*
X-0015361Y0026290D02*
Y0025612D01*
X-0015451Y0026193D02*
Y0025592D01*
X-0015541Y0026168D02*
Y0025564D01*
X-0014821Y0026767D02*
Y0026574D01*
X-0015721Y0026259D02*
Y0025478D01*
X-0014023Y0026174D02*
X-0014714D01*
X-0014109Y0026534D02*
X-0014629D01*
X-0015541Y0023603D02*
Y0023384D01*
X-0016119Y0029414D02*
X-0016441D01*
X-0001117Y0025994D02*
X-0016441D01*
X-0010771Y0036884D02*
Y0028347D01*
X-0015611Y0027164D02*
X-0016441D01*
X-0015727Y0027074D02*
X-0016441D01*
X-0015331Y0029414D02*
X-0015768D01*
X-0015181Y0034593D02*
Y0030912D01*
X-0015361Y0029494D02*
Y0027052D01*
X-0015451Y0034617D02*
Y0027148D01*
X-0015541Y0034642D02*
Y0027173D01*
X-0014105Y0026804D02*
X-0014633D01*
X0000921Y0032924D02*
X-0001819D01*
X-0010681Y0036884D02*
Y0028295D01*
X-0015324Y0030584D02*
X-0015776D01*
X-0015361Y0034601D02*
Y0030737D01*
X-0002396Y0032192D02*
Y0031519D01*
X-0010951Y0030843D02*
Y0028312D01*
X-0015001Y0034616D02*
Y0030844D01*
X-0015091Y0034600D02*
Y0030903D01*
X-0015631Y0034676D02*
Y0027157D01*
X-0015361Y0030674D02*
X-0015739D01*
X-0015811Y0034774D02*
Y0030866D01*
X-0015901Y0034843D02*
Y0030909D01*
X-0015271Y0029943D02*
Y0029697D01*
Y0030533D02*
Y0030288D01*
X-0015355Y0030764D02*
X-0015745D01*
X-0016120Y0030224D02*
X-0016441D01*
X-0015001Y0030568D02*
Y0030253D01*
X-0016003Y0030314D02*
X-0016441D01*
X-0015181Y0030500D02*
Y0030321D01*
X-0006991Y0029924D02*
Y0029911D01*
X-0016081Y0035043D02*
Y0030861D01*
X-0015301Y0030854D02*
X-0015798D01*
X-0015811Y0030546D02*
Y0030275D01*
X-0007815Y0029954D02*
X-0015026D01*
X-0016081Y0029960D02*
Y0029680D01*
X-0002925Y0030764D02*
X-0014957D01*
X-0003105Y0030584D02*
X-0014989D01*
X-0015361Y0030675D02*
Y0030146D01*
X-0007905Y0029864D02*
X-0016441D01*
X-0016089Y0030854D02*
X-0016441D01*
X-0015216Y0030314D02*
X-0015884D01*
X-0015541Y0026759D02*
Y0026583D01*
X-0002311Y0030391D02*
Y0026756D01*
X-0007711Y0029527D02*
Y0026505D01*
X-0015991Y0030504D02*
Y0030317D01*
X-0015271Y0029352D02*
Y0025623D01*
X-0015333Y0030224D02*
X-0015767D01*
X-0015001Y0029978D02*
Y0029663D01*
X-0015091Y0029918D02*
Y0029722D01*
X-0007635Y0030134D02*
X-0014950D01*
X-0001051Y0029295D02*
Y0026257D01*
X-0015361Y0030084D02*
Y0029556D01*
X-0007441Y0029797D02*
Y0029527D01*
X-0015289Y0029684D02*
X-0015811D01*
X-0015363Y0030134D02*
X-0015737D01*
X-0016081Y0029370D02*
Y0025115D01*
X-0015679Y0026804D02*
X-0016441D01*
X-0014892D02*
X-0015421D01*
X-0015811Y0029956D02*
Y0029685D01*
X-0015631Y0026185D02*
Y0025526D01*
X-0015991Y0029913D02*
Y0029727D01*
X-0016077Y0029684D02*
X-0016441D01*
X-0014821Y0026177D02*
Y0025563D01*
X-0015756Y0026984D02*
X-0016441D01*
X-0014037Y0027164D02*
X-0014701D01*
X-0014641Y0034768D02*
Y0027134D01*
X-0014731Y0034714D02*
Y0027171D01*
X-0014371Y0023926D02*
Y0023384D01*
X-0014152Y0027074D02*
X-0014586D01*
X-0014182Y0026984D02*
X-0014556D01*
X-0014170Y0026894D02*
X-0014568D01*
X-0011623Y0027344D02*
X-0011997D01*
X-0011004Y0027254D02*
X-0011238D01*
X-0012272Y0027164D02*
X-0013914D01*
X-0002001Y0027074D02*
X-0013798D01*
X-0000781Y0029294D02*
Y0026765D01*
X-0011531Y0027974D02*
X-0016441D01*
X-0001918Y0026894D02*
X-0013781D01*
X-0013831Y0027604D02*
Y0027115D01*
X-0013921Y0027553D02*
Y0027166D01*
X-0014101Y0026801D02*
Y0026540D01*
X-0013831Y0028391D02*
Y0027902D01*
X-0013921Y0028340D02*
Y0027953D01*
X-0014011Y0028336D02*
Y0027957D01*
X-0010197Y0025454D02*
X-0010668D01*
X-0014101Y0028376D02*
Y0027918D01*
Y0036884D02*
Y0028705D01*
X-0013291Y0036884D02*
Y0028720D01*
X-0000695Y0028514D02*
X-0012982D01*
X-0013935Y0025724D02*
X-0016441D01*
X-0011623Y0028154D02*
X-0016441D01*
X-0016139Y0029594D02*
X-0016441D01*
X-0013831Y0036884D02*
Y0028690D01*
X-0013381Y0027678D02*
Y0026450D01*
X-0014011Y0036884D02*
Y0028745D01*
X0001810Y0029324D02*
X-0000753D01*
X-0009987Y0027704D02*
X-0012987D01*
X-0014115Y0028694D02*
X-0016441D01*
X-0014173Y0028604D02*
X-0016441D01*
X-0013021Y0028417D02*
Y0027877D01*
X-0013111Y0028348D02*
Y0027946D01*
X-0013201Y0028334D02*
Y0027960D01*
X0002580Y0029504D02*
X-0000715D01*
X-0007171Y0029217D02*
Y0025440D01*
X-0008701Y0026172D02*
Y0025440D01*
X-0009781Y0027358D02*
Y0025440D01*
X0001728Y0027344D02*
X0001122D01*
X-0010025Y0028244D02*
X-0010643D01*
X-0014177Y0027704D02*
X-0016441D01*
X-0011311Y0036884D02*
Y0028326D01*
X-0011401Y0036884D02*
Y0028354D01*
X-0008251Y0027940D02*
Y0025795D01*
X-0009256Y0025634D02*
X-0009836D01*
X-0010681Y0027211D02*
Y0025737D01*
X-0007525Y0030245D02*
X-0008173Y0029596D01*
X-0009931Y0028334D02*
X-0010736D01*
X-0002041Y0032874D02*
Y0031585D01*
X-0004288Y0033734D02*
X-0004602D01*
X-0002093Y0033824D02*
X-0002631D01*
X-0002175Y0033644D02*
X-0002549D01*
X0008860Y0034454D02*
X0007779D01*
X-0002581Y0036895D02*
Y0033770D01*
X-0002671Y0036895D02*
Y0033848D01*
X-0002761Y0036895D02*
Y0033866D01*
X-0002041Y0036895D02*
Y0033852D01*
X-0002671Y0033469D02*
Y0032468D01*
X-0002147Y0033554D02*
X-0002576D01*
X-0002401Y0036895D02*
Y0032378D01*
X-0001771Y0033594D02*
Y0033133D01*
X-0001861Y0033481D02*
Y0033246D01*
X-0001951Y0033452D02*
Y0033275D01*
X0005049Y0033374D02*
X-0016441D01*
X-0002131Y0033530D02*
Y0033196D01*
X0005115Y0033104D02*
X-0001764D01*
X-0000871Y0036895D02*
Y0032018D01*
X0005069Y0032321D02*
Y0031831D01*
X-0002161Y0033734D02*
X-0002563D01*
X-0001306Y0033824D02*
X-0001844D01*
X-0001388Y0033644D02*
X-0001761D01*
X-0002941Y0036895D02*
Y0033751D01*
X-0001771Y0036895D02*
Y0033723D01*
X-0001861Y0036895D02*
Y0033836D01*
X-0001951Y0036895D02*
Y0033865D01*
X0008860Y0031934D02*
X0002204D01*
X-0002041Y0033464D02*
Y0033262D01*
X0001828Y0031754D02*
X-0000718D01*
X0005024Y0031034D02*
X0002799D01*
X0005429Y0031639D02*
Y0031098D01*
X0005339Y0031525D02*
Y0031211D01*
X0005249Y0031496D02*
Y0031241D01*
X0005069Y0031574D02*
Y0031162D01*
X0007128Y0030674D02*
X0002956D01*
X0002639Y0036895D02*
Y0031215D01*
X0007395Y0031124D02*
X0005418D01*
X0007274Y0031034D02*
X0005439D01*
X0004652Y0033464D02*
X0004009D01*
X0003730Y0033644D02*
X-0000974D01*
X0004599Y0033824D02*
X0004061D01*
X0004517Y0033644D02*
X0004143D01*
X0004079Y0036895D02*
Y0033809D01*
X0003989Y0036895D02*
Y0033859D01*
X0004529Y0033589D02*
Y0025634D01*
X0003864Y0033464D02*
X-0001109D01*
X0004531Y0033734D02*
X0004130D01*
X0003809Y0036895D02*
Y0033821D01*
X0008860Y0033824D02*
X0004849D01*
X0008860Y0033734D02*
X0004917D01*
X0008860Y0033644D02*
X0004931D01*
X0004619Y0036895D02*
Y0033837D01*
X0004889Y0036895D02*
Y0033784D01*
X0004799Y0036895D02*
Y0033852D01*
X0004545Y0033554D02*
X0004116D01*
X0005041Y0033194D02*
X-0001804D01*
X0008860Y0031214D02*
X0005334D01*
X0008860Y0033554D02*
X0004903D01*
X0008860Y0033464D02*
X0005319D01*
X0008860Y0033374D02*
X0005414D01*
X0008860Y0033284D02*
X0005438D01*
X0008860Y0033194D02*
X0005422D01*
X0005429Y0033212D02*
Y0032514D01*
X0005339Y0033099D02*
Y0032627D01*
X0005249Y0033069D02*
Y0032657D01*
X0005159Y0033082D02*
Y0032644D01*
X0005429Y0036894D02*
Y0033340D01*
X0005249Y0036894D02*
Y0033483D01*
X0008860Y0032654D02*
X0005268D01*
X0008860Y0032564D02*
X0005404D01*
X0008860Y0032474D02*
X0005437D01*
X-0001951Y0032861D02*
Y0030045D01*
X0005095Y0032294D02*
X0002371D01*
X0008860Y0033104D02*
X0005347D01*
X0008860Y0032384D02*
X0005428D01*
X0005339Y0032273D02*
Y0031880D01*
X0003809Y0033495D02*
Y0027625D01*
X-0015901Y0030503D02*
Y0030318D01*
X-0001374Y0033734D02*
X-0001775D01*
X0003744D02*
X-0000988D01*
X-0002131Y0036895D02*
Y0033786D01*
X-0001051Y0036895D02*
Y0033820D01*
X-0001141Y0036895D02*
Y0033862D01*
X0004529Y0025233D02*
Y0025079D01*
X-0001360Y0033554D02*
X-0001789D01*
X0001618Y0032384D02*
X0001414D01*
X0005159Y0031508D02*
Y0031228D01*
X0005339Y0036894D02*
Y0033453D01*
X0005429Y0032386D02*
Y0031766D01*
X0008860Y0032294D02*
X0005368D01*
X0005159Y0036894D02*
Y0033470D01*
X0005069Y0036895D02*
Y0033404D01*
X0008860Y0031844D02*
X0005383D01*
X0008860Y0031754D02*
X0005432D01*
X-0001141Y0026054D02*
Y0025544D01*
X0002563Y0027434D02*
X0002132D01*
X-0007921Y0026174D02*
X-0008612D01*
X0005159Y0030840D02*
Y0026567D01*
X-0012391Y0027271D02*
Y0026583D01*
X-0011225Y0032272D02*
Y0031155D01*
X-0011245Y0031124D02*
X-0016441D01*
X-0007441Y0029248D02*
Y0028960D01*
X-0002371Y0026624D02*
X-0016441D01*
X-0000961Y0025906D02*
Y0025684D01*
X-0008835Y0026264D02*
X-0009273D01*
X-0009871Y0025466D02*
Y0025440D01*
X-0013741Y0025384D02*
Y0023384D01*
X-0008791Y0030926D02*
Y0027718D01*
X-0008971Y0031373D02*
Y0025778D01*
X-0009871Y0027351D02*
Y0025711D01*
X-0010861Y0030961D02*
Y0028351D01*
X-0011599Y0028244D02*
X-0016441D01*
X-0013021Y0036884D02*
Y0028664D01*
X-0013111Y0036884D02*
Y0028733D01*
X-0013201Y0036884D02*
Y0028747D01*
X-0014181Y0028514D02*
X-0016441D01*
X-0000650Y0028604D02*
X-0007289D01*
X-0007531Y0028570D02*
Y0028346D01*
X-0008423Y0028874D02*
X-0016441D01*
X-0011401Y0026169D02*
Y0025440D01*
X-0009192Y0031664D02*
X-0009216D01*
X-0002623Y0028964D02*
X-0016441D01*
X-0001128Y0026174D02*
X-0007825D01*
X-0002357Y0026534D02*
X-0007739D01*
X-0011581Y0036884D02*
Y0028272D01*
X-0008867Y0026354D02*
X-0009242D01*
X-0008521Y0026222D02*
Y0025440D01*
X-0008611Y0026174D02*
Y0025440D01*
X-0007801Y0029437D02*
Y0026570D01*
X-0007167Y0029774D02*
X-0007465D01*
X-0009211Y0025724D02*
X-0009882D01*
X-0008424D02*
X-0008897D01*
X-0008412Y0025440D02*
X-0008909D01*
X-0008469Y0025634D02*
X-0008852D01*
X-0008856Y0026444D02*
X-0009252D01*
X-0008611Y0031015D02*
Y0027758D01*
X-0000625Y0025904D02*
X-0016441D01*
X-0000633Y0025724D02*
X-0008110D01*
X-0000601Y0024622D02*
Y0023384D01*
X-0003741Y0025440D02*
X-0008122D01*
X-0001087Y0025634D02*
X-0008065D01*
X-0002288Y0026444D02*
X-0007678D01*
X-0008161Y0027969D02*
Y0025767D01*
X-0014821Y0034672D02*
Y0027165D01*
X-0008469Y0028784D02*
X-0016441D01*
X-0012031Y0036884D02*
Y0027475D01*
X-0012121Y0036884D02*
Y0027550D01*
X-0012211Y0036884D02*
Y0027567D01*
X0001760Y0027884D02*
X-0013027D01*
X-0009961Y0027387D02*
Y0025781D01*
X-0011491Y0026182D02*
Y0025440D01*
X-0012330Y0027524D02*
X-0016441D01*
X-0001867Y0027254D02*
X-0010648D01*
X-0013359Y0028424D02*
X-0013804D01*
X-0009582Y0026534D02*
X-0010101D01*
X0000713Y0027254D02*
X-0001721D01*
X-0008709Y0026174D02*
X-0009400D01*
X-0009241Y0025499D02*
Y0025440D01*
X-0009654Y0026354D02*
X-0010029D01*
X-0009331Y0026204D02*
Y0025440D01*
X0002099Y0028667D02*
Y0027518D01*
X-0008611Y0027355D02*
Y0026577D01*
X-0009601Y0026236D02*
Y0025440D01*
X-0010051Y0026280D02*
Y0025795D01*
X-0009623Y0026264D02*
X-0010061D01*
X-0007077Y0029864D02*
X-0007375D01*
X-0012382Y0027254D02*
X-0016441D01*
X-0010984Y0025454D02*
X-0011652D01*
X-0007250Y0031034D02*
X-0007460D01*
X-0011761Y0036884D02*
Y0025790D01*
X-0010591Y0036884D02*
Y0025440D01*
X-0012012Y0025544D02*
X-0012592D01*
X-0011968Y0025454D02*
X-0012636D01*
X-0010231Y0025512D02*
Y0025440D01*
X-0016171Y0024248D02*
Y0023384D01*
X-0011941Y0036884D02*
Y0025749D01*
X-0014911Y0026231D02*
Y0025591D01*
X-0011967Y0025724D02*
X-0012637D01*
X-0013831Y0025388D02*
Y0023384D01*
X-0013651Y0036884D02*
Y0025752D01*
X-0012997Y0025544D02*
X-0013576D01*
X-0010241Y0025634D02*
X-0010624D01*
X-0012751Y0036884D02*
Y0025791D01*
X-0012012Y0025634D02*
X-0012592D01*
X-0008352Y0031034D02*
X-0008601D01*
X-0016074Y0029954D02*
X-0016441D01*
X-0015994Y0029324D02*
X-0016441D01*
X-0007713Y0030944D02*
X-0008099D01*
X-0009935Y0033014D02*
X-0016441D01*
X-0007351Y0027972D02*
Y0025440D01*
X-0008470Y0028694D02*
X-0013048D01*
X0002580Y0030224D02*
X0002204D01*
X-0007261Y0029924D02*
Y0029680D01*
X-0009644Y0026444D02*
X-0010040D01*
X-0014731Y0026761D02*
Y0026581D01*
X-0010283Y0026174D02*
X-0011368D01*
X-0010141Y0026191D02*
Y0025768D01*
Y0036884D02*
Y0026560D01*
X-0010321Y0026187D02*
Y0025440D01*
X-0010184D02*
X-0010681D01*
X-0010411Y0026266D02*
Y0025440D01*
X-0008048Y0026264D02*
X-0008486D01*
X-0008791Y0026215D02*
Y0025440D01*
X-0013389Y0027704D02*
X-0013774D01*
X-0011595Y0027254D02*
X-0012025D01*
X-0011464Y0026174D02*
X-0012352D01*
X-0011221Y0026305D02*
Y0025440D01*
X-0011311Y0026197D02*
Y0025440D01*
X-0010231Y0036884D02*
Y0026583D01*
X-0011581Y0026250D02*
Y0025440D01*
X-0011550Y0026534D02*
X-0012267D01*
X-0011612Y0026444D02*
X-0012205D01*
X-0011622Y0026354D02*
X-0012194D01*
X-0012449Y0026174D02*
X-0013140D01*
X-0012301Y0026194D02*
Y0025440D01*
X-0010369Y0026534D02*
X-0011282D01*
X-0012391Y0026168D02*
Y0025440D01*
X-0012481Y0026185D02*
Y0025440D01*
X-0011041Y0030813D02*
Y0025440D01*
X-0012481Y0036884D02*
Y0026567D01*
X-0009496Y0026174D02*
X-0010187D01*
X-0012534Y0026534D02*
X-0013054D01*
X-0012607Y0026354D02*
X-0012982D01*
X-0011028Y0025544D02*
X-0011607D01*
X-0013341Y0027614D02*
X-0013822D01*
X-0013236Y0026174D02*
X-0013927D01*
X-0013021Y0026252D02*
Y0025440D01*
X-0013111Y0026183D02*
Y0025440D01*
X-0011491Y0027166D02*
Y0026569D01*
X-0013291Y0027574D02*
Y0026555D01*
X-0012571Y0026258D02*
Y0025440D01*
X-0013322Y0026534D02*
X-0013841D01*
X-0013205Y0028334D02*
X-0013959D01*
X-0014969Y0026984D02*
X-0015343D01*
X-0010009Y0027434D02*
X-0010632D01*
X-0014101Y0027589D02*
Y0027131D01*
X-0013394Y0026354D02*
X-0013769D01*
X-0012301Y0027177D02*
Y0026558D01*
X-0014958Y0026444D02*
X-0015354D01*
X-0013381Y0026301D02*
Y0025440D01*
X-0014969Y0026354D02*
X-0015344D01*
X0004169Y0036895D02*
Y0023384D01*
X0008860Y0028154D02*
X0002956D01*
X0003899Y0033454D02*
Y0027598D01*
X0008860Y0029864D02*
X0002956D01*
X0003719Y0036895D02*
Y0027607D01*
X0003629Y0036895D02*
Y0027514D01*
X0008860Y0027614D02*
X0003865D01*
X0008860Y0027524D02*
X0003967D01*
X0008860Y0027434D02*
X0003988D01*
X-0001141Y0025544D02*
X-0008064D01*
X0003612Y0027434D02*
X0002972D01*
X0002639Y0027238D02*
Y0023384D01*
X-0000601Y0025622D02*
Y0024970D01*
X-0000871Y0024713D02*
Y0023384D01*
X-0001099Y0025004D02*
X-0003741D01*
X-0000378Y0025184D02*
X-0003741D01*
X0002867Y0025364D02*
X-0000827D01*
X-0001051Y0025931D02*
Y0025660D01*
X-0008469Y0025544D02*
X-0008852D01*
X-0000781Y0024820D02*
Y0023384D01*
X-0000606Y0025634D02*
X-0000833D01*
X-0007981Y0026199D02*
Y0025440D01*
X-0000462Y0025454D02*
X-0000777D01*
X0002868D02*
X0001154D01*
X-0000781Y0026399D02*
Y0026157D01*
X0004605Y0026264D02*
X0001127D01*
X-0000961Y0029250D02*
Y0026282D01*
X-0000555Y0025544D02*
X-0000778D01*
X-0000781Y0026031D02*
Y0025553D01*
X-0000401Y0026174D02*
X-0000788D01*
X-0008069Y0026444D02*
X-0008465D01*
X0002580Y0028752D02*
Y0027488D01*
X-0000589Y0025994D02*
X-0000799D01*
X0000661Y0032294D02*
X-0002377D01*
X-0002935Y0033554D02*
X-0003918D01*
X-0000871Y0026450D02*
Y0026260D01*
X0000713Y0026534D02*
X-0000556D01*
X-0000241Y0036895D02*
Y0028650D01*
X-0001051Y0024714D02*
Y0023384D01*
X0005099Y0025634D02*
X0004531D01*
X0005008Y0025544D02*
X0004652D01*
X0004280Y0024824D02*
X0003272D01*
X0005339Y0030857D02*
Y0026588D01*
X0005080Y0025274D02*
X0004608D01*
X0005249Y0030827D02*
Y0026599D01*
X-0001231Y0036895D02*
Y0033859D01*
X0005108Y0026264D02*
X0004883D01*
X0008860Y0025634D02*
X0005285D01*
X0008860Y0026174D02*
X0004941D01*
X0008860Y0026084D02*
X0004950D01*
X0000713Y0026714D02*
X-0000605D01*
X-0001104Y0031728D02*
Y0029540D01*
X0001828Y0032024D02*
X-0002396D01*
X-0002763Y0032384D02*
X-0008596D01*
X-0002777Y0032204D02*
X-0008752D01*
X0000599Y0032474D02*
X-0002511D01*
X0000618Y0032384D02*
X-0002405D01*
X-0003301Y0036892D02*
Y0030388D01*
X-0007168Y0033644D02*
X-0016441D01*
X-0007081Y0030925D02*
Y0030300D01*
X-0007351Y0036884D02*
Y0030300D01*
X-0004201Y0036884D02*
Y0033845D01*
X-0003751Y0036887D02*
Y0030300D01*
X-0003931Y0033537D02*
Y0030300D01*
X-0004021Y0033474D02*
Y0030300D01*
X-0004111Y0033463D02*
Y0030300D01*
X-0004291Y0033617D02*
Y0030300D01*
X-0003841Y0036886D02*
Y0030300D01*
X-0004381Y0036884D02*
Y0030300D01*
X-0004831Y0036884D02*
Y0033874D01*
X-0004471Y0036884D02*
Y0030300D01*
X-0004651Y0033523D02*
Y0030300D01*
X-0004741Y0033470D02*
Y0030300D01*
X-0004921Y0033502D02*
Y0030300D01*
X-0007441Y0036884D02*
Y0030293D01*
X-0007171Y0030949D02*
Y0030300D01*
X-0005011Y0036884D02*
Y0030300D01*
X-0005101Y0036884D02*
Y0030300D01*
X-0005641Y0036884D02*
Y0033853D01*
X-0005191Y0036884D02*
Y0030300D01*
X-0005371Y0033558D02*
Y0030300D01*
X-0005461Y0033480D02*
Y0030300D01*
X-0005551Y0033462D02*
Y0030300D01*
X-0005731Y0033576D02*
Y0030300D01*
X-0005281Y0036884D02*
Y0030300D01*
X-0005821Y0036884D02*
Y0030300D01*
X-0006361Y0036884D02*
Y0033847D01*
X-0005911Y0036884D02*
Y0030300D01*
X-0006091Y0033541D02*
Y0030300D01*
X-0006271Y0033463D02*
Y0030300D01*
X-0007134Y0033554D02*
X-0016441D01*
X-0004561Y0036884D02*
Y0030300D01*
X-0006181Y0033475D02*
Y0030300D01*
X-0006451Y0033606D02*
Y0030300D01*
X-0006721Y0036884D02*
Y0030300D01*
X-0002772Y0031034D02*
X-0006910D01*
X-0003661Y0027412D02*
Y0023384D01*
X-0008085Y0029684D02*
X-0015023D01*
X-0003481Y0029540D02*
Y0027748D01*
X0000898Y0032114D02*
X-0002396D01*
X-0003391Y0036891D02*
Y0030300D01*
X-0006901Y0029509D02*
Y0027769D01*
X-0007267Y0031124D02*
X-0007443D01*
X-0001121Y0031844D02*
X-0002396D01*
X-0001104Y0031664D02*
X-0002396D01*
X-0001104Y0031574D02*
X-0002032D01*
X-0001104Y0031394D02*
X-0002001D01*
X-0003211Y0036893D02*
Y0030478D01*
X-0002168Y0033014D02*
X-0008316D01*
X-0001104Y0030314D02*
X-0002389D01*
X0002580D02*
X0002204D01*
X-0001104Y0031304D02*
X-0002012D01*
X-0001104Y0031214D02*
X-0002012D01*
Y0031364D02*
Y0030768D01*
X-0001104Y0029594D02*
X-0003109D01*
X-0001104Y0030134D02*
X-0002569D01*
X0001828Y0030854D02*
X-0000728D01*
X0008860Y0030224D02*
X0007842D01*
X-0001086Y0031934D02*
X-0002396D01*
X-0007891Y0029347D02*
Y0026582D01*
X-0003301Y0029540D02*
Y0027748D01*
X-0002941Y0033566D02*
Y0030748D01*
X-0001104Y0030224D02*
X-0002479D01*
X-0003481Y0036890D02*
Y0030300D01*
X-0007081Y0029329D02*
Y0025440D01*
X-0003841Y0029540D02*
Y0027748D01*
X-0003931Y0029540D02*
Y0027748D01*
X-0004021Y0029540D02*
Y0027748D01*
X-0004111Y0029540D02*
Y0027748D01*
X-0004201Y0029540D02*
Y0027748D01*
X-0004291Y0029540D02*
Y0027748D01*
X-0004381Y0029540D02*
Y0027748D01*
X-0004471Y0029540D02*
Y0027748D01*
X-0004561Y0029540D02*
Y0027748D01*
X-0004651Y0029540D02*
Y0027748D01*
X-0004741Y0029540D02*
Y0027748D01*
X-0004831Y0029540D02*
Y0027748D01*
X-0004921Y0029540D02*
Y0027748D01*
X-0005011Y0029540D02*
Y0027748D01*
X-0002700Y0029324D02*
X-0007087D01*
X-0005191Y0029540D02*
Y0027748D01*
X-0005281Y0029540D02*
Y0027748D01*
X-0005371Y0029540D02*
Y0027748D01*
X-0005461Y0029540D02*
Y0027748D01*
X-0005551Y0029540D02*
Y0027748D01*
X-0005641Y0029540D02*
Y0027748D01*
X-0005731Y0029540D02*
Y0027748D01*
X-0005821Y0029540D02*
Y0027748D01*
X-0005911Y0029540D02*
Y0027748D01*
X-0006001Y0029540D02*
Y0027748D01*
X-0006091Y0029540D02*
Y0027748D01*
X-0006181Y0029540D02*
Y0027748D01*
X-0006271Y0029540D02*
Y0027748D01*
X-0006721Y0029540D02*
Y0027764D01*
X0007135Y0030764D02*
X0002956D01*
X0002580Y0030674D02*
X0002204D01*
X0007437Y0029144D02*
X0002956D01*
X0008860Y0029234D02*
X0002956D01*
X0008860Y0030134D02*
X0002956D01*
X0008860Y0030044D02*
X0002956D01*
X0008860Y0029954D02*
X0002956D01*
X-0011225Y0031394D02*
X-0016441D01*
X0007295Y0029054D02*
X0002956D01*
X0008860Y0028064D02*
X0002956D01*
X0008860Y0027974D02*
X0002956D01*
X0008860Y0029324D02*
X0002956D01*
X0008860Y0028244D02*
X0007881D01*
X0002549Y0030754D02*
Y0023384D01*
X0007137Y0030584D02*
X0002956D01*
X0005128Y0030854D02*
X0002948D01*
X0002279Y0032189D02*
Y0023384D01*
X0001739Y0029081D02*
Y0027484D01*
X0002009Y0029809D02*
Y0029349D01*
X0001829Y0032141D02*
Y0030105D01*
X0001919Y0029833D02*
Y0029363D01*
X0007216Y0028964D02*
X0002956D01*
X0002096Y0028684D02*
Y0027521D01*
X0002580Y0028244D02*
X0002096D01*
X-0007257Y0029684D02*
X-0007555D01*
X0002729Y0036895D02*
Y0031105D01*
X0007380Y0028244D02*
X0002956D01*
X0007266Y0028334D02*
X0002956D01*
X0001760Y0027794D02*
X-0012985D01*
X0002568Y0028784D02*
X0002100D01*
X0001760Y0028244D02*
X0000066D01*
X0002909Y0036895D02*
Y0030924D01*
X0007139Y0028784D02*
X0002968D01*
X-0014136Y0027884D02*
X-0016441D01*
X0001764Y0028784D02*
X-0007229D01*
X0002459Y0030844D02*
Y0023384D01*
X0003757Y0033554D02*
X-0001002D01*
X0001828Y0031574D02*
X-0000728D01*
X0001828Y0031484D02*
X-0000728D01*
X0001828Y0031394D02*
X-0000728D01*
X0005044Y0031124D02*
X0002717D01*
X0001828Y0031034D02*
X-0000728D01*
X0001828Y0030944D02*
X-0000728D01*
X0001828Y0032114D02*
X0001134D01*
X0002338Y0031124D02*
X0002204D01*
X0002563Y0028874D02*
X0002100D01*
X0002344Y0030944D02*
X0002204D01*
X-0007725Y0030044D02*
X-0014962D01*
X0001828Y0030674D02*
X-0000728D01*
X-0011225Y0031304D02*
X-0016441D01*
X-0011225Y0032204D02*
X-0016441D01*
X-0011225Y0032114D02*
X-0016441D01*
X-0011225Y0032024D02*
X-0016441D01*
X-0011225Y0031934D02*
X-0016441D01*
X-0011225Y0031844D02*
X-0016441D01*
X-0003195Y0030494D02*
X-0016441D01*
X-0011246Y0032474D02*
X-0016441D01*
X-0011239Y0032294D02*
X-0016441D01*
X0002956Y0030800D02*
Y0028928D01*
X-0009509Y0031124D02*
X-0010875D01*
X-0009492Y0031034D02*
X-0010853D01*
X-0009480Y0031214D02*
X-0010887D01*
X-0010861Y0036884D02*
Y0032463D01*
X-0011225Y0031664D02*
X-0016441D01*
X-0011172Y0032564D02*
X-0016441D01*
X-0006631Y0029540D02*
Y0027748D01*
X-0012397Y0027434D02*
X-0016441D01*
X-0003121Y0029583D02*
Y0027748D01*
X-0002401Y0032182D02*
Y0031501D01*
X-0000871Y0029249D02*
Y0026714D01*
X-0002132Y0029684D02*
X-0003019D01*
X0004799Y0025910D02*
Y0023384D01*
X0001289Y0032198D02*
Y0029301D01*
X0000749Y0032193D02*
Y0029302D01*
X0004534Y0026804D02*
X0001127D01*
X0000569Y0028948D02*
Y0026026D01*
X0003763Y0027254D02*
X0002915D01*
X-0002237Y0026804D02*
X-0013846D01*
X-0002761Y0033451D02*
Y0032387D01*
X0002580Y0028694D02*
X0002100D01*
X0002956Y0028752D02*
Y0027488D01*
X-0001104Y0031124D02*
X-0002012D01*
X0005069Y0031574D02*
X0002204D01*
X0008860Y0032024D02*
X0002204D01*
X0008860Y0031484D02*
X0002204D01*
X0008860Y0031394D02*
X0002204D01*
X0001828Y0031304D02*
X-0000728D01*
X-0000398Y0028635D02*
Y0027950D01*
X-0000488Y0028635D02*
Y0027950D01*
X-0000578Y0028635D02*
Y0027950D01*
X-0000668Y0028635D02*
Y0027950D01*
X0000000Y0028620D02*
X-0000708D01*
X0000000Y0028530D02*
X-0000708D01*
X0000000Y0028440D02*
X-0000708D01*
X0000000Y0028350D02*
X-0000708D01*
X0000000Y0028260D02*
X-0000708D01*
X0000000Y0028170D02*
X-0000708D01*
X0000000Y0028080D02*
X-0000708D01*
X0000000Y0027990D02*
X-0000708D01*
Y0028635D02*
Y0027950D01*
X0000000D02*
X-0000708D01*
X0000000Y0028635D02*
Y0027950D01*
Y0028635D02*
X-0000708D01*
X-0000038D02*
Y0027950D01*
X-0000128Y0028635D02*
Y0027950D01*
X-0000218Y0028635D02*
Y0027950D01*
X-0000308Y0028635D02*
Y0027950D01*
G01X-0013975Y0026759D02*
G03X-0013768Y0026966I0000000J0000207D01*
G03X-0013975Y0027173I0000207J0000000D01*
G03X-0014182Y0026966I0000000J0000207D01*
G01X-0014183Y0028541D02*
G03X-0013975Y0028333I0000208J0000000D01*
G03X-0013767Y0028541I0000000J0000208D01*
G01X-0013768D02*
G03X-0013975Y0028748I0000207J0000000D01*
G03X-0014182Y0028541I0000000J0000207D01*
G01X-0014183Y0027753D02*
G03X-0013975Y0027545I0000208J0000000D01*
Y0027546D02*
G03X-0013768Y0027753I0000000J0000207D01*
G03X-0013975Y0027960I0000207J0000000D01*
Y0027961D02*
G03X-0014183Y0027753I0000000J0000208D01*
G01X-0013395D02*
G03X-0013188Y0027546I0000207J0000000D01*
G03X-0012981Y0027753I0000000J0000207D01*
G03X-0013188Y0027960I0000207J0000000D01*
Y0027961D02*
G03X-0013396Y0027753I0000000J0000208D01*
G01X-0011624Y0028147D02*
G03X-0011416Y0027939I0000208J0000000D01*
Y0027940D02*
G03X-0011209Y0028147I0000000J0000207D01*
G03X-0011416Y0028354I0000207J0000000D01*
G03X-0011623Y0028147I0000000J0000207D01*
G01X-0002963Y0033658D02*
G03X-0002756Y0033451I0000207J0000000D01*
G03X-0002549Y0033658I0000000J0000207D01*
G01X-0002548D02*
G03X-0002756Y0033866I0000208J0000000D01*
G03X-0002964Y0033658I0000000J0000208D01*
G01X-0002176Y0033068D02*
G03X-0001968Y0032860I0000208J0000000D01*
Y0032861D02*
G03X-0001761Y0033068I0000000J0000207D01*
G03X-0001968Y0033275I0000207J0000000D01*
G03X-0002175Y0033068I0000000J0000207D01*
G01X-0002176Y0033658D02*
G03X-0001968Y0033450I0000208J0000000D01*
Y0033451D02*
G03X-0001761Y0033658I0000000J0000207D01*
G03X-0001968Y0033865I0000207J0000000D01*
Y0033866D02*
G03X-0002176Y0033658I0000000J0000208D01*
G01X0005024Y0031034D02*
G03X0005231Y0030827I0000207J0000000D01*
G03X0005438Y0031034I0000000J0000207D01*
G01X0005439D02*
G03X0005231Y0031242I0000208J0000000D01*
Y0031241D02*
G03X0005024Y0031034I0000000J0000207D01*
G01X0003729Y0033658D02*
G03X0003937Y0033450I0000208J0000000D01*
Y0033451D02*
G03X0004144Y0033658I0000000J0000207D01*
G03X0003937Y0033865I0000207J0000000D01*
Y0033866D02*
G03X0003729Y0033658I0000000J0000208D01*
G01X0004517D02*
G03X0004724Y0033451I0000207J0000000D01*
G03X0004931Y0033658I0000000J0000207D01*
G03X0004724Y0033865I0000207J0000000D01*
Y0033866D02*
G03X0004516Y0033658I0000000J0000208D01*
G01X0005024Y0033276D02*
G03X0005231Y0033069I0000207J0000000D01*
G03X0005438Y0033276I0000000J0000207D01*
G01X0005439D02*
G03X0005231Y0033484I0000208J0000000D01*
Y0033483D02*
G03X0005024Y0033276I0000000J0000207D01*
Y0032450D02*
G03X0005231Y0032243I0000207J0000000D01*
G03X0005438Y0032450I0000000J0000207D01*
G01X0005439D02*
G03X0005231Y0032658I0000208J0000000D01*
Y0032657D02*
G03X0005024Y0032450I0000000J0000207D01*
G01X-0001388Y0033658D02*
G03X-0001181Y0033451I0000207J0000000D01*
G03X-0000974Y0033658I0000000J0000207D01*
G03X-0001181Y0033865I0000207J0000000D01*
Y0033866D02*
G03X-0001389Y0033658I0000000J0000208D01*
G01X0005024Y0031703D02*
G03X0005231Y0031496I0000207J0000000D01*
Y0031495D02*
G03X0005439Y0031703I0000000J0000208D01*
G03X0005231Y0031911I0000208J0000000D01*
Y0031910D02*
G03X0005024Y0031703I0000000J0000207D01*
G01X-0008081Y0026376D02*
G03X-0007873Y0026168I0000208J0000000D01*
G03X-0007665Y0026376I0000000J0000208D01*
G01X-0007666D02*
G03X-0007873Y0026583I0000207J0000000D01*
G03X-0008080Y0026376I0000000J0000207D01*
G01X-0009831Y0025588D02*
G03X-0010039Y0025796I0000208J0000000D01*
G03X-0010247Y0025588I0000000J0000208D01*
G01X-0013395Y0028541D02*
G03X-0013188Y0028334I0000207J0000000D01*
Y0028333D02*
G03X-0012980Y0028541I0000000J0000208D01*
G01X-0012981D02*
G03X-0013188Y0028748I0000207J0000000D01*
G03X-0013395Y0028541I0000000J0000207D01*
G01X-0008868Y0026376D02*
G03X-0008661Y0026169I0000207J0000000D01*
Y0026168D02*
G03X-0008453Y0026376I0000000J0000208D01*
G03X-0008661Y0026584I0000208J0000000D01*
Y0026583D02*
G03X-0008868Y0026376I0000000J0000207D01*
G01X-0009893Y0025440D02*
G03X-0009831Y0025588I0000146J0000148D01*
G01X-0008847D02*
G03X-0009054Y0025795I0000207J0000000D01*
Y0025796D02*
G03X-0009262Y0025588I0000000J0000208D01*
G03X-0009199Y0025440I0000208J0000000D01*
G01X-0008909D02*
G03X-0008847Y0025588I0000145J0000148D01*
G01X-0008060D02*
G03X-0008267Y0025795I0000207J0000000D01*
Y0025796D02*
G03X-0008475Y0025588I0000000J0000208D01*
G01X-0012411Y0027360D02*
G03X-0012204Y0027153I0000207J0000000D01*
Y0027152D02*
G03X-0011996Y0027360I0000000J0000208D01*
G03X-0012204Y0027568I0000208J0000000D01*
Y0027567D02*
G03X-0012411Y0027360I0000000J0000207D01*
G01X-0009655Y0026376D02*
G03X-0009448Y0026169I0000207J0000000D01*
Y0026168D02*
G03X-0009240Y0026376I0000000J0000208D01*
G01X-0009241D02*
G03X-0009448Y0026583I0000207J0000000D01*
G03X-0009655Y0026376I0000000J0000207D01*
G01X-0010246Y0025588D02*
G03X-0010184Y0025440I0000207J0000000D01*
G01X-0010619Y0025588D02*
G03X-0010826Y0025795I0000207J0000000D01*
Y0025796D02*
G03X-0011034Y0025588I0000000J0000208D01*
G01X-0011033D02*
G03X-0010971Y0025440I0000207J0000000D01*
G01X-0010681D02*
G03X-0010619Y0025588I0000145J0000148D01*
G01X-0011603D02*
G03X-0011810Y0025795I0000207J0000000D01*
Y0025796D02*
G03X-0012018Y0025588I0000000J0000208D01*
G01X-0012017D02*
G03X-0011955Y0025440I0000207J0000000D01*
G01X-0011665D02*
G03X-0011603Y0025588I0000145J0000148D01*
G01X-0012587D02*
G03X-0012794Y0025795I0000207J0000000D01*
Y0025796D02*
G03X-0013002Y0025588I0000000J0000208D01*
G01X-0013986D02*
G03X-0013778Y0025380I0000208J0000000D01*
Y0025381D02*
G03X-0013571Y0025588I0000000J0000207D01*
G03X-0013778Y0025795I0000207J0000000D01*
Y0025796D02*
G03X-0013986Y0025588I0000000J0000208D01*
G01X-0008474Y0028738D02*
G03X-0008267Y0028531I0000207J0000000D01*
Y0028530D02*
G03X-0008059Y0028738I0000000J0000208D01*
G01X-0008060D02*
G03X-0008267Y0028945I0000207J0000000D01*
G03X-0008474Y0028738I0000000J0000207D01*
G01X-0010443Y0026376D02*
G03X-0010235Y0026168I0000208J0000000D01*
G03X-0010027Y0026376I0000000J0000208D01*
G01X-0010028D02*
G03X-0010235Y0026583I0000207J0000000D01*
G03X-0010442Y0026376I0000000J0000207D01*
G01X-0011624D02*
G03X-0011416Y0026168I0000208J0000000D01*
G03X-0011208Y0026376I0000000J0000208D01*
G01X-0011209D02*
G03X-0011416Y0026583I0000207J0000000D01*
G03X-0011623Y0026376I0000000J0000207D01*
G01X-0012608D02*
G03X-0012401Y0026169I0000207J0000000D01*
Y0026168D02*
G03X-0012193Y0026376I0000000J0000208D01*
G03X-0012401Y0026584I0000208J0000000D01*
Y0026583D02*
G03X-0012608Y0026376I0000000J0000207D01*
G01X-0013395D02*
G03X-0013188Y0026169I0000207J0000000D01*
Y0026168D02*
G03X-0012980Y0026376I0000000J0000208D01*
G01X-0012981D02*
G03X-0013188Y0026583I0000207J0000000D01*
G03X-0013395Y0026376I0000000J0000207D01*
G01X-0014183D02*
G03X-0013975Y0026168I0000208J0000000D01*
G03X-0013767Y0026376I0000000J0000208D01*
G01X-0013768D02*
G03X-0013975Y0026583I0000207J0000000D01*
G03X-0014182Y0026376I0000000J0000207D01*
G01X0003612Y0027438D02*
G03X0003800Y0027250I0000188J0000000D01*
G03X0003988Y0027438I0000000J0000188D01*
G03X0003800Y0027626I0000188J0000000D01*
G03X0003612Y0027438I0000000J0000188D01*
G01X-0001148Y0024878D02*
G03X-0000960Y0024690I0000188J0000000D01*
G03X-0000772Y0024878I0000000J0000188D01*
G03X-0000960Y0025066I0000188J0000000D01*
G03X-0001148Y0024878I0000000J0000188D01*
Y0025496D02*
G03X-0000960Y0025308I0000188J0000000D01*
G03X-0000772Y0025496I0000000J0000188D01*
G03X-0000960Y0025684I0000188J0000000D01*
G03X-0001148Y0025496I0000000J0000188D01*
G01X-0001146Y0026094D02*
G03X-0000958Y0025906I0000188J0000000D01*
G03X-0000770Y0026094I0000000J0000188D01*
G03X-0000958Y0026282I0000188J0000000D01*
G03X-0001146Y0026094I0000000J0000188D01*
G01X0004985Y0025449D02*
G03X0005192Y0025242I0000207J0000000D01*
Y0025241D02*
G03X0005400Y0025449I0000000J0000208D01*
G01X0005399D02*
G03X0005192Y0025656I0000207J0000000D01*
G03X0004985Y0025449I0000000J0000207D01*
G01X0004537Y0026110D02*
G03X0004744Y0025903I0000207J0000000D01*
G03X0004951Y0026110I0000000J0000207D01*
G03X0004744Y0026317I0000207J0000000D01*
G03X0004537Y0026110I0000000J0000207D01*
G01X0005063Y0026393D02*
G03X0005271Y0026185I0000208J0000000D01*
G03X0005479Y0026393I0000000J0000208D01*
G01X0005478D02*
G03X0005271Y0026600I0000207J0000000D01*
G03X0005064Y0026393I0000000J0000207D01*
G01X0004533Y0026780D02*
G03X0004740Y0026573I0000207J0000000D01*
G03X0004947Y0026780I0000000J0000207D01*
G03X0004740Y0026987I0000207J0000000D01*
G03X0004533Y0026780I0000000J0000207D01*
G01X0003573Y0023688D02*
G03X0003780Y0023481I0000207J0000000D01*
G03X0003987Y0023688I0000000J0000207D01*
G03X0003780Y0023895I0000207J0000000D01*
G03X0003573Y0023688I0000000J0000207D01*
Y0024318D02*
G03X0003780Y0024111I0000207J0000000D01*
G03X0003987Y0024318I0000000J0000207D01*
G03X0003780Y0024525I0000207J0000000D01*
G03X0003573Y0024318I0000000J0000207D01*
G01X0004263Y0024310D02*
G03X0004470Y0024103I0000207J0000000D01*
G03X0004677Y0024310I0000000J0000207D01*
G03X0004470Y0024517I0000207J0000000D01*
G03X0004263Y0024310I0000000J0000207D01*
G01X0004269Y0023728D02*
G03X0004476Y0023521I0000207J0000000D01*
G03X0004683Y0023728I0000000J0000207D01*
G03X0004476Y0023935I0000207J0000000D01*
G03X0004269Y0023728I0000000J0000207D01*
G01X0004273Y0024878D02*
G03X0004480Y0024671I0000207J0000000D01*
G03X0004687Y0024878I0000000J0000207D01*
G03X0004480Y0025085I0000207J0000000D01*
G03X0004273Y0024878I0000000J0000207D01*
G01X0004269Y0025434D02*
G03X0004476Y0025227I0000207J0000000D01*
G03X0004683Y0025434I0000000J0000207D01*
G03X0004476Y0025641I0000207J0000000D01*
G03X0004269Y0025434I0000000J0000207D01*
G01X0002861Y0023732D02*
G03X0003068Y0023525I0000207J0000000D01*
G03X0003275Y0023732I0000000J0000207D01*
G03X0003068Y0023939I0000207J0000000D01*
G03X0002861Y0023732I0000000J0000207D01*
G01X0002863Y0024318D02*
G03X0003070Y0024111I0000207J0000000D01*
G03X0003277Y0024318I0000000J0000207D01*
G03X0003070Y0024525I0000207J0000000D01*
G03X0002863Y0024318I0000000J0000207D01*
Y0024870D02*
G03X0003070Y0024663I0000207J0000000D01*
G03X0003277Y0024870I0000000J0000207D01*
G03X0003070Y0025077I0000207J0000000D01*
G03X0002863Y0024870I0000000J0000207D01*
Y0025408D02*
G03X0003070Y0025201I0000207J0000000D01*
G03X0003277Y0025408I0000000J0000207D01*
G03X0003070Y0025615I0000207J0000000D01*
G03X0002863Y0025408I0000000J0000207D01*
G01X-0000926Y0026582D02*
G03X-0000738Y0026394I0000188J0000000D01*
G03X-0000550Y0026582I0000000J0000188D01*
G03X-0000738Y0026770I0000188J0000000D01*
G03X-0000926Y0026582I0000000J0000188D01*
G01X-0002371Y0026610D02*
G03X-0002164Y0026403I0000207J0000000D01*
G03X-0001957Y0026610I0000000J0000207D01*
G03X-0002164Y0026817I0000207J0000000D01*
G03X-0002371Y0026610I0000000J0000207D01*
G01X-0002001Y0027060D02*
G03X-0001794Y0026853I0000207J0000000D01*
G03X-0001587Y0027060I0000000J0000207D01*
G03X-0001794Y0027267I0000207J0000000D01*
G03X-0002001Y0027060I0000000J0000207D01*
G01X-0001597Y0027496D02*
G03X-0001390Y0027289I0000207J0000000D01*
G03X-0001183Y0027496I0000000J0000207D01*
G03X-0001390Y0027703I0000207J0000000D01*
G03X-0001597Y0027496I0000000J0000207D01*
G01X-0002775Y0029164D02*
G03X-0002568Y0028957I0000207J0000000D01*
G03X-0002361Y0029164I0000000J0000207D01*
G03X-0002568Y0029371I0000207J0000000D01*
G03X-0002775Y0029164I0000000J0000207D01*
G01X-0002207Y0029844D02*
G03X-0002000Y0029637I0000207J0000000D01*
G03X-0001793Y0029844I0000000J0000207D01*
G03X-0002000Y0030051I0000207J0000000D01*
G03X-0002207Y0029844I0000000J0000207D01*
G01X-0002201Y0029170D02*
G03X-0001994Y0028963I0000207J0000000D01*
G03X-0001787Y0029170I0000000J0000207D01*
G03X-0001994Y0029377I0000207J0000000D01*
G03X-0002201Y0029170I0000000J0000207D01*
G01X-0001665Y0029178D02*
G03X-0001458Y0028971I0000207J0000000D01*
G03X-0001251Y0029178I0000000J0000207D01*
G03X-0001458Y0029385I0000207J0000000D01*
G03X-0001665Y0029178I0000000J0000207D01*
G01X0001125Y0029098D02*
G03X0001332Y0028891I0000207J0000000D01*
G03X0001539Y0029098I0000000J0000207D01*
G03X0001332Y0029305I0000207J0000000D01*
G03X0001125Y0029098I0000000J0000207D01*
G01X0000505D02*
G03X0000712Y0028891I0000207J0000000D01*
G03X0000919Y0029098I0000000J0000207D01*
G03X0000712Y0029305I0000207J0000000D01*
G03X0000505Y0029098I0000000J0000207D01*
G01X0000070Y0028477D02*
G03X-0000118Y0028665I0000188J0000000D01*
G01X0007128Y0026743D02*
G03X0007631Y0026240I0000503J0000000D01*
G03X0008134Y0026743I0000000J0000503D01*
G01X0008133D02*
G03X0007631Y0027245I0000502J0000000D01*
Y0027246D02*
G03X0007128Y0026743I0000000J0000503D01*
Y0028680D02*
G03X0007631Y0028177I0000503J0000000D01*
G03X0008134Y0028680I0000000J0000503D01*
G01X0008133D02*
G03X0007631Y0029182I0000502J0000000D01*
Y0029183D02*
G03X0007128Y0028680I0000000J0000503D01*
Y0030680D02*
G03X0007631Y0030177I0000503J0000000D01*
G03X0008134Y0030680I0000000J0000503D01*
G01X0008133D02*
G03X0007631Y0031182I0000502J0000000D01*
Y0031183D02*
G03X0007128Y0030680I0000000J0000503D01*
G01X0002435Y0032516D02*
G03X0002016Y0032935I0000419J0000000D01*
G03X0001597Y0032516I0000000J0000419D01*
G01X0000597D02*
G03X0001016Y0032097I0000419J0000000D01*
G03X0001435Y0032516I0000000J0000419D01*
G03X0001016Y0032935I0000419J0000000D01*
G03X0000597Y0032516I0000000J0000419D01*
G01X0000505Y0025804D02*
G03X0000924Y0025385I0000419J0000000D01*
G03X0001343Y0025804I0000000J0000419D01*
G01X0000505Y0024804D02*
G03X0000924Y0024385I0000419J0000000D01*
G03X0001343Y0024804I0000000J0000419D01*
G03X0000924Y0025223I0000419J0000000D01*
G03X0000505Y0024804I0000000J0000419D01*
G01X-0000639Y0025796D02*
G03X-0000220Y0025377I0000419J0000000D01*
G03X0000199Y0025796I0000000J0000419D01*
G03X-0000220Y0026215I0000419J0000000D01*
G03X-0000639Y0025796I0000000J0000419D01*
Y0024796D02*
G03X-0000220Y0024377I0000419J0000000D01*
G03X0000199Y0024796I0000000J0000419D01*
G03X-0000220Y0025215I0000419J0000000D01*
G03X-0000639Y0024796I0000000J0000419D01*
G01X-0016227Y0024583D02*
G03X-0015183Y0023539I0001044J0000000D01*
G03X-0014139Y0024583I0000000J0001044D01*
G03X-0015183Y0025627I0001044J0000000D01*
G03X-0016227Y0024583I0000000J0001044D01*
G01X-0016266Y0035636D02*
G03X-0015222Y0034592I0001044J0000000D01*
G03X-0014178Y0035636I0000000J0001044D01*
G03X-0015222Y0036680I0001044J0000000D01*
G03X-0016266Y0035636I0000000J0001044D01*
G01X0006469Y0024583D02*
G03X0007513Y0023539I0001044J0000000D01*
G03X0008557Y0024583I0000000J0001044D01*
G03X0007513Y0025627I0001044J0000000D01*
G03X0006469Y0024583I0000000J0001044D01*
G01X0006390Y0035439D02*
G03X0007434Y0034395I0001044J0000000D01*
G03X0008478Y0035439I0000000J0001044D01*
G03X0007434Y0036483I0001044J0000000D01*
G03X0006390Y0035439I0000000J0001044D01*
G01X-0013002Y0025588D02*
G03X-0012939Y0025440I0000208J0000000D01*
G01X0002580Y0027488D02*
G03X0002560Y0027400I0000188J0000088D01*
G01X0002956Y0030800D02*
G03X0002901Y0030933I0000188J0000000D01*
G01X0002223Y0030016D02*
G03X0002204Y0030104I0000207J0000000D01*
G01X0001828D02*
G03X0001808Y0030016I0000188J0000088D01*
G01X-0009047Y0032638D02*
G03X-0009204Y0032552I0000000J0000188D01*
G01X-0006694Y0027748D02*
G03X-0006816Y0027788I0000122J0000168D01*
G01X-0008474Y0025588D02*
G03X-0008412Y0025440I0000207J0000000D01*
G01X-0008122D02*
G03X-0008060Y0025588I0000145J0000148D01*
G01X-0002924Y0027787D02*
G03X-0003045Y0027748I0000000J0000207D01*
G01X-0011225Y0031155D02*
G03X-0011267Y0031030I0000165J0000125D01*
G01X-0007358Y0029583D02*
G03X-0007495Y0029388I0000070J0000195D01*
G01X-0009361Y0031358D02*
G03X-0009204Y0031443I0000000J0000187D01*
G01X-0012649Y0025440D02*
G03X-0012587Y0025588I0000145J0000148D01*
G01X0002975Y0027400D02*
G03X0002956Y0027488I0000207J0000000D01*
G01X-0009047Y0031358D02*
G03X-0008909Y0031418I0000000J0000187D01*
G01X-0011263Y0032392D02*
G03X-0011225Y0032272I0000207J0000000D01*
G01X-0009204Y0032552D02*
G03X-0009361Y0032637I0000157J0000102D01*
G01X-0006816Y0027373D02*
G03X-0006694Y0027412I0000000J0000207D01*
G01X-0002377Y0032280D02*
G03X-0002584Y0032487I0000207J0000000D01*
G03X-0002791Y0032280I0000000J0000207D01*
G03X-0002772Y0032192I0000207J0000000D01*
G01X-0007392Y0030300D02*
G03X-0007525Y0030245I0000000J0000188D01*
G01X-0008327Y0029396D02*
G03X-0008120Y0029189I0000207J0000000D01*
G03X-0007934Y0029305I0000000J0000207D01*
G01X-0002067Y0030635D02*
G03X-0002012Y0030768I0000133J0000133D01*
G01X-0002396Y0032192D02*
G03X-0002376Y0032280I0000188J0000088D01*
G01X-0001993Y0031452D02*
G03X-0002200Y0031659I0000207J0000000D01*
G01X-0003240Y0029540D02*
G03X-0003107Y0029595I0000000J0000188D01*
G01X-0006948Y0029916D02*
G03X-0007081Y0029861I0000000J0000188D01*
G01X-0003240Y0029540D02*
G03X-0003107Y0029595I0000000J0000188D01*
G01X-0008173Y0029596D02*
G03X-0008327Y0029396I0000053J0000200D01*
G01X-0000699Y0028281D02*
G03X-0000671Y0028182I0000188J0000000D01*
G01X-0007495Y0029388D02*
G03X-0007288Y0029181I0000207J0000000D01*
G03X-0007093Y0029318I0000000J0000207D01*
G01X-0008327Y0029396D02*
G03X-0008120Y0029189I0000207J0000000D01*
G03X-0007934Y0029305I0000000J0000207D01*
G01X-0011267Y0031020D02*
G03X-0011060Y0030813I0000207J0000000D01*
G03X-0010853Y0031020I0000000J0000207D01*
G01X0002561Y0028840D02*
G03X0002580Y0028752I0000207J0000000D01*
G01X0002975Y0027400D02*
G03X0002956Y0027488I0000207J0000000D01*
Y0028752D02*
G03X0002976Y0028840I0000188J0000088D01*
G01X0002580Y0028928D02*
G03X0002560Y0028840I0000188J0000088D01*
G01X0001597Y0032516D02*
G03X0001828Y0032141I0000419J0000000D01*
G01X0002561Y0027400D02*
G03X0002768Y0027193I0000207J0000000D01*
G03X0002975Y0027400I0000000J0000207D01*
G01X0002956Y0030800D02*
G03X0002901Y0030933I0000188J0000000D01*
G01X0002321Y0031040D02*
G03X0002458Y0030845I0000207J0000000D01*
G01X0002723Y0031110D02*
G03X0002528Y0031247I0000195J0000070D01*
G03X0002321Y0031040I0000000J0000207D01*
G01X0002139Y0029156D02*
G03X0001932Y0029363I0000207J0000000D01*
G03X0001725Y0029156I0000000J0000207D01*
G03X0001764Y0029034I0000207J0000000D01*
G01X-0000118Y0028665D02*
G03X-0000216Y0028637I0000000J0000188D01*
G01X0001721Y0027400D02*
G03X0001928Y0027193I0000207J0000000D01*
G03X0002135Y0027400I0000000J0000207D01*
G01X0001809Y0030016D02*
G03X0002016Y0029809I0000207J0000000D01*
G03X0002223Y0030016I0000000J0000207D01*
G01X0002561Y0027400D02*
G03X0002768Y0027193I0000207J0000000D01*
G03X0002975Y0027400I0000000J0000207D01*
G01X0001760Y0027521D02*
G03X0001721Y0027400I0000168J0000121D01*
G01X-0010849Y0032392D02*
G03X-0011056Y0032599I0000207J0000000D01*
G03X-0011263Y0032392I0000000J0000207D01*
G01X-0007495Y0029388D02*
G03X-0007288Y0029181I0000207J0000000D01*
G03X-0007093Y0029318I0000000J0000207D01*
G01X0001127Y0027296D02*
G03X0000920Y0027503I0000207J0000000D01*
G03X0000713Y0027296I0000000J0000207D01*
G01X-0000709Y0031816D02*
G03X-0000916Y0032023I0000207J0000000D01*
G03X-0001123Y0031816I0000000J0000207D01*
Y0029452D02*
G03X-0000916Y0029245I0000207J0000000D01*
G03X-0000709Y0029452I0000000J0000207D01*
G01X-0002924Y0027373D02*
G03X-0002717Y0027580I0000000J0000207D01*
G03X-0002924Y0027787I0000207J0000000D01*
G01X-0007023Y0027580D02*
G03X-0006816Y0027373I0000207J0000000D01*
Y0027787D02*
G03X-0007023Y0027580I0000000J0000207D01*
G01X-0008771Y0032262D02*
G03X-0008583Y0032450I0000000J0000188D01*
G01X-0008584D02*
G03X-0008771Y0032637I0000187J0000000D01*
Y0031830D02*
G03X-0008584Y0032017I0000000J0000187D01*
G03X-0008771Y0032204I0000187J0000000D01*
Y0031358D02*
G03X-0008584Y0031545I0000000J0000187D01*
G03X-0008771Y0031732I0000187J0000000D01*
G01X-0009549Y0032450D02*
G03X-0009361Y0032262I0000188J0000000D01*
G01X-0008909Y0032322D02*
G03X-0008771Y0032262I0000138J0000128D01*
Y0032638D02*
G03X-0008909Y0032577I0000000J0000188D01*
G01X-0009361Y0032638D02*
G03X-0009549Y0032450I0000000J0000188D01*
G01X0000070Y0028084D02*
G03X0000042Y0028182I0000188J0000000D01*
G01X0002580Y0027488D02*
G03X0002560Y0027400I0000188J0000088D01*
G01X-0008909Y0032577D02*
G03X-0009047Y0032638I0000138J0000127D01*
G01X-0009204Y0031648D02*
G03X-0009361Y0031733I0000157J0000103D01*
G01X-0000216Y0028637D02*
G03X-0000315Y0028665I0000099J0000160D01*
G01X-0000118Y0027896D02*
G03X0000070Y0028084I0000000J0000188D01*
G01X-0000699D02*
G03X-0000511Y0027896I0000188J0000000D01*
G01X-0000671Y0028182D02*
G03X-0000699Y0028084I0000160J0000098D01*
G01X-0008909Y0032145D02*
G03X-0009047Y0032205I0000138J0000128D01*
G01X-0000511Y0028665D02*
G03X-0000699Y0028477I0000000J0000188D01*
G01X-0004298Y0033669D02*
G03X-0004091Y0033462I0000207J0000000D01*
G03X-0003884Y0033669I0000000J0000207D01*
G01X-0003883D02*
G03X-0004091Y0033877I0000208J0000000D01*
G03X-0004299Y0033669I0000000J0000208D01*
G01X-0005006D02*
G03X-0004799Y0033462I0000207J0000000D01*
G03X-0004592Y0033669I0000000J0000207D01*
G01X-0004591D02*
G03X-0004799Y0033877I0000208J0000000D01*
G03X-0005007Y0033669I0000000J0000208D01*
G01X-0005753D02*
G03X-0005546Y0033462I0000207J0000000D01*
G03X-0005339Y0033669I0000000J0000207D01*
G03X-0005546Y0033876I0000207J0000000D01*
Y0033877D02*
G03X-0005754Y0033669I0000000J0000208D01*
G01X-0006461D02*
G03X-0006254Y0033462I0000207J0000000D01*
G03X-0006047Y0033669I0000000J0000207D01*
G03X-0006254Y0033876I0000207J0000000D01*
Y0033877D02*
G03X-0006462Y0033669I0000000J0000208D01*
G01X-0007169D02*
G03X-0006962Y0033462I0000207J0000000D01*
G03X-0006755Y0033669I0000000J0000207D01*
G03X-0006962Y0033876I0000207J0000000D01*
Y0033877D02*
G03X-0007170Y0033669I0000000J0000208D01*
G01X-0007641Y0028163D02*
G03X-0007434Y0027956I0000207J0000000D01*
Y0027955D02*
G03X-0007226Y0028163I0000000J0000208D01*
G01X-0007227D02*
G03X-0007434Y0028370I0000207J0000000D01*
G03X-0007641Y0028163I0000000J0000207D01*
Y0028753D02*
G03X-0007434Y0028546I0000207J0000000D01*
Y0028545D02*
G03X-0007226Y0028753I0000000J0000208D01*
G01X-0007227D02*
G03X-0007434Y0028960I0000207J0000000D01*
G03X-0007641Y0028753I0000000J0000207D01*
G01X-0009942Y0032961D02*
G03X-0009755Y0032774I0000187J0000000D01*
G03X-0009568Y0032961I0000000J0000187D01*
G01X-0009567D02*
G03X-0009755Y0033149I0000188J0000000D01*
G03X-0009943Y0032961I0000000J0000188D01*
G01X-0008684D02*
G03X-0008496Y0032773I0000188J0000000D01*
Y0032774D02*
G03X-0008309Y0032961I0000000J0000187D01*
G01X-0008308D02*
G03X-0008496Y0033149I0000188J0000000D01*
G03X-0008684Y0032961I0000000J0000188D01*
G01X-0009510Y0031113D02*
G03X-0009322Y0030925I0000188J0000000D01*
G03X-0009134Y0031113I0000000J0000188D01*
G03X-0009322Y0031301I0000188J0000000D01*
Y0031300D02*
G03X-0009509Y0031113I0000000J0000187D01*
G01X-0007268D02*
G03X-0007080Y0030925I0000188J0000000D01*
G03X-0006892Y0031113I0000000J0000188D01*
G03X-0007080Y0031301I0000188J0000000D01*
Y0031300D02*
G03X-0007267Y0031113I0000000J0000187D01*
G01X-0007818D02*
G03X-0007631Y0030926I0000187J0000000D01*
Y0030925D02*
G03X-0007443Y0031113I0000000J0000188D01*
G03X-0007631Y0031301I0000188J0000000D01*
Y0031300D02*
G03X-0007818Y0031113I0000000J0000187D01*
G01X-0008369D02*
G03X-0008181Y0030925I0000188J0000000D01*
G03X-0007993Y0031113I0000000J0000188D01*
G01X-0007994D02*
G03X-0008181Y0031300I0000187J0000000D01*
G03X-0008368Y0031113I0000000J0000187D01*
G01X-0009549Y0032017D02*
G03X-0009361Y0031829I0000188J0000000D01*
G01X-0008909Y0031890D02*
G03X-0008771Y0031829I0000138J0000127D01*
Y0032205D02*
G03X-0008909Y0032145I0000000J0000188D01*
G01X-0009361Y0032205D02*
G03X-0009549Y0032017I0000000J0000188D01*
Y0031545D02*
G03X-0009361Y0031357I0000188J0000000D01*
G01X-0008909Y0031418D02*
G03X-0008771Y0031357I0000138J0000127D01*
Y0031733D02*
G03X-0008909Y0031673I0000000J0000188D01*
G01X-0009361Y0031733D02*
G03X-0009549Y0031545I0000000J0000188D01*
G01X-0008959Y0031113D02*
G03X-0008771Y0030925I0000188J0000000D01*
G03X-0008583Y0031113I0000000J0000188D01*
G01X-0008584D02*
G03X-0008771Y0031300I0000187J0000000D01*
G03X-0008958Y0031113I0000000J0000187D01*
G01X-0011033Y0027360D02*
G03X-0010826Y0027153I0000207J0000000D01*
Y0027152D02*
G03X-0010618Y0027360I0000000J0000208D01*
G01X-0010619D02*
G03X-0010826Y0027567I0000207J0000000D01*
G03X-0011033Y0027360I0000000J0000207D01*
G01X-0011624D02*
G03X-0011416Y0027152I0000208J0000000D01*
G03X-0011208Y0027360I0000000J0000208D01*
G01X-0011209D02*
G03X-0011416Y0027567I0000207J0000000D01*
G03X-0011623Y0027360I0000000J0000207D01*
G01X-0011033Y0028147D02*
G03X-0010826Y0027940I0000207J0000000D01*
G03X-0010619Y0028147I0000000J0000207D01*
G03X-0010826Y0028354I0000207J0000000D01*
G03X-0011033Y0028147I0000000J0000207D01*
G01X-0010049Y0027557D02*
G03X-0009842Y0027350I0000207J0000000D01*
Y0027349D02*
G03X-0009634Y0027557I0000000J0000208D01*
G03X-0009842Y0027765I0000208J0000000D01*
Y0027764D02*
G03X-0010049Y0027557I0000000J0000207D01*
Y0028147D02*
G03X-0009842Y0027940I0000207J0000000D01*
G03X-0009635Y0028147I0000000J0000207D01*
G01X-0009634D02*
G03X-0009842Y0028355I0000208J0000000D01*
Y0028354D02*
G03X-0010049Y0028147I0000000J0000207D01*
G01X-0008868Y0027557D02*
G03X-0008661Y0027350I0000207J0000000D01*
Y0027349D02*
G03X-0008453Y0027557I0000000J0000208D01*
G03X-0008661Y0027765I0000208J0000000D01*
Y0027764D02*
G03X-0008868Y0027557I0000000J0000207D01*
G01X-0008474Y0028147D02*
G03X-0008267Y0027940I0000207J0000000D01*
G03X-0008060Y0028147I0000000J0000207D01*
G03X-0008267Y0028354I0000207J0000000D01*
G03X-0008474Y0028147I0000000J0000207D01*
G01X-0014970Y0026376D02*
G03X-0014763Y0026169I0000207J0000000D01*
Y0026168D02*
G03X-0014555Y0026376I0000000J0000208D01*
G03X-0014763Y0026584I0000208J0000000D01*
Y0026583D02*
G03X-0014970Y0026376I0000000J0000207D01*
G01X-0015757D02*
G03X-0015550Y0026169I0000207J0000000D01*
Y0026168D02*
G03X-0015342Y0026376I0000000J0000208D01*
G01X-0015343D02*
G03X-0015550Y0026583I0000207J0000000D01*
G03X-0015757Y0026376I0000000J0000207D01*
Y0026966D02*
G03X-0015550Y0026759I0000207J0000000D01*
G03X-0015343Y0026966I0000000J0000207D01*
G03X-0015550Y0027173I0000207J0000000D01*
G03X-0015757Y0026966I0000000J0000207D01*
G01X-0015364Y0030706D02*
G03X-0015156Y0030498I0000208J0000000D01*
Y0030499D02*
G03X-0014949Y0030706I0000000J0000207D01*
G03X-0015156Y0030913I0000207J0000000D01*
G03X-0015363Y0030706I0000000J0000207D01*
G01X-0016151D02*
G03X-0015944Y0030499I0000207J0000000D01*
G03X-0015737Y0030706I0000000J0000207D01*
G01X-0015736D02*
G03X-0015944Y0030914I0000208J0000000D01*
Y0030913D02*
G03X-0016151Y0030706I0000000J0000207D01*
Y0030115D02*
G03X-0015944Y0029908I0000207J0000000D01*
G03X-0015737Y0030115I0000000J0000207D01*
G01X-0015736D02*
G03X-0015944Y0030323I0000208J0000000D01*
G03X-0016152Y0030115I0000000J0000208D01*
G01X-0015364D02*
G03X-0015156Y0029907I0000208J0000000D01*
Y0029908D02*
G03X-0014949Y0030115I0000000J0000207D01*
G03X-0015156Y0030322I0000207J0000000D01*
Y0030323D02*
G03X-0015364Y0030115I0000000J0000208D01*
Y0029525D02*
G03X-0015156Y0029317I0000208J0000000D01*
Y0029318D02*
G03X-0014949Y0029525I0000000J0000207D01*
G03X-0015156Y0029732I0000207J0000000D01*
G03X-0015363Y0029525I0000000J0000207D01*
G01X-0016151D02*
G03X-0015944Y0029318I0000207J0000000D01*
G03X-0015737Y0029525I0000000J0000207D01*
G01X-0015736D02*
G03X-0015944Y0029733I0000208J0000000D01*
Y0029732D02*
G03X-0016151Y0029525I0000000J0000207D01*
G01X-0014970Y0026966D02*
G03X-0014763Y0026759I0000207J0000000D01*
G03X-0014556Y0026966I0000000J0000207D01*
G01X-0014555D02*
G03X-0014763Y0027174I0000208J0000000D01*
Y0027173D02*
G03X-0014970Y0026966I0000000J0000207D01*
G01X-0014183D02*
G03X-0013975Y0026758I0000208J0000000D01*
G01X0001343Y0025804D02*
G03X0001127Y0026170I0000419J0000000D01*
G01X-0000315Y0027896D02*
G03X-0000216Y0027924I0000000J0000188D01*
G01X0000713Y0026166D02*
G03X0000505Y0025804I0000211J0000362D01*
G01X-0006948Y0029916D02*
G03X-0007081Y0029861I0000000J0000188D01*
G01X0000070Y0028281D02*
G03X0000042Y0028379I0000188J0000000D01*
Y0028182D02*
G03X0000070Y0028281I0000160J0000099D01*
G01X-0000216Y0027924D02*
G03X-0000118Y0027896I0000098J0000160D01*
G01X-0000699Y0028477D02*
G03X-0000671Y0028379I0000188J0000000D01*
G01X0001127Y0027296D02*
G03X0000920Y0027503I0000207J0000000D01*
G01X-0007358Y0029583D02*
G03X-0007495Y0029388I0000070J0000195D01*
G01X0002204Y0032141D02*
G03X0002435Y0032516I0000188J0000375D01*
G01X-0000709Y0029452D02*
G03X-0000728Y0029540I0000207J0000000D01*
G01X-0001104D02*
G03X-0001124Y0029452I0000188J0000088D01*
G01X-0003045Y0027412D02*
G03X-0002924Y0027373I0000121J0000168D01*
G01X0002135Y0027400D02*
G03X0002096Y0027521I0000207J0000000D01*
G01X0000920Y0027503D02*
G03X0000713Y0027296I0000000J0000207D01*
G01X-0002200Y0031659D02*
G03X-0002396Y0031519I0000000J0000207D01*
G01X-0009204Y0032348D02*
G03X-0009047Y0032263I0000157J0000102D01*
G01X-0000413Y0028637D02*
G03X-0000511Y0028665I0000098J0000160D01*
Y0027896D02*
G03X-0000413Y0027924I0000000J0000188D01*
G03X-0000315Y0027896I0000098J0000160D01*
G01X-0000671Y0028379D02*
G03X-0000699Y0028281I0000160J0000098D01*
G01X-0000315Y0028665D02*
G03X-0000413Y0028637I0000000J0000188D01*
G01X-0009361Y0031830D02*
G03X-0009204Y0031915I0000000J0000187D01*
Y0032120D02*
G03X-0009361Y0032205I0000157J0000103D01*
G01X-0009047Y0032262D02*
G03X-0008909Y0032322I0000000J0000188D01*
G01X-0009047Y0031830D02*
G03X-0008909Y0031890I0000000J0000187D01*
G01X0000042Y0028379D02*
G03X0000070Y0028477I0000160J0000098D01*
G01X-0009204Y0031443D02*
G03X-0009047Y0031358I0000157J0000102D01*
Y0031733D02*
G03X-0009204Y0031648I0000000J0000188D01*
G01X-0001123Y0031816D02*
G03X-0001104Y0031728I0000207J0000000D01*
G01X-0008173Y0029596D02*
G03X-0008327Y0029396I0000053J0000200D01*
G01X-0007392Y0030300D02*
G03X-0007525Y0030245I0000000J0000188D01*
G01X-0009204Y0031915D02*
G03X-0009047Y0031830I0000157J0000102D01*
G01X-0009361Y0032262D02*
G03X-0009204Y0032348I0000000J0000188D01*
G01X-0009047Y0032205D02*
G03X-0009204Y0032120I0000000J0000188D01*
G01X0002100Y0029034D02*
G03X0002140Y0029156I0000168J0000122D01*
G01X-0002012Y0031364D02*
G03X-0001992Y0031452I0000188J0000088D01*
G01X-0000728Y0031728D02*
G03X-0000708Y0031816I0000188J0000088D01*
G01X-0002067Y0030635D02*
G03X-0002012Y0030768I0000133J0000133D01*
G01X0002975Y0028840D02*
G03X0002956Y0028928I0000207J0000000D01*
G01X-0010887Y0032272D02*
G03X-0010849Y0032392I0000169J0000120D01*
G01X-0008909Y0031673D02*
G03X-0009047Y0031733I0000138J0000128D01*
G01X-0010853Y0031030D02*
G03X-0010887Y0031144I0000207J0000000D01*
G54D28*
G01X-0002584Y0032280D02*
Y0030840D01*
X-0003312Y0030112D01*
X-0007392D01*
X-0008108Y0029396D01*
X-0008120D01*
X-0002200Y0031452D02*
Y0030768D01*
X-0003240Y0029728D01*
X-0006948D01*
X-0007288Y0029388D01*
X-0008181Y0024347D02*
X-0008575D01*
X-0008614D01*
X0002768Y0027400D02*
Y0028840D01*
Y0030800D01*
X0002528Y0031040D01*
X0002016Y0032516D02*
Y0030016D01*
X0002768Y0028840D02*
Y0027400D01*
X-0000916Y0031816D02*
Y0029452D01*
G54D29*
G01X0001932Y0029156D02*
Y0028688D01*
X0001928Y0028684D01*
Y0027400D01*
X-0002924Y0027580D02*
X-0006816D01*
G54D30*
G01X0000924Y0025804D02*
Y0025982D01*
X0000920Y0025986D01*
Y0027296D01*
G54D32*
G01X-0011060Y0031020D02*
Y0031030D01*
X-0011056Y0031034D01*
Y0032392D01*
X-0011060Y0031030D02*
X-0011056Y0031034D01*
Y0032392D01*
G54D10*
X-0015183Y0024583D03*
X-0015222Y0035636D03*
X0007513Y0024583D03*
X0007434Y0035439D03*
G54D14*
X0001016Y0032516D03*
X0002016D03*
X0000924Y0024804D03*
Y0025804D03*
X-0000220Y0024796D03*
Y0025796D03*
G54D19*
X0007631Y0030680D03*
Y0028680D03*
Y0026743D03*
G54D24*
X-0009047Y0031545D03*
Y0032017D03*
X-0008771Y0032450D03*
Y0032017D03*
Y0031545D03*
X-0009361Y0032450D03*
X-0000315Y0028084D03*
Y0028477D03*
Y0028281D03*
X-0000118D03*
X-0000511D03*
X-0000118Y0028084D03*
X-0000511D03*
Y0028477D03*
X-0009755Y0032961D03*
X-0008496D03*
X-0009047Y0032450D03*
X-0009322Y0031113D03*
X-0007080D03*
X-0007631D03*
X-0008181D03*
X-0009361Y0032017D03*
Y0031545D03*
X-0008771Y0031113D03*
X0003800Y0027438D03*
X-0000960Y0024878D03*
Y0025496D03*
X-0000958Y0026094D03*
X-0000738Y0026582D03*
X-0000118Y0028477D03*
G54D25*
X-0008614Y0024347D03*
X-0004091Y0033669D03*
X-0004799D03*
X-0005546D03*
X-0006254D03*
X-0006962D03*
X-0007434Y0028163D03*
Y0028753D03*
X-0010826Y0027360D03*
X-0011416D03*
X-0010826Y0028147D03*
X-0009842Y0027557D03*
Y0028147D03*
X-0008661Y0027557D03*
X-0008267Y0028147D03*
X-0014762Y0026376D03*
X-0015550D03*
Y0026966D03*
X-0015156Y0030706D03*
X-0015943D03*
Y0030115D03*
X-0015156D03*
Y0029525D03*
X-0015943D03*
X-0014762Y0026966D03*
X-0013975D03*
Y0028541D03*
Y0027753D03*
X-0013188D03*
X-0011416Y0028147D03*
X-0002756Y0033658D03*
X-0001968Y0033068D03*
Y0033658D03*
X0005231Y0031034D03*
X0003937Y0033658D03*
X0004724D03*
X0005231Y0033276D03*
Y0032450D03*
X-0001181Y0033658D03*
X0005231Y0031703D03*
X-0007873Y0026376D03*
X-0010038Y0025588D03*
X-0013188Y0028541D03*
X-0008661Y0026376D03*
X-0009054Y0025588D03*
X-0008267D03*
X-0012204Y0027360D03*
X-0009448Y0026376D03*
X-0010826Y0025588D03*
X-0011810D03*
X-0012794D03*
X-0013778D03*
X-0008267Y0028738D03*
X-0010235Y0026376D03*
X-0011416D03*
X-0012400D03*
X-0013188D03*
X-0013975D03*
X0005192Y0025449D03*
X0004744Y0026110D03*
X0005271Y0026393D03*
X0004740Y0026780D03*
X0003780Y0023688D03*
Y0024318D03*
X0004470Y0024310D03*
X0004476Y0023728D03*
X0004480Y0024878D03*
X0004476Y0025434D03*
X0003068Y0023732D03*
X0003070Y0024318D03*
Y0024870D03*
Y0025408D03*
X-0002164Y0026610D03*
X-0001794Y0027060D03*
X-0001390Y0027496D03*
X-0002568Y0029164D03*
X-0002000Y0029844D03*
X-0001994Y0029170D03*
X-0001458Y0029178D03*
X0001332Y0029098D03*
X0000712D03*
G54D31*
X-0002584Y0032280D03*
X-0002200Y0031452D03*
X-0008120Y0029396D03*
X-0011060Y0031020D03*
X0002528Y0031040D03*
X0001932Y0029156D03*
X0001928Y0027400D03*
X0002016Y0030016D03*
X0002768Y0028840D03*
Y0027400D03*
X-0011060Y0031030D03*
X-0011056Y0032392D03*
X-0007288Y0029388D03*
X0000920Y0027296D03*
X-0000916Y0031816D03*
Y0029452D03*
G54D34*
X-0008575Y0024347D03*
G54D35*
X-0002924Y0027580D03*
X-0006816D03*
M02*
