*
G04 Mass Parameters ***
*
G04 Image ***
*
%INC:\USERS\FOX\DESKTOP\ST\ISV0012V1\ISV0012V1-1.SMB*%
%ICAS*%
%MOIN*%
%IPPOS*%
%ASAXBY*%
G74*%FSLAN2X34Y34*%
*
G04 Aperture Definitions ***
*
%ADD10C,0.1870*%
%ADD11R,0.0500X0.0500*%
%ADD12R,0.0787X0.1181*%
%ADD13R,0.0394X0.0394*%
%ADD14C,0.0620*%
%ADD15R,0.0590X0.0100*%
%ADD16R,0.0630X0.0630*%
%ADD17R,0.0098X0.0394*%
%ADD18R,0.0394X0.0098*%
%ADD19C,0.0787*%
%ADD20R,0.0720X0.1660*%
%ADD21R,0.0320X0.0380*%
%ADD22R,0.1150X0.1100*%
%ADD23R,0.1100X0.1150*%
%ADD24C,0.0157*%
%ADD25C,0.0197*%
%ADD26C,0.0010*%
%ADD27C,0.0100*%
%ADD28C,0.0157*%
%ADD29C,0.0118*%
%ADD30C,0.0197*%
%ADD31C,0.0197*%
%ADD32C,0.0120*%
%ADD33C,0.0394*%
%ADD34R,0.9449X0.1968*%
%ADD35C,0.0197*%
%ADD36C,0.1968*%
%ADD37C,0.0670*%
%ADD38C,0.0886*%
%ADD39C,0.0039*%
%ADD40R,0.9842X0.2047*%
*
G04 Plot Data ***
*
G54D25*
X-0009047Y0031545D03*
Y0032017D03*
X-0008771Y0032450D03*
Y0032017D03*
Y0031545D03*
X-0009361Y0032450D03*
X-0000315Y0028084D03*
Y0028477D03*
Y0028281D03*
X-0000118D03*
X-0000511D03*
X-0000118Y0028084D03*
X-0000511D03*
Y0028477D03*
X-0008614Y0024347D03*
X-0004091Y0033669D03*
X-0004799D03*
X-0005546D03*
X-0006254D03*
X-0006962D03*
X-0007434Y0028163D03*
Y0028753D03*
X-0009755Y0032961D03*
X-0008496D03*
X-0009047Y0032450D03*
X-0009322Y0031113D03*
X-0007080D03*
X-0007631D03*
X-0008181D03*
X-0009361Y0032017D03*
Y0031545D03*
X-0008771Y0031113D03*
X-0010826Y0027360D03*
X-0011416D03*
X-0010826Y0028147D03*
X-0009842Y0027557D03*
Y0028147D03*
X-0008661Y0027557D03*
X-0008267Y0028147D03*
X-0014762Y0026376D03*
X-0015550D03*
Y0026966D03*
X-0015156Y0030706D03*
X-0015943D03*
Y0030115D03*
X-0015156D03*
Y0029525D03*
X-0015943D03*
X-0014762Y0026966D03*
X-0013975D03*
Y0028541D03*
Y0027753D03*
X-0013188D03*
X-0011416Y0028147D03*
X-0002756Y0033658D03*
X-0001968Y0033068D03*
Y0033658D03*
X0005231Y0031034D03*
X0003937Y0033658D03*
X0004724D03*
X0005231Y0033276D03*
Y0032450D03*
X-0001181Y0033658D03*
X0005231Y0031703D03*
X-0007873Y0026376D03*
X-0010038Y0025588D03*
X-0013188Y0028541D03*
X-0008661Y0026376D03*
X-0009054Y0025588D03*
X-0008267D03*
X-0012204Y0027360D03*
X-0009448Y0026376D03*
X-0010826Y0025588D03*
X-0011810D03*
X-0012794D03*
X-0013778D03*
X-0008267Y0028738D03*
X-0010235Y0026376D03*
X-0011416D03*
X-0012400D03*
X-0013188D03*
X-0013975D03*
X0003800Y0027438D03*
X-0000960Y0024878D03*
Y0025496D03*
X-0000958Y0026094D03*
X0005192Y0025449D03*
X0004744Y0026110D03*
X0005271Y0026393D03*
X0004740Y0026780D03*
X0003780Y0023688D03*
Y0024318D03*
X0004470Y0024310D03*
X0004476Y0023728D03*
X0004480Y0024878D03*
X0004476Y0025434D03*
X0003068Y0023732D03*
X0003070Y0024318D03*
Y0024870D03*
Y0025408D03*
X-0000738Y0026582D03*
X-0002164Y0026610D03*
X-0001794Y0027060D03*
X-0001390Y0027496D03*
X-0002568Y0029164D03*
X-0002000Y0029844D03*
X-0001994Y0029170D03*
X-0001458Y0029178D03*
X0001332Y0029098D03*
X0000712D03*
X-0000118Y0028477D03*
G54D35*
X-0002584Y0032280D03*
X-0002200Y0031452D03*
X-0008120Y0029396D03*
X-0011060Y0031020D03*
X0002528Y0031040D03*
X0001932Y0029156D03*
X0001928Y0027400D03*
X0002016Y0030016D03*
X0002768Y0028840D03*
Y0027400D03*
X-0011060Y0031030D03*
X-0011056Y0032392D03*
X-0007288Y0029388D03*
X0000920Y0027296D03*
X-0000916Y0031816D03*
Y0029452D03*
X-0002924Y0027580D03*
X-0006816D03*
G54D36*
X-0015183Y0024583D03*
X-0015222Y0035636D03*
X0007513Y0024583D03*
X0007434Y0035439D03*
G54D37*
X0001016Y0032516D03*
X0002016D03*
X0000924Y0024804D03*
Y0025804D03*
X-0000220Y0024796D03*
Y0025796D03*
G54D38*
X0007631Y0030680D03*
Y0028680D03*
Y0026743D03*
G54D40*
X-0008575Y0024347D03*
M02*
