*
G04 Mass Parameters ***
*
G04 Image ***
*
%INC:\USERS\FOX\DESKTOP\ST\ISV0012V1\ISV0012V1-1.DRD*%
%ICAS*%
%MOIN*%
%IPPOS*%
%ASAXBY*%
G74*%FSLAN2X34Y34*%
*
G04 Aperture Definitions ***
*
%ADD10C,0.1870*%
%ADD11R,0.0500X0.0500*%
%ADD12R,0.0787X0.1181*%
%ADD13R,0.0394X0.0394*%
%ADD14C,0.0620*%
%ADD15R,0.0590X0.0100*%
%ADD16R,0.0630X0.0630*%
%ADD17R,0.0098X0.0394*%
%ADD18R,0.0394X0.0098*%
%ADD19C,0.0787*%
%ADD20R,0.0720X0.1660*%
%ADD21R,0.0320X0.0380*%
%ADD22R,0.1150X0.1100*%
%ADD23R,0.1100X0.1150*%
%ADD24C,0.0157*%
%ADD25C,0.0197*%
%ADD26C,0.0010*%
%ADD27C,0.0100*%
%ADD28C,0.0157*%
%ADD29C,0.0118*%
%ADD30C,0.0197*%
%ADD31C,0.0197*%
%ADD32C,0.0120*%
%ADD33C,0.0394*%
%ADD34R,0.9449X0.1968*%
%ADD35C,0.0197*%
%ADD36C,0.1968*%
%ADD37C,0.0670*%
%ADD38C,0.0886*%
%ADD39C,0.0039*%
%ADD40R,0.9842X0.2047*%
%ADD41R,0.0590X0.0098*%
%ADD42C,0.0060*%
%ADD43C,0.0040*%
%ADD44C,0.0020*%
%ADD45C,0.0079*%
%ADD46C,0.0080*%
*
G04 Plot Data ***
*
G54D27*
G01X0024708Y-0014000D02*
X0024042D01*
X0024375Y-0013333D01*
X0024542D01*
Y-0014333D01*
X0023758Y-0014000D02*
X0023092D01*
X0023425Y-0013333D01*
X0023592D01*
Y-0014333D01*
X0022808D02*
X0022475D01*
X0022642D02*
Y-0013333D01*
X0022475Y-0013500D01*
X0012312Y-0014333D02*
X0011729D01*
Y-0013333D01*
X0011446Y-0014000D02*
X0010779D01*
X0011446Y-0014333D02*
Y-0013833D01*
X0011196Y-0013333D01*
X0011029D01*
X0010779Y-0013833D01*
Y-0014333D01*
X0010162D02*
Y-0013333D01*
X0010496D02*
X0009829D01*
X0008962Y-0014333D02*
X0008879Y-0014167D01*
Y-0013500D01*
X0008962Y-0013333D01*
X0009462D01*
X0009546Y-0013500D01*
Y-0014167D01*
X0009462Y-0014333D01*
X0008962D01*
X0008262D02*
Y-0013333D01*
X0008596D02*
X0007929D01*
X0032564Y-0012472D02*
Y-0011806D01*
X0032508Y-0012472D02*
X0032842D01*
X0032953Y-0012250D01*
Y-0012028D01*
X0032842Y-0011806D01*
X0032508D01*
X0032142Y-0012139D02*
X0031808D01*
X0032253Y-0012472D02*
X0031808D01*
Y-0011806D01*
X0032253D01*
X0031330Y-0012472D02*
Y-0011806D01*
X0031553D02*
X0031108D01*
X0030853Y-0012250D02*
X0030408D01*
X0030853Y-0012472D02*
Y-0012139D01*
X0030686Y-0011806D01*
X0030575D01*
X0030408Y-0012139D01*
Y-0012472D01*
X0030153D02*
X0029764D01*
Y-0011806D01*
X0029064Y-0012139D02*
X0029397D01*
X0029508Y-0012028D01*
Y-0011917D01*
X0029397Y-0011806D01*
X0029064D01*
Y-0012472D01*
X0028808Y-0012139D02*
X0028364D01*
X0028108Y-0011806D02*
Y-0012472D01*
X0027997Y-0012361D01*
X0027775Y-0011917D01*
X0027664Y-0011806D01*
Y-0012472D01*
X0027019D02*
X0026964Y-0012361D01*
Y-0011917D01*
X0027019Y-0011806D01*
X0027353D01*
X0027408Y-0011917D01*
Y-0012361D01*
X0027353Y-0012472D01*
X0027019D01*
X0026708Y-0011806D02*
Y-0012472D01*
X0026597Y-0012361D01*
X0026375Y-0011917D01*
X0026264Y-0011806D01*
Y-0012472D01*
X0024708Y-0012250D02*
X0024264D01*
X0024486Y-0011806D01*
X0024597D01*
Y-0012472D01*
X0010869D02*
Y-0012139D01*
X0011092Y-0012472D02*
Y-0012139D01*
X0011036Y-0012028D01*
X0010925D01*
X0010869Y-0012139D01*
X0010814Y-0012028D01*
X0010703D01*
X0010647Y-0012139D01*
Y-0012472D01*
X0010169D02*
Y-0012139D01*
X0010392Y-0012472D02*
Y-0012139D01*
X0010336Y-0012028D01*
X0010225D01*
X0010169Y-0012139D01*
X0010114Y-0012028D01*
X0010003D01*
X0009947Y-0012139D01*
Y-0012472D01*
X0008464D02*
X0008353Y-0012361D01*
X0008297Y-0012250D01*
Y-0012028D01*
X0008353Y-0011917D01*
X0008464Y-0011806D01*
X0008575D01*
X0008686Y-0011917D01*
X0008742Y-0012028D01*
Y-0012250D01*
X0008686Y-0012361D01*
X0008575Y-0012472D01*
X0008464D01*
X0007764D02*
X0007653Y-0012361D01*
X0007597Y-0012250D01*
Y-0012028D01*
X0007653Y-0011917D01*
X0007764Y-0011806D01*
X0007875D01*
X0007986Y-0011917D01*
X0008042Y-0012028D01*
Y-0012250D01*
X0007986Y-0012361D01*
X0007875Y-0012472D01*
X0007764D01*
X0006897Y-0012361D02*
X0006953Y-0012472D01*
X0007286D01*
X0007342Y-0012361D01*
Y-0012139D01*
X0007230Y-0012028D01*
X0006897D01*
Y-0011806D01*
X0007342D01*
X0006531Y-0012472D02*
X0006642D01*
Y-0012361D01*
X0006531D01*
Y-0012472D01*
X0006164Y-0012250D02*
X0005719D01*
X0005942Y-0011806D01*
X0006053D01*
Y-0012472D01*
X0024264Y-0010861D02*
X0024375Y-0010972D01*
X0024597D01*
X0024708Y-0010861D01*
Y-0010750D01*
X0024486Y-0010528D01*
X0024708Y-0010306D01*
X0024264D01*
X0010869Y-0010972D02*
Y-0010639D01*
X0011092Y-0010972D02*
Y-0010639D01*
X0011036Y-0010528D01*
X0010925D01*
X0010869Y-0010639D01*
X0010814Y-0010528D01*
X0010703D01*
X0010647Y-0010639D01*
Y-0010972D01*
X0010169D02*
Y-0010639D01*
X0010392Y-0010972D02*
Y-0010639D01*
X0010336Y-0010528D01*
X0010225D01*
X0010169Y-0010639D01*
X0010114Y-0010528D01*
X0010003D01*
X0009947Y-0010639D01*
Y-0010972D01*
X0008686Y-0010639D02*
X0008353D01*
X0008297Y-0010528D01*
Y-0010417D01*
X0008353Y-0010306D01*
X0008686D01*
X0008742Y-0010417D01*
Y-0010528D01*
X0008519Y-0010972D01*
X0007986Y-0010639D02*
X0007653D01*
X0007597Y-0010528D01*
Y-0010417D01*
X0007653Y-0010306D01*
X0007986D01*
X0008042Y-0010417D01*
Y-0010528D01*
X0007819Y-0010972D01*
X0007342Y-0010750D02*
X0006897D01*
X0007119Y-0010306D01*
X0007230D01*
Y-0010972D01*
X0006531D02*
X0006642D01*
Y-0010861D01*
X0006531D01*
Y-0010972D01*
X0006164D02*
X0005942D01*
X0006053D02*
Y-0010306D01*
X0005942Y-0010417D01*
X0032564Y-0009472D02*
Y-0008806D01*
X0032508Y-0009472D02*
X0032842D01*
X0032953Y-0009250D01*
Y-0009028D01*
X0032842Y-0008806D01*
X0032508D01*
X0032142Y-0009139D02*
X0031808D01*
X0032253Y-0009472D02*
X0031808D01*
Y-0008806D01*
X0032253D01*
X0031330Y-0009472D02*
Y-0008806D01*
X0031553D02*
X0031108D01*
X0030853Y-0009250D02*
X0030408D01*
X0030853Y-0009472D02*
Y-0009139D01*
X0030686Y-0008806D01*
X0030575D01*
X0030408Y-0009139D01*
Y-0009472D01*
X0030153D02*
X0029764D01*
Y-0008806D01*
X0029064Y-0009139D02*
X0029397D01*
X0029508Y-0009028D01*
Y-0008917D01*
X0029397Y-0008806D01*
X0029064D01*
Y-0009472D01*
X0028808Y-0009139D02*
X0028364D01*
X0028108Y-0008806D02*
Y-0009472D01*
X0027997Y-0009361D01*
X0027775Y-0008917D01*
X0027664Y-0008806D01*
Y-0009472D01*
X0027019D02*
X0026964Y-0009361D01*
Y-0008917D01*
X0027019Y-0008806D01*
X0027353D01*
X0027408Y-0008917D01*
Y-0009361D01*
X0027353Y-0009472D01*
X0027019D01*
X0026708Y-0008806D02*
Y-0009472D01*
X0026597Y-0009361D01*
X0026375Y-0008917D01*
X0026264Y-0008806D01*
Y-0009472D01*
X0024708D02*
X0024264D01*
X0024708Y-0009028D01*
Y-0008917D01*
X0024653Y-0008806D01*
X0024319D01*
X0024264Y-0008917D01*
X0010869Y-0009472D02*
Y-0009139D01*
X0011092Y-0009472D02*
Y-0009139D01*
X0011036Y-0009028D01*
X0010925D01*
X0010869Y-0009139D01*
X0010814Y-0009028D01*
X0010703D01*
X0010647Y-0009139D01*
Y-0009472D01*
X0010169D02*
Y-0009139D01*
X0010392Y-0009472D02*
Y-0009139D01*
X0010336Y-0009028D01*
X0010225D01*
X0010169Y-0009139D01*
X0010114Y-0009028D01*
X0010003D01*
X0009947Y-0009139D01*
Y-0009472D01*
X0008464D02*
X0008353Y-0009361D01*
X0008297Y-0009250D01*
Y-0009028D01*
X0008353Y-0008917D01*
X0008464Y-0008806D01*
X0008575D01*
X0008686Y-0008917D01*
X0008742Y-0009028D01*
Y-0009250D01*
X0008686Y-0009361D01*
X0008575Y-0009472D01*
X0008464D01*
X0007764D02*
X0007653Y-0009361D01*
X0007597Y-0009250D01*
Y-0009028D01*
X0007653Y-0008917D01*
X0007764Y-0008806D01*
X0007875D01*
X0007986Y-0008917D01*
X0008042Y-0009028D01*
Y-0009250D01*
X0007986Y-0009361D01*
X0007875Y-0009472D01*
X0007764D01*
X0007064D02*
X0006953Y-0009361D01*
X0006897Y-0009250D01*
Y-0009028D01*
X0006953Y-0008917D01*
X0007064Y-0008806D01*
X0007175D01*
X0007286Y-0008917D01*
X0007342Y-0009028D01*
Y-0009250D01*
X0007286Y-0009361D01*
X0007175Y-0009472D01*
X0007064D01*
X0006531D02*
X0006642D01*
Y-0009361D01*
X0006531D01*
Y-0009472D01*
X0006164D02*
X0005942D01*
X0006053D02*
Y-0008806D01*
X0005942Y-0008917D01*
X0024319Y-0007639D02*
X0024653D01*
X0024708Y-0007750D01*
Y-0007861D01*
X0024653Y-0007972D01*
X0024319D01*
X0024264Y-0007861D01*
Y-0007750D01*
X0024486Y-0007306D01*
X0010869Y-0007972D02*
Y-0007639D01*
X0011092Y-0007972D02*
Y-0007639D01*
X0011036Y-0007528D01*
X0010925D01*
X0010869Y-0007639D01*
X0010814Y-0007528D01*
X0010703D01*
X0010647Y-0007639D01*
Y-0007972D01*
X0010169D02*
Y-0007639D01*
X0010392Y-0007972D02*
Y-0007639D01*
X0010336Y-0007528D01*
X0010225D01*
X0010169Y-0007639D01*
X0010114Y-0007528D01*
X0010003D01*
X0009947Y-0007639D01*
Y-0007972D01*
X0008297Y-0007861D02*
X0008353Y-0007972D01*
X0008686D01*
X0008742Y-0007861D01*
Y-0007639D01*
X0008630Y-0007528D01*
X0008297D01*
Y-0007306D01*
X0008742D01*
X0007653Y-0007639D02*
X0007986D01*
X0008042Y-0007750D01*
Y-0007861D01*
X0007986Y-0007972D01*
X0007653D01*
X0007597Y-0007861D01*
Y-0007750D01*
X0007819Y-0007306D01*
X0007286Y-0007639D02*
X0006953D01*
X0006897Y-0007528D01*
Y-0007417D01*
X0006953Y-0007306D01*
X0007286D01*
X0007342Y-0007417D01*
Y-0007528D01*
X0007119Y-0007972D01*
X0006531D02*
X0006642D01*
Y-0007861D01*
X0006531D01*
Y-0007972D01*
X0005886D02*
X0005775Y-0007861D01*
X0005719Y-0007750D01*
Y-0007528D01*
X0005775Y-0007417D01*
X0005886Y-0007306D01*
X0005997D01*
X0006108Y-0007417D01*
X0006164Y-0007528D01*
Y-0007750D01*
X0006108Y-0007861D01*
X0005997Y-0007972D01*
X0005886D01*
X0024653Y-0006139D02*
X0024319D01*
X0024264Y-0006028D01*
Y-0005917D01*
X0024319Y-0005806D01*
X0024653D01*
X0024708Y-0005917D01*
Y-0006028D01*
X0024486Y-0006472D01*
X0023953Y-0006139D02*
X0023619D01*
X0023564Y-0006028D01*
Y-0005917D01*
X0023619Y-0005806D01*
X0023953D01*
X0024008Y-0005917D01*
Y-0006028D01*
X0023786Y-0006472D01*
X0010869D02*
Y-0006139D01*
X0011092Y-0006472D02*
Y-0006139D01*
X0011036Y-0006028D01*
X0010925D01*
X0010869Y-0006139D01*
X0010814Y-0006028D01*
X0010703D01*
X0010647Y-0006139D01*
Y-0006472D01*
X0010169D02*
Y-0006139D01*
X0010392Y-0006472D02*
Y-0006139D01*
X0010336Y-0006028D01*
X0010225D01*
X0010169Y-0006139D01*
X0010114Y-0006028D01*
X0010003D01*
X0009947Y-0006139D01*
Y-0006472D01*
X0008464D02*
X0008353Y-0006361D01*
X0008297Y-0006250D01*
Y-0006028D01*
X0008353Y-0005917D01*
X0008464Y-0005806D01*
X0008575D01*
X0008686Y-0005917D01*
X0008742Y-0006028D01*
Y-0006250D01*
X0008686Y-0006361D01*
X0008575Y-0006472D01*
X0008464D01*
X0007764D02*
X0007653Y-0006361D01*
X0007597Y-0006250D01*
Y-0006028D01*
X0007653Y-0005917D01*
X0007764Y-0005806D01*
X0007875D01*
X0007986Y-0005917D01*
X0008042Y-0006028D01*
Y-0006250D01*
X0007986Y-0006361D01*
X0007875Y-0006472D01*
X0007764D01*
X0006897Y-0006361D02*
X0006953Y-0006472D01*
X0007286D01*
X0007342Y-0006361D01*
Y-0006139D01*
X0007230Y-0006028D01*
X0006897D01*
Y-0005806D01*
X0007342D01*
X0006531Y-0006472D02*
X0006642D01*
Y-0006361D01*
X0006531D01*
Y-0006472D01*
X0005886D02*
X0005775Y-0006361D01*
X0005719Y-0006250D01*
Y-0006028D01*
X0005775Y-0005917D01*
X0005886Y-0005806D01*
X0005997D01*
X0006108Y-0005917D01*
X0006164Y-0006028D01*
Y-0006250D01*
X0006108Y-0006361D01*
X0005997Y-0006472D01*
X0005886D01*
X0024430Y-0004972D02*
X0024319Y-0004861D01*
X0024264Y-0004750D01*
Y-0004528D01*
X0024319Y-0004417D01*
X0024430Y-0004306D01*
X0024542D01*
X0024653Y-0004417D01*
X0024708Y-0004528D01*
Y-0004750D01*
X0024653Y-0004861D01*
X0024542Y-0004972D01*
X0024430D01*
X0023564Y-0004861D02*
X0023675Y-0004972D01*
X0023897D01*
X0024008Y-0004861D01*
Y-0004750D01*
X0023786Y-0004528D01*
X0024008Y-0004306D01*
X0023564D01*
X0010869Y-0004972D02*
Y-0004639D01*
X0011092Y-0004972D02*
Y-0004639D01*
X0011036Y-0004528D01*
X0010925D01*
X0010869Y-0004639D01*
X0010814Y-0004528D01*
X0010703D01*
X0010647Y-0004639D01*
Y-0004972D01*
X0010169D02*
Y-0004639D01*
X0010392Y-0004972D02*
Y-0004639D01*
X0010336Y-0004528D01*
X0010225D01*
X0010169Y-0004639D01*
X0010114Y-0004528D01*
X0010003D01*
X0009947Y-0004639D01*
Y-0004972D01*
X0008464D02*
X0008353Y-0004861D01*
X0008297Y-0004750D01*
Y-0004528D01*
X0008353Y-0004417D01*
X0008464Y-0004306D01*
X0008575D01*
X0008686Y-0004417D01*
X0008742Y-0004528D01*
Y-0004750D01*
X0008686Y-0004861D01*
X0008575Y-0004972D01*
X0008464D01*
X0007764D02*
X0007653Y-0004861D01*
X0007597Y-0004750D01*
Y-0004528D01*
X0007653Y-0004417D01*
X0007764Y-0004306D01*
X0007875D01*
X0007986Y-0004417D01*
X0008042Y-0004528D01*
Y-0004750D01*
X0007986Y-0004861D01*
X0007875Y-0004972D01*
X0007764D01*
X0007342D02*
X0006897D01*
X0007342Y-0004528D01*
Y-0004417D01*
X0007286Y-0004306D01*
X0006953D01*
X0006897Y-0004417D01*
X0006531Y-0004972D02*
X0006642D01*
Y-0004861D01*
X0006531D01*
Y-0004972D01*
X0005886D02*
X0005775Y-0004861D01*
X0005719Y-0004750D01*
Y-0004528D01*
X0005775Y-0004417D01*
X0005886Y-0004306D01*
X0005997D01*
X0006108Y-0004417D01*
X0006164Y-0004528D01*
Y-0004750D01*
X0006108Y-0004861D01*
X0005997Y-0004972D01*
X0005886D01*
X0033112Y-0002833D02*
X0032612D01*
X0033279Y-0003333D02*
X0032612D01*
Y-0002333D01*
X0033279D01*
X0031996Y-0003333D02*
Y-0002333D01*
X0032329D02*
X0031662D01*
X0030796Y-0003333D02*
X0030712Y-0003167D01*
Y-0002500D01*
X0030796Y-0002333D01*
X0031296D01*
X0031379Y-0002500D01*
Y-0003167D01*
X0031296Y-0003333D01*
X0030796D01*
X0030429Y-0002333D02*
Y-0003333D01*
X0030262Y-0003167D01*
X0029929Y-0002500D01*
X0029762Y-0002333D01*
Y-0003333D01*
X0023925D02*
Y-0002833D01*
X0024258Y-0002333D02*
X0024008Y-0002833D01*
X0023842D01*
X0023592Y-0002333D01*
X0022975Y-0003333D02*
Y-0002333D01*
X0023308D02*
X0022642D01*
X0022025Y-0003000D02*
X0022358Y-0003333D01*
X0021692Y-0003167D02*
X0021775Y-0003333D01*
X0022108D01*
X0022192Y-0003167D01*
X0022358Y-0003000D01*
Y-0002500D01*
X0022275Y-0002333D01*
X0021775D01*
X0021692Y-0002500D01*
Y-0003167D01*
X0017408Y-0003333D02*
X0016825D01*
Y-0002333D01*
X0015958Y-0003333D02*
X0015875Y-0003167D01*
Y-0002500D01*
X0015958Y-0002333D01*
X0016458D01*
X0016542Y-0002500D01*
Y-0003167D01*
X0016458Y-0003333D01*
X0015958D01*
X0015258D02*
Y-0002333D01*
X0015592D02*
X0014925D01*
X0009587Y-0003333D02*
Y-0002333D01*
X0009421Y-0002500D01*
X0009254Y-0002833D01*
X0009087Y-0002500D01*
X0008921Y-0002333D01*
Y-0003333D01*
X0008637Y-0003000D02*
X0007971D01*
X0008637Y-0003333D02*
Y-0002833D01*
X0008387Y-0002333D01*
X0008221D01*
X0007971Y-0002833D01*
Y-0003333D01*
X0007687D02*
X0007354D01*
X0007521D02*
Y-0002333D01*
X0007687D02*
X0007354D01*
X0006321Y-0003333D02*
Y-0002333D01*
X0006237Y-0003333D02*
X0006737D01*
X0006904Y-0003000D01*
Y-0002667D01*
X0006737Y-0002333D01*
X0006237D01*
X0003150Y-0003333D02*
Y-0002333D01*
X0002983Y-0002500D01*
X0002817Y-0002833D01*
X0002650Y-0002500D01*
X0002483Y-0002333D01*
Y-0003333D01*
X0001867D02*
Y-0002833D01*
X0002200Y-0002333D02*
X0001950Y-0002833D01*
X0001783D01*
X0001533Y-0002333D01*
X0001250Y-0002500D02*
X0001167Y-0002333D01*
X0000667D01*
X0000583Y-0002500D01*
Y-0002667D01*
X0000667Y-0002833D01*
X0001167D01*
X0001250Y-0003000D01*
Y-0003167D01*
X0001167Y-0003333D01*
X0000667D01*
X0000583Y-0003167D01*
X0023437Y-0001333D02*
Y-0000333D01*
X0023771D02*
X0023104D01*
X0022571Y-0000833D02*
X0022821Y-0001333D01*
X0022154Y-0000833D02*
X0022654D01*
X0022821Y-0000667D01*
Y-0000500D01*
X0022654Y-0000333D01*
X0022154D01*
Y-0001333D01*
X0021871Y-0001000D02*
X0021204D01*
X0021871Y-0001333D02*
Y-0000833D01*
X0021621Y-0000333D01*
X0021454D01*
X0021204Y-0000833D01*
Y-0001333D01*
X0020921Y-0000833D02*
X0020254D01*
X0020921Y-0001333D02*
Y-0000333D01*
X0020254Y-0001333D02*
Y-0000333D01*
X0019971Y-0001167D02*
X0019887Y-0001333D01*
X0019387D01*
X0019304Y-0001167D01*
Y-0000500D01*
X0019387Y-0000333D01*
X0019887D01*
X0019971Y-0000500D01*
X0017696Y-0001333D02*
X0017112D01*
Y-0000333D01*
X0016829Y-0001333D02*
X0016246D01*
Y-0000333D01*
X0015962Y-0001333D02*
X0015629D01*
X0015796D02*
Y-0000333D01*
X0015962D02*
X0015629D01*
X0014929Y-0000833D02*
X0015179Y-0001333D01*
X0014512Y-0000833D02*
X0015012D01*
X0015179Y-0000667D01*
Y-0000500D01*
X0015012Y-0000333D01*
X0014512D01*
Y-0001333D01*
X0013646D02*
Y-0000333D01*
X0013562Y-0001333D02*
X0014062D01*
X0014229Y-0001000D01*
Y-0000667D01*
X0014062Y-0000333D01*
X0013562D01*
X-0002334Y0032530D02*
X-0002834Y0032030D01*
X-0002334D02*
X-0002834Y0032530D01*
X-0007870Y0029646D02*
X-0008370Y0029146D01*
X-0007870D02*
X-0008370Y0029646D01*
X-0001950Y0031702D02*
X-0002450Y0031202D01*
X-0001950D02*
X-0002450Y0031702D01*
X-0007038Y0029638D02*
X-0007538Y0029138D01*
X-0007038D02*
X-0007538Y0029638D01*
X-0007870Y0029646D02*
X-0008370Y0029146D01*
X-0007870D02*
X-0008370Y0029646D01*
X-0010810Y0031270D02*
X-0011310Y0030770D01*
X-0010810D02*
X-0011310Y0031270D01*
X-0010806Y0032642D02*
X-0011306Y0032142D01*
X-0010806D02*
X-0011306Y0032642D01*
X0003018Y0027650D02*
X0002518Y0027150D01*
X0003018D02*
X0002518Y0027650D01*
X0002778Y0031290D02*
X0002278Y0030790D01*
X0002778D02*
X0002278Y0031290D01*
X0002182Y0029406D02*
X0001682Y0028906D01*
X0002182D02*
X0001682Y0029406D01*
X0002178Y0027650D02*
X0001678Y0027150D01*
X0002178D02*
X0001678Y0027650D01*
X0002266Y0030266D02*
X0001766Y0029766D01*
X0002266D02*
X0001766Y0030266D01*
X0003018Y0029090D02*
X0002518Y0028590D01*
X0003018D02*
X0002518Y0029090D01*
X0003018Y0027650D02*
X0002518Y0027150D01*
X0003018D02*
X0002518Y0027650D01*
X-0010810Y0031280D02*
X-0011310Y0030780D01*
X-0010810D02*
X-0011310Y0031280D01*
X-0010806Y0032642D02*
X-0011306Y0032142D01*
X-0010806D02*
X-0011306Y0032642D01*
X-0007038Y0029638D02*
X-0007538Y0029138D01*
X-0007038D02*
X-0007538Y0029638D01*
X0001170Y0027546D02*
X0000670Y0027046D01*
X0001170D02*
X0000670Y0027546D01*
X-0000666Y0032066D02*
X-0001166Y0031566D01*
X-0000666D02*
X-0001166Y0032066D01*
X-0000666Y0029702D02*
X-0001166Y0029202D01*
X-0000666D02*
X-0001166Y0029702D01*
X-0002674Y0027830D02*
X-0003174Y0027330D01*
X-0002674D02*
X-0003174Y0027830D01*
X-0006566D02*
X-0007066Y0027330D01*
X-0006566D02*
X-0007066Y0027830D01*
X0001825Y-0012000D02*
X0001575Y-0012250D01*
X0002075D02*
X0001825Y-0012000D01*
Y-0012500D02*
X0002075Y-0012250D01*
X0001575D02*
X0001825Y-0012500D01*
X0001575Y-0010500D02*
Y-0010750D01*
X0001825Y-0010500D02*
X0001575D01*
X0001825Y-0011000D02*
Y-0010500D01*
X0002075Y-0011000D02*
X0001825D01*
X0002075Y-0010750D02*
Y-0011000D01*
X0001575Y-0010750D02*
X0002075D01*
X0001575Y-0009000D02*
Y-0009500D01*
X0002075Y-0009000D02*
X0001575D01*
X0002075Y-0009500D02*
Y-0009000D01*
X0001575Y-0009500D02*
X0002075D01*
Y-0009250D02*
X0001575D01*
X0001825Y-0009000D02*
Y-0009500D01*
X0001575Y-0007500D02*
Y-0008000D01*
X0002075Y-0007500D02*
X0001575D01*
X0002075Y-0008000D02*
Y-0007500D01*
X0001575Y-0008000D02*
X0002075D01*
Y-0007500D02*
X0001575Y-0008000D01*
X0002075D02*
X0001575Y-0007500D01*
X0002075Y-0006000D02*
X0001575Y-0006500D01*
X0002075D02*
X0001575Y-0006000D01*
X0002075Y-0004750D02*
X0001575D01*
X0001825Y-0004500D02*
Y-0005000D01*
X0037300Y-0015050D02*
X-0000050D01*
X0037250Y-0015000D02*
X0000000D01*
X0037250Y-0013000D02*
X0000000D01*
X0037250Y-0011500D02*
X0000000D01*
X0037250Y-0010000D02*
X0000000D01*
X0037250Y-0008500D02*
X0000000D01*
X0037250Y-0007000D02*
X0000000D01*
X0037250Y-0005500D02*
X0000000D01*
X0037250Y-0004000D02*
X0000000D01*
X0037250Y-0003950D02*
X0000000D01*
X0037250Y-0002000D02*
X0000000D01*
X0037250Y-0001950D02*
X0000000D01*
X0037250Y0000000D02*
X0000000D01*
X0037300Y0000050D02*
X-0000050D01*
X0037300Y-0015000D02*
Y0000000D01*
X0037250Y-0015000D02*
Y0000000D01*
X0025708Y-0015000D02*
Y-0002000D01*
X0020158Y-0015000D02*
Y-0002000D01*
X0012092Y-0013000D02*
Y-0002000D01*
X0003700Y-0013000D02*
Y-0002000D01*
X0003650Y-0013000D02*
Y-0002000D01*
X-0000050Y-0015000D02*
Y0000000D01*
X0000000Y-0015000D02*
Y0000000D01*
X-0016534Y0037005D02*
Y0023226D01*
X0009054D01*
Y0037005D01*
X-0016534D01*
X-0008797Y0031545D02*
X-0009297D01*
X-0009047Y0031795D02*
Y0031295D01*
X-0008797Y0032017D02*
X-0009297D01*
X-0009047Y0032267D02*
Y0031767D01*
X-0008521Y0032450D02*
X-0009021D01*
X-0008771Y0032700D02*
Y0032200D01*
X-0008521Y0032017D02*
X-0009021D01*
X-0008771Y0032267D02*
Y0031767D01*
X-0008521Y0031545D02*
X-0009021D01*
X-0008771Y0031795D02*
Y0031295D01*
X-0009111Y0032450D02*
X-0009611D01*
X-0009361Y0032700D02*
Y0032200D01*
X-0000065Y0028084D02*
X-0000565D01*
X-0000315Y0028334D02*
Y0027834D01*
X-0000065Y0028477D02*
X-0000565D01*
X-0000315Y0028727D02*
Y0028227D01*
X-0000065Y0028281D02*
X-0000565D01*
X-0000315Y0028531D02*
Y0028031D01*
X0000132Y0028281D02*
X-0000368D01*
X-0000118Y0028531D02*
Y0028031D01*
X-0000261Y0028281D02*
X-0000761D01*
X-0000511Y0028531D02*
Y0028031D01*
X0000132Y0028084D02*
X-0000368D01*
X-0000118Y0028334D02*
Y0027834D01*
X-0000261Y0028084D02*
X-0000761D01*
X-0000511Y0028334D02*
Y0027834D01*
X-0000261Y0028477D02*
X-0000761D01*
X-0000511Y0028727D02*
Y0028227D01*
X-0008364Y0024597D02*
X-0008864Y0024097D01*
X-0008364D02*
X-0008864Y0024597D01*
X-0003841Y0033919D02*
X-0004341Y0033419D01*
X-0003841D02*
X-0004341Y0033919D01*
X-0004549D02*
X-0005049Y0033419D01*
X-0004549D02*
X-0005049Y0033919D01*
X-0005296D02*
X-0005796Y0033419D01*
X-0005296D02*
X-0005796Y0033919D01*
X-0006004D02*
X-0006504Y0033419D01*
X-0006004D02*
X-0006504Y0033919D01*
X-0006712D02*
X-0007212Y0033419D01*
X-0006712D02*
X-0007212Y0033919D01*
X-0007184Y0028413D02*
X-0007684Y0027913D01*
X-0007184D02*
X-0007684Y0028413D01*
X-0007184Y0029003D02*
X-0007684Y0028503D01*
X-0007184D02*
X-0007684Y0029003D01*
X-0009505Y0032961D02*
X-0010005D01*
X-0009755Y0033211D02*
Y0032711D01*
X-0008246Y0032961D02*
X-0008746D01*
X-0008496Y0033211D02*
Y0032711D01*
X-0008797Y0032450D02*
X-0009297D01*
X-0009047Y0032700D02*
Y0032200D01*
X-0009072Y0031113D02*
X-0009572D01*
X-0009322Y0031363D02*
Y0030863D01*
X-0006830Y0031113D02*
X-0007330D01*
X-0007080Y0031363D02*
Y0030863D01*
X-0007381Y0031113D02*
X-0007881D01*
X-0007631Y0031363D02*
Y0030863D01*
X-0007931Y0031113D02*
X-0008431D01*
X-0008181Y0031363D02*
Y0030863D01*
X-0009111Y0032017D02*
X-0009611D01*
X-0009361Y0032267D02*
Y0031767D01*
X-0009111Y0031545D02*
X-0009611D01*
X-0009361Y0031795D02*
Y0031295D01*
X-0008521Y0031113D02*
X-0009021D01*
X-0008771Y0031363D02*
Y0030863D01*
X-0010576Y0027610D02*
X-0011076Y0027110D01*
X-0010576D02*
X-0011076Y0027610D01*
X-0011166D02*
X-0011666Y0027110D01*
X-0011166D02*
X-0011666Y0027610D01*
X-0010576Y0028397D02*
X-0011076Y0027897D01*
X-0010576D02*
X-0011076Y0028397D01*
X-0009592Y0027807D02*
X-0010092Y0027307D01*
X-0009592D02*
X-0010092Y0027807D01*
X-0009592Y0028397D02*
X-0010092Y0027897D01*
X-0009592D02*
X-0010092Y0028397D01*
X-0008411Y0027807D02*
X-0008911Y0027307D01*
X-0008411D02*
X-0008911Y0027807D01*
X-0008017Y0028397D02*
X-0008517Y0027897D01*
X-0008017D02*
X-0008517Y0028397D01*
X-0014512Y0026626D02*
X-0015012Y0026126D01*
X-0014512D02*
X-0015012Y0026626D01*
X-0015300D02*
X-0015800Y0026126D01*
X-0015300D02*
X-0015800Y0026626D01*
X-0015300Y0027216D02*
X-0015800Y0026716D01*
X-0015300D02*
X-0015800Y0027216D01*
X-0014906Y0030956D02*
X-0015406Y0030456D01*
X-0014906D02*
X-0015406Y0030956D01*
X-0015693D02*
X-0016193Y0030456D01*
X-0015693D02*
X-0016193Y0030956D01*
X-0015693Y0030365D02*
X-0016193Y0029865D01*
X-0015693D02*
X-0016193Y0030365D01*
X-0014906D02*
X-0015406Y0029865D01*
X-0014906D02*
X-0015406Y0030365D01*
X-0014906Y0029775D02*
X-0015406Y0029275D01*
X-0014906D02*
X-0015406Y0029775D01*
X-0015693D02*
X-0016193Y0029275D01*
X-0015693D02*
X-0016193Y0029775D01*
X-0014512Y0027216D02*
X-0015012Y0026716D01*
X-0014512D02*
X-0015012Y0027216D01*
X-0013725D02*
X-0014225Y0026716D01*
X-0013725D02*
X-0014225Y0027216D01*
X-0013725Y0028791D02*
X-0014225Y0028291D01*
X-0013725D02*
X-0014225Y0028791D01*
X-0013725Y0028003D02*
X-0014225Y0027503D01*
X-0013725D02*
X-0014225Y0028003D01*
X-0012938D02*
X-0013438Y0027503D01*
X-0012938D02*
X-0013438Y0028003D01*
X-0011166Y0028397D02*
X-0011666Y0027897D01*
X-0011166D02*
X-0011666Y0028397D01*
X-0002506Y0033908D02*
X-0003006Y0033408D01*
X-0002506D02*
X-0003006Y0033908D01*
X-0001718Y0033318D02*
X-0002218Y0032818D01*
X-0001718D02*
X-0002218Y0033318D01*
X-0001718Y0033908D02*
X-0002218Y0033408D01*
X-0001718D02*
X-0002218Y0033908D01*
X0005481Y0031284D02*
X0004981Y0030784D01*
X0005481D02*
X0004981Y0031284D01*
X0004187Y0033908D02*
X0003687Y0033408D01*
X0004187D02*
X0003687Y0033908D01*
X0004974D02*
X0004474Y0033408D01*
X0004974D02*
X0004474Y0033908D01*
X0005481Y0033526D02*
X0004981Y0033026D01*
X0005481D02*
X0004981Y0033526D01*
X0005481Y0032700D02*
X0004981Y0032200D01*
X0005481D02*
X0004981Y0032700D01*
X-0000931Y0033908D02*
X-0001431Y0033408D01*
X-0000931D02*
X-0001431Y0033908D01*
X0005481Y0031953D02*
X0004981Y0031453D01*
X0005481D02*
X0004981Y0031953D01*
X-0007623Y0026626D02*
X-0008123Y0026126D01*
X-0007623D02*
X-0008123Y0026626D01*
X-0009788Y0025838D02*
X-0010288Y0025338D01*
X-0009788D02*
X-0010288Y0025838D01*
X-0012938Y0028791D02*
X-0013438Y0028291D01*
X-0012938D02*
X-0013438Y0028791D01*
X-0008411Y0026626D02*
X-0008911Y0026126D01*
X-0008411D02*
X-0008911Y0026626D01*
X-0008804Y0025838D02*
X-0009304Y0025338D01*
X-0008804D02*
X-0009304Y0025838D01*
X-0008017D02*
X-0008517Y0025338D01*
X-0008017D02*
X-0008517Y0025838D01*
X-0011954Y0027610D02*
X-0012454Y0027110D01*
X-0011954D02*
X-0012454Y0027610D01*
X-0009198Y0026626D02*
X-0009698Y0026126D01*
X-0009198D02*
X-0009698Y0026626D01*
X-0010576Y0025838D02*
X-0011076Y0025338D01*
X-0010576D02*
X-0011076Y0025838D01*
X-0011560D02*
X-0012060Y0025338D01*
X-0011560D02*
X-0012060Y0025838D01*
X-0012544D02*
X-0013044Y0025338D01*
X-0012544D02*
X-0013044Y0025838D01*
X-0013528D02*
X-0014028Y0025338D01*
X-0013528D02*
X-0014028Y0025838D01*
X-0008017Y0028988D02*
X-0008517Y0028488D01*
X-0008017D02*
X-0008517Y0028988D01*
X-0009985Y0026626D02*
X-0010485Y0026126D01*
X-0009985D02*
X-0010485Y0026626D01*
X-0011166D02*
X-0011666Y0026126D01*
X-0011166D02*
X-0011666Y0026626D01*
X-0012150D02*
X-0012650Y0026126D01*
X-0012150D02*
X-0012650Y0026626D01*
X-0012938D02*
X-0013438Y0026126D01*
X-0012938D02*
X-0013438Y0026626D01*
X-0013725D02*
X-0014225Y0026126D01*
X-0013725D02*
X-0014225Y0026626D01*
X0004050Y0027438D02*
X0003550D01*
X0003800Y0027688D02*
Y0027188D01*
X-0000710Y0024878D02*
X-0001210D01*
X-0000960Y0025128D02*
Y0024628D01*
X-0000710Y0025496D02*
X-0001210D01*
X-0000960Y0025746D02*
Y0025246D01*
X-0000708Y0026094D02*
X-0001208D01*
X-0000958Y0026344D02*
Y0025844D01*
X0005442Y0025699D02*
X0004942Y0025199D01*
X0005442D02*
X0004942Y0025699D01*
X0004994Y0026360D02*
X0004494Y0025860D01*
X0004994D02*
X0004494Y0026360D01*
X0005521Y0026643D02*
X0005021Y0026143D01*
X0005521D02*
X0005021Y0026643D01*
X0004990Y0027030D02*
X0004490Y0026530D01*
X0004990D02*
X0004490Y0027030D01*
X0004030Y0023938D02*
X0003530Y0023438D01*
X0004030D02*
X0003530Y0023938D01*
X0004030Y0024568D02*
X0003530Y0024068D01*
X0004030D02*
X0003530Y0024568D01*
X0004720Y0024560D02*
X0004220Y0024060D01*
X0004720D02*
X0004220Y0024560D01*
X0004726Y0023978D02*
X0004226Y0023478D01*
X0004726D02*
X0004226Y0023978D01*
X0004730Y0025128D02*
X0004230Y0024628D01*
X0004730D02*
X0004230Y0025128D01*
X0004726Y0025684D02*
X0004226Y0025184D01*
X0004726D02*
X0004226Y0025684D01*
X0003318Y0023982D02*
X0002818Y0023482D01*
X0003318D02*
X0002818Y0023982D01*
X0003320Y0024568D02*
X0002820Y0024068D01*
X0003320D02*
X0002820Y0024568D01*
X0003320Y0025120D02*
X0002820Y0024620D01*
X0003320D02*
X0002820Y0025120D01*
X0003320Y0025658D02*
X0002820Y0025158D01*
X0003320D02*
X0002820Y0025658D01*
X-0000488Y0026582D02*
X-0000988D01*
X-0000738Y0026832D02*
Y0026332D01*
X-0001914Y0026860D02*
X-0002414Y0026360D01*
X-0001914D02*
X-0002414Y0026860D01*
X-0001544Y0027310D02*
X-0002044Y0026810D01*
X-0001544D02*
X-0002044Y0027310D01*
X-0001140Y0027746D02*
X-0001640Y0027246D01*
X-0001140D02*
X-0001640Y0027746D01*
X-0002318Y0029414D02*
X-0002818Y0028914D01*
X-0002318D02*
X-0002818Y0029414D01*
X-0001750Y0030094D02*
X-0002250Y0029594D01*
X-0001750D02*
X-0002250Y0030094D01*
X-0001744Y0029420D02*
X-0002244Y0028920D01*
X-0001744D02*
X-0002244Y0029420D01*
X-0001208Y0029428D02*
X-0001708Y0028928D01*
X-0001208D02*
X-0001708Y0029428D01*
X0001582Y0029348D02*
X0001082Y0028848D01*
X0001582D02*
X0001082Y0029348D01*
X0000962D02*
X0000462Y0028848D01*
X0000962D02*
X0000462Y0029348D01*
X0000132Y0028477D02*
X-0000368D01*
X-0000118Y0028727D02*
Y0028227D01*
X0007381Y0030930D02*
Y0030680D01*
X0007631Y0030930D02*
X0007381D01*
X0007631Y0030430D02*
Y0030930D01*
X0007881Y0030430D02*
X0007631D01*
X0007881Y0030680D02*
Y0030430D01*
X0007381Y0030680D02*
X0007881D01*
X0007381Y0028930D02*
Y0028680D01*
X0007631Y0028930D02*
X0007381D01*
X0007631Y0028430D02*
Y0028930D01*
X0007881Y0028430D02*
X0007631D01*
X0007881Y0028680D02*
Y0028430D01*
X0007381Y0028680D02*
X0007881D01*
X0007381Y0026993D02*
Y0026743D01*
X0007631Y0026993D02*
X0007381D01*
X0007631Y0026493D02*
Y0026993D01*
X0007881Y0026493D02*
X0007631D01*
X0007881Y0026743D02*
Y0026493D01*
X0007381Y0026743D02*
X0007881D01*
X0000766Y0032766D02*
Y0032266D01*
X0001266Y0032766D02*
X0000766D01*
X0001266Y0032266D02*
Y0032766D01*
X0000766Y0032266D02*
X0001266D01*
Y0032766D02*
X0000766Y0032266D01*
X0001266D02*
X0000766Y0032766D01*
X0001766D02*
Y0032266D01*
X0002266Y0032766D02*
X0001766D01*
X0002266Y0032266D02*
Y0032766D01*
X0001766Y0032266D02*
X0002266D01*
Y0032766D02*
X0001766Y0032266D01*
X0002266D02*
X0001766Y0032766D01*
X0000674Y0025054D02*
Y0024554D01*
X0001174Y0025054D02*
X0000674D01*
X0001174Y0024554D02*
Y0025054D01*
X0000674Y0024554D02*
X0001174D01*
Y0025054D02*
X0000674Y0024554D01*
X0001174D02*
X0000674Y0025054D01*
Y0026054D02*
Y0025554D01*
X0001174Y0026054D02*
X0000674D01*
X0001174Y0025554D02*
Y0026054D01*
X0000674Y0025554D02*
X0001174D01*
Y0026054D02*
X0000674Y0025554D01*
X0001174D02*
X0000674Y0026054D01*
X-0000470Y0025046D02*
Y0024546D01*
X0000030Y0025046D02*
X-0000470D01*
X0000030Y0024546D02*
Y0025046D01*
X-0000470Y0024546D02*
X0000030D01*
Y0025046D02*
X-0000470Y0024546D01*
X0000030D02*
X-0000470Y0025046D01*
Y0026046D02*
Y0025546D01*
X0000030Y0026046D02*
X-0000470D01*
X0000030Y0025546D02*
Y0026046D01*
X-0000470Y0025546D02*
X0000030D01*
Y0026046D02*
X-0000470Y0025546D01*
X0000030D02*
X-0000470Y0026046D01*
X-0015183Y0024833D02*
X-0015433Y0024583D01*
X-0014933D02*
X-0015183Y0024833D01*
Y0024333D02*
X-0014933Y0024583D01*
X-0015433D02*
X-0015183Y0024333D01*
X-0015222Y0035886D02*
X-0015472Y0035636D01*
X-0014972D02*
X-0015222Y0035886D01*
Y0035386D02*
X-0014972Y0035636D01*
X-0015472D02*
X-0015222Y0035386D01*
X0007513Y0024833D02*
X0007263Y0024583D01*
X0007763D02*
X0007513Y0024833D01*
Y0024333D02*
X0007763Y0024583D01*
X0007263D02*
X0007513Y0024333D01*
X0007434Y0035689D02*
X0007184Y0035439D01*
X0007684D02*
X0007434Y0035689D01*
Y0035189D02*
X0007684Y0035439D01*
X0007184D02*
X0007434Y0035189D01*
X-0015826Y0028491D02*
Y0027991D01*
X-0015326Y0028491D02*
X-0015826D01*
X-0015326Y0027991D02*
Y0028491D01*
X-0015826Y0027991D02*
X-0015326D01*
Y0028241D02*
X-0015826D01*
X-0015576Y0028491D02*
Y0027991D01*
X-0015865Y0032110D02*
Y0031610D01*
X-0015365Y0032110D02*
X-0015865D01*
X-0015365Y0031610D02*
Y0032110D01*
X-0015865Y0031610D02*
X-0015365D01*
Y0031860D02*
X-0015865D01*
X-0015615Y0032110D02*
Y0031610D01*
M02*
