%
T2C0.0197F200S100
X-015943Y029525
X-015943Y030115
X-015943Y030706
X-015550Y026376
X-015550Y026966
X-015156Y029525
X-015156Y030115
X-015156Y030706
X-014762Y026376
X-014762Y026966
X-013975Y026376
X-013975Y026966
X-013975Y027753
X-013975Y028541
X-013778Y025588
X-013188Y026376
X-012794Y025588
X-013188Y027753
X-013188Y028541
X-012400Y026376
X-012204Y027360
X-011810Y025588
X-011416Y026376
X-011416Y027360
X-011416Y028147
X-011060Y031020
X-011060Y031030
X-011056Y032392
X-010826Y025588
X-010235Y026376
X-010826Y027360
X-010826Y028147
X-010038Y025588
X-009842Y027557
X-009842Y028147
X-009448Y026376
X-009054Y025588
X-008661Y026376
X-008661Y027557
X-008614Y024347
X-008267Y025588
X-008267Y028147
X-008267Y028738
X-008120Y029396
X-007873Y026376
X-007434Y028163
X-007434Y028753
X-007288Y029388
X-006962Y033669
X-006816Y027580
X-006254Y033669
X-005546Y033669
X-004799Y033669
X-004091Y033669
X-002924Y027580
X-002756Y033658
X-002584Y032280
X-002568Y029164
X-002200Y031452
X-002164Y026610
X-002000Y029844
X-001994Y029170
X-001968Y033068
X-001968Y033658
X-001794Y027060
X-001458Y029178
X-001390Y027496
X-001181Y033658
X-000916Y029452
X000712Y029098
X-000916Y031816
X000920Y027296
X001332Y029098
X001928Y027400
X001932Y029156
X002016Y030016
X002528Y031040
X002768Y027400
X002768Y028840
X003068Y023732
X003070Y024318
X003070Y024870
X003070Y025408
X003780Y023688
X003780Y024318
X003937Y033658
X004470Y024310
X004476Y023728
X004480Y024878
X004476Y025434
X004724Y033658
X004740Y026780
X004744Y026110
X005192Y025449
X005231Y031034
X005231Y031703
X005231Y032450
X005231Y033276
X005271Y026393
T1C0.0079F200S100
X-009755Y032961
X-009361Y031545
X-009361Y032017
X-009361Y032450
X-009322Y031113
X-009047Y031545
X-009047Y032017
X-009047Y032450
X-008771Y031113
X-008771Y031545
X-008771Y032017
X-008771Y032450
X-008496Y032961
X-008181Y031113
X-007631Y031113
X-007080Y031113
X-000960Y024878
X-000960Y025496
X-000958Y026094
X-000738Y026582
X-000511Y028084
X-000511Y028281
X-000511Y028477
X-000315Y028084
X-000315Y028281
X-000315Y028477
X-000118Y028084
X-000118Y028281
X-000118Y028477
X003800Y027438
T3C0.0380F200S100
X-000220Y024796
X-000220Y025796
X000924Y024804
X000924Y025804
X001016Y032516
X002016Y032516
T5C0.0590F200S100
X007631Y026743
X007631Y028680
X007631Y030680
M30
